<?xml version="1.0" encoding="utf-8"?>
<!-- Generator: Adobe Illustrator 22.1.0, SVG Export Plug-In . SVG Version: 6.00 Build 0)  -->
<svg version="1.1" id="Layer_1" xmlns="http://www.w3.org/2000/svg" xmlns:xlink="http://www.w3.org/1999/xlink" x="0px" y="0px"
	 viewBox="0 0 1280 800" style="enable-background:new 0 0 1280 800;" xml:space="preserve">
<g>
	<path d="M536,323.3h0.1v6.1c0,0.3-0.1,0.4-0.4,0.4h-19.6c-0.3,0-0.4-0.1-0.4-0.4v-50c0.1-0.3,0.2-0.4,0.4-0.4h5.9
		c0.3,0.1,0.4,0.2,0.4,0.4v43.6H536V323.3z M517.1,330.6h0.6c0.2,0,1.5,1.4,4.1,4.1l-0.4,0.2h-0.6c-0.2,0-1.5-1.4-4.1-4.1
		L517.1,330.6z M519.5,330.6h0.6c0.2,0,1.6,1.4,4.1,4.1v0.2h-1c-0.2,0-1.6-1.4-4.1-4.1L519.5,330.6z M521.7,330.6h0.8
		c0.2,0,1.6,1.4,4.1,4.1v0.2h-0.8c-0.2,0-1.6-1.4-4.1-4.1V330.6z M523.7,280.2l3.9,4.2v1h-0.2c-0.2,0-1.5-1.4-4.1-4.1v-0.6
		C523.3,280.4,523.5,280.2,523.7,280.2z M523.3,282.8h0.2c0.2,0,1.6,1.4,4.1,4.1v0.8h-0.2c-0.2,0-1.5-1.4-4.1-4.1V282.8z
		 M523.7,285.2l3.9,4.1v0.6c0,0.3-0.1,0.4-0.4,0.4l-3.9-4.1v-0.6C523.3,285.3,523.5,285.2,523.7,285.2z M523.7,287.5
		c0,0.2,1.3,1.6,3.9,4.2v1h-0.2c-0.2,0-1.5-1.4-4.1-4.1V288C523.3,287.7,523.5,287.5,523.7,287.5z M523.3,290.1h0.2
		c0.2,0,1.6,1.4,4.1,4.1v0.8h-0.2c-0.2,0-1.5-1.4-4.1-4.2V290.1z M523.7,292.5l3.9,4.1v0.6c0,0.3-0.1,0.4-0.4,0.4l-3.9-4.1v-0.6
		C523.3,292.6,523.5,292.5,523.7,292.5z M523.3,295.1h0.2c0.2,0,1.6,1.4,4.1,4.1v0.8h-0.2c-0.2,0-1.5-1.4-4.1-4.1V295.1z
		 M523.3,297.4h0.2c0.2,0,1.6,1.4,4.1,4.1v0.8h-0.2c-0.2,0-1.5-1.4-4.1-4.2V297.4z M523.7,299.8l3.9,4.1v1h-0.2
		c-0.2,0-1.5-1.4-4.1-4.1v-0.6C523.3,299.9,523.5,299.8,523.7,299.8z M523.3,302.4h0.2c0.2,0,1.6,1.4,4.1,4.1v0.8h-0.2
		c-0.2,0-1.5-1.4-4.1-4.1V302.4z M523.3,304.7h0.2c0.2,0,1.6,1.4,4.1,4.2v0.6c0,0.3-0.1,0.4-0.4,0.4l-3.9-4.1V304.7z M523.7,307.1
		l3.9,4.1v1h-0.2c-0.2,0-1.5-1.4-4.1-4.1v-0.6C523.3,307.2,523.5,307.1,523.7,307.1z M523.3,309.7h0.2c0.2,0,1.6,1.4,4.1,4.1v0.8
		h-0.2c-0.2,0-1.5-1.4-4.1-4.1V309.7z M523.3,312h0.2c0.2,0,1.6,1.4,4.1,4.2v0.6c0,0.3-0.1,0.4-0.4,0.4l-3.9-4.1V312z M523.7,314.4
		l3.9,4.1v1h-0.2c-0.2,0-1.5-1.4-4.1-4.2v-0.6C523.3,314.5,523.5,314.4,523.7,314.4z M523.3,317h0.2c0.2,0,1.6,1.4,4.1,4.1v0.8h-0.2
		c-0.2,0-1.5-1.4-4.1-4.1V317z M523.3,319.4h0.2c0.2,0,1.1,0.9,2.8,2.7v0.2h-1c-0.2,0-0.8-0.7-2-2V319.4z M523.7,321.7l0.2,0.4v0.2
		h-0.2c-0.3,0-0.4-0.1-0.4-0.4L523.7,321.7z M524.1,330.6h0.4c0.8,0,2.3,1.4,4.8,4.1l-0.4,0.2h-0.6c-0.2,0-1.6-1.4-4.2-4.1V330.6z
		 M526.8,330.6h0.6c0.2,0,1.6,1.4,4.2,4.1v0.2h-1c-0.2,0-1.6-1.4-4.1-4.1L526.8,330.6z M529,330.6h0.8c0.2,0,1.6,1.4,4.1,4.1v0.2
		h-0.8c-0.2,0-1.6-1.4-4.1-4.1V330.6z M531.8,330.6h0.6c0.2,0,1.6,1.4,4.1,4.1l-0.4,0.2h-0.6c-0.2,0-1.6-1.4-4.2-4.1L531.8,330.6z
		 M534.1,330.6h0.6c0.2,0,1.6,1.4,4.2,4.1v0.2h-1c-0.2,0-1.5-1.4-4.1-4.1L534.1,330.6z M536.3,330.6h0.8c0.2,0,1.6,1.4,4.1,4.1
		l-0.4,0.2h-0.4c-0.2,0-1.6-1.4-4.1-4.1V330.6z M536.9,325.7h0.2c0.2,0,1.6,1.4,4.1,4.2v0.6c0,0.3-0.1,0.4-0.4,0.4l-3.9-4.1V325.7z
		 M537.3,328l3.9,4.1v0.6c0,0.3-0.1,0.4-0.4,0.4l-3.9-4.1v-0.6C537,328.2,537.1,328,537.3,328z"/>
	<path d="M541.6,279.1h19.2c0.3,0.1,0.4,0.2,0.4,0.4v5.7c0,0.3-0.1,0.4-0.4,0.4h-12.9v14.7h9.5c0.3,0.1,0.4,0.2,0.4,0.4v5.7
		c0,0.3-0.1,0.4-0.4,0.4h-9.5v16.5h13.9c0.3,0,0.4,0.2,0.4,0.4v5.7c0,0.3-0.1,0.4-0.4,0.4h-20.2c-0.3,0-0.4-0.1-0.4-0.4v-50
		C541.2,279.2,541.3,279.1,541.6,279.1z M542.3,330.8h0.4c0.2,0,1.5,1.3,3.9,4v0.2h-0.4c-0.2,0-1.5-1.3-4-3.9V330.8z M544.3,330.8
		h0.8c0.2,0,1.5,1.3,4,4v0.2h-0.8c-0.2,0-1.5-1.3-4-3.9V330.8z M546.7,330.8h1l4,4v0.2h-1c-0.2,0-1.5-1.3-4-3.9V330.8z M549.1,288
		l3.9,4.2v0.6c0,0.3-0.1,0.4-0.4,0.4l-3.9-4.1v-0.6C548.7,288.1,548.9,288,549.1,288z M548.7,290.5h0.2c0.2,0,1.6,1.4,4.1,4.2v0.8
		h-0.2c-0.2,0-1.5-1.4-4.1-4.1V290.5z M548.7,292.9h0.2c0.2,0,1.6,1.4,4.1,4.2v0.6c0,0.3-0.1,0.4-0.4,0.4l-3.9-4.3V292.9z
		 M549.1,295.3l3.6,3.8v0.2h-1c-0.2,0-1.1-1-3-3v-0.6C548.7,295.4,548.9,295.3,549.1,295.3z M548.7,297.9h0.2c0.2,0,0.6,0.4,1.2,1.2
		v0.2h-0.8c-0.2,0-0.4-0.2-0.6-0.6V297.9z M549.1,307.8c0.2,0,1.5,1.3,3.9,3.9v0.6c0,0.3-0.1,0.4-0.4,0.4l-3.9-4.2v-0.4
		C548.7,307.9,548.9,307.8,549.1,307.8z M549.1,310l3.9,4.1v1h-0.2c-0.2,0-1.5-1.4-4.1-4.2v-0.6C548.7,310.1,548.9,310,549.1,310z
		 M548.7,312.6h0.2c0.2,0,1.6,1.4,4.1,4.1v0.8h-0.2c-0.2,0-1.5-1.4-4.1-4.1V312.6z M548.7,314.9h0.2c0.2,0,1.6,1.4,4.1,4.2v0.6
		c0,0.3-0.1,0.4-0.4,0.4l-3.9-4.1V314.9z M549.1,317.3l3.9,4.2v0.6c0,0.3-0.1,0.4-0.4,0.4l-3.9-4.1v-0.6
		C548.7,317.4,548.9,317.3,549.1,317.3z M548.7,319.9h0.2c0.2,0,1,0.8,2.4,2.4v0.2h-0.8c-0.2,0-0.8-0.6-1.8-1.8V319.9z M549.1,286.6
		h0.8c0.2,0,1.5,1.3,4,3.9v0.2H553c-0.2,0-1.5-1.3-3.9-3.9V286.6z M549.1,330.8h1c0.2,0,1.5,1.3,4,4v0.2h-1c-0.2,0-1.5-1.3-3.9-3.9
		V330.8z M550.7,307.8h0.8c0.2,0,1.5,1.3,3.9,3.9v0.2h-0.8c-0.2,0-1.5-1.3-3.9-3.9V307.8z M551.5,286.6h0.8c0.2,0,1.5,1.3,4,3.9v0.2
		h-0.8c-0.2,0-1.5-1.3-3.9-3.9V286.6z M551.7,330.8h0.8c0.2,0,1.5,1.3,4,4v0.2h-0.8c-0.2,0-1.5-1.3-3.9-3.9V330.8z M553,307.8h0.8
		c0.2,0,1.6,1.3,4.1,3.9v0.2h-1c-0.2,0-1.5-1.3-4-3.9V307.8z M553.9,286.6h1c0.2,0,1.5,1.3,4,3.9v0.2h-1c-0.2,0-1.5-1.3-3.9-3.9
		V286.6z M554.1,330.8h1c0.2,0,1.5,1.3,4,4v0.2h-1c-0.2,0-1.5-1.3-3.9-3.9V330.8z M555.6,307.8h0.8c0.2,0,1.5,1.3,3.9,3.9v0.2h-1
		c-2.4-2.1-3.6-3.5-3.8-3.9V307.8z M556.4,286.6h0.8c0.2,0,1.5,1.3,4,3.9v0.2h-0.8c-0.2,0-1.5-1.3-3.9-3.9V286.6z M556.4,330.8h1
		c0.2,0,1.5,1.3,4,4v0.2h-1c-0.2,0-1.5-1.3-3.9-3.9V330.8z M558,307.8h0.8c0.2,0,1.5,1.3,3.9,3.9v0.2H562c-0.2,0-1.5-1.3-4-3.9
		V307.8z M558.6,302.8h0.2c0.2,0,1.5,1.4,4.1,4.1v0.6c0,0.3-0.1,0.4-0.4,0.4c0-0.2-1.3-1.7-3.9-4.4V302.8z M559,305.2l3.9,4.1v0.6
		c0,0.3-0.1,0.4-0.4,0.4l-3.9-4.2v-0.6C558.6,305.4,558.8,305.2,559,305.2z M558.8,286.6h1c0.2,0,1.4,1.3,3.8,3.8h0.2v0.4h-1
		c-0.2,0-1.5-1.3-3.9-3.9V286.6z M559,330.8h0.8c0.2,0,1.5,1.3,3.9,4v0.2H563c-0.2,0-1.5-1.3-3.9-3.9V330.8z M561.2,286.6h1
		c0.2,0,1.5,1.3,3.9,3.9v0.2h-1c-0.2,0-1.5-1.3-3.9-3.9V286.6z M561.4,330.8h1c0.2,0,1.5,1.3,3.9,4v0.2h-1c-0.2,0-1.5-1.3-3.9-3.9
		V330.8z M562.2,280.2h0.2c0.2,0,1.5,1.3,3.9,4v0.2h-0.2c-0.2,0-1.5-1.3-3.9-3.9V280.2z M562.2,281.8h0.2c0.2,0,1.5,1.3,3.9,4v1
		h-0.2c-0.2,0-1.5-1.3-3.9-4V281.8z M562.2,284.4h0.2c0.2,0,1.5,1.3,3.9,3.9v0.8h-0.2c-0.2,0-1.5-1.3-3.9-4V284.4z M563,324.4h0.2
		c0.2,0,1.5,1.3,4,4v0.8h-0.2c-0.2,0-1.5-1.3-4-4V324.4z M563,326.8h0.2c0.2,0,1.5,1.3,4,3.9v0.8h-0.2c-0.2,0-1.5-1.3-4-4V326.8z
		 M563,329.2h0.2c0.2,0,1.5,1.3,4,3.9v1h-0.2c-0.2,0-1.5-1.3-4-4V329.2z"/>
	<path d="M582.2,279c3,0,5.2,1.7,6.6,5c0.3,0.5,0.4,1.3,0.4,2.2v7c0,0.3-0.1,0.4-0.4,0.4h-6c-0.3,0-0.4-0.1-0.4-0.4v-5.4
		c-0.2-1.5-0.9-2.2-2.2-2.2h-3.9c-1.5,0.2-2.2,0.9-2.2,2.2v7.1c0,1,2.1,2.6,6.3,4.7c5.7,3.2,8.6,5.6,8.6,7.3l0.2,1.2v15.1
		c0,2.8-1.8,4.9-5.4,6.4c-0.5,0.1-1.1,0.2-1.6,0.2h-7.9c-3.3,0-5.6-2-7-6v-11.9c0.1-0.3,0.2-0.4,0.4-0.4h6c0.3,0.1,0.4,0.2,0.4,0.4
		v9.1c0.2,1.5,0.9,2.2,2.2,2.2h3.8c1.6-0.1,2.4-0.9,2.4-2.2v-11.3c0-1-2-2.5-5.9-4.4c-5.7-3.3-8.6-5.6-8.8-7
		c-0.3-0.9-0.4-1.7-0.4-2.4v-9.9c0-3.4,2-5.8,5.9-7.1H582.2z M572.5,330.6h0.6c0.2,0,1.3,1.1,3.4,3.4v0.2
		C576,334.2,574.6,333,572.5,330.6z M573.3,304.6h0.4c0.3,0,1.2,0.8,2.6,2.3h-0.4C575.6,306.9,574.7,306.2,573.3,304.6z
		 M574.7,330.8h1c0.2,0,1.5,1.3,4,4v0.2h-1c-0.2,0-1.5-1.3-4-4V330.8z M575.1,288.7h0.2c0.2,0,1.5,1.3,4,4v1h-0.2
		c-0.2,0-1.5-1.3-4-4V288.7z M575.1,291.1h0.2c0.2,0,1.5,1.3,4,4v1h-0.2c-0.2,0-1.5-1.3-4-4V291.1z M575.1,293.7h0.2
		c0.2,0,1.5,1.3,4,4c-0.1,0-0.2,0.1-0.2,0.2c-1-0.3-2.3-1.5-4-3.4V293.7z M575.1,313.3h0.2c0.2,0,1.5,1.3,4,4v0.8h-0.2
		c-0.2,0-1.5-1.3-4-4V313.3z M575.1,315.7h0.2c0.2,0,1.5,1.3,4,4v0.8h-0.2c-0.2,0-1.5-1.3-4-4V315.7z M575.1,318.1h0.2
		c0.2,0,1.5,1.3,4,4c0,0.3-0.2,0.4-0.6,0.4c-0.4,0-1.6-1.1-3.6-3.4V318.1z M575.1,320.7h0.2c0.2,0,0.7,0.5,1.4,1.4v0.2h-0.8
		c-0.2,0-0.5-0.3-0.8-0.8V320.7z M575.7,286.7c0.2,0,1.6,1.5,4.4,4.4c0,0.3-0.1,0.4-0.4,0.4h-0.2c-0.2,0-1.6-1.4-4.2-4.2v-0.2
		C575.3,286.8,575.4,286.7,575.7,286.7z M577.1,286.5h1c0.2,0,1.3,1.1,3.4,3.4v0.8H581c-0.2,0-1.5-1.3-4-4V286.5z M577.3,330.8h0.8
		c0.2,0,1.5,1.3,4,4v0.2h-0.8c-0.2,0-1.5-1.3-4-4V330.8z M578.2,307.6h0.4c1.6,0.9,2.5,1.5,2.8,2v0.2l-0.2,0.4
		C580.5,309.9,579.5,309,578.2,307.6z M579.4,286.5h1c0.2,0,0.5,0.3,1,1v1h-0.2c-0.2,0-0.8-0.6-1.8-1.8V286.5z M579.6,330.8h1
		c0.2,0,1.5,1.3,4,4v0.2h-1c-0.2,0-1.5-1.3-4-4V330.8z M583,330.6l4,4.2v0.2h-1c-0.2,0-1.5-1.3-4-4v-0.2L583,330.6z M585,330.2
		l4.2,4.4v0.2h-0.8c-0.2,0-1.6-1.4-4.2-4.2v-0.2C584.3,330.4,584.5,330.3,585,330.2z M585.2,294.2h0.6c0.2,0,1.5,1.4,4.1,4.2
		l-0.4,0.2H589c-0.2,0-1.6-1.4-4.2-4.2L585.2,294.2z M586.4,329.4h0.2c0.2,0,1.6,1.5,4.4,4.4l-0.6,0.4h-0.2c-0.2,0-1.6-1.5-4.3-4.4
		L586.4,329.4z M587.6,294.2h0.6c0.2,0,1.5,1.4,4.1,4.2v0.2h-1c-0.2,0-1.6-1.4-4.2-4.2L587.6,294.2z M587.8,328.4h0.2
		c0.2,0,1.6,1.4,4.2,4.2v0.2c0,0.3-0.1,0.4-0.4,0.4l-4.6-4.4L587.8,328.4z M589,327c0.2,0,1.6,1.5,4.4,4.4c0,0.2-0.2,0.4-0.6,0.6
		l-4.1-4.4v-0.2C588.6,327.2,588.7,327,589,327z M590,325.2l4.2,4.4c-0.2,0.5-0.4,0.8-0.6,0.8l-4.2-4.4v-0.2
		C589.4,325.6,589.6,325.4,590,325.2z M590.6,294.1l3.8,4v0.2c0,0.3-0.1,0.4-0.4,0.4c-0.2,0-1.6-1.4-4.2-4.2v-0.2L590.6,294.1z
		 M590,284.1c2.4,2,3.6,3.5,3.6,4.4c-0.2,0-1.4-1.2-3.6-3.6V284.1z M590,306.9h0.2c0.2,0,1,0.8,2.4,2.4v0.2
		C592.3,309.6,591.5,308.7,590,306.9z M590.3,323.2l4,4.2v0.8h-0.2c-0.2,0-1.6-1.4-4.2-4.1v-0.4C590,323.4,590.1,323.2,590.3,323.2z
		 M590.1,286.7h0.2c0.2,0,1.5,1.3,4,4v0.8h-0.2c-0.2,0-1.5-1.3-4-3.9V286.7z M590.1,289.1h0.2c0.2,0,1.5,1.3,4,4v0.6
		c0,0.3-0.1,0.4-0.4,0.4c-2.5-2.6-3.8-4-3.8-4.2V289.1z M590.1,291.5h0.2c0.2,0,1.5,1.3,4,4v1h-0.2c-0.2,0-1.5-1.3-4-3.9V291.5z
		 M590.1,308.7h0.2c2.7,2.3,4,3.8,4,4.6v0.2h-0.2c-0.2,0-1.5-1.3-4-3.9V308.7z M590.1,311.1h0.2c0.2,0,1.5,1.3,4,4v1h-0.2
		c-0.2,0-1.5-1.3-4-3.9V311.1z M590.1,313.5h0.2c0.2,0,1.5,1.3,4,4v1h-0.2c-0.2,0-1.5-1.3-4-3.9V313.5z M590.1,316.1h0.2
		c0.2,0,1.5,1.3,4,4v0.8h-0.2c-0.2,0-1.5-1.3-4-3.9V316.1z M590.1,318.5h0.2c0.2,0,1.5,1.3,4,4v1h-0.2c-0.2,0-1.5-1.3-4-3.9V318.5z
		 M590.1,321h0.2c0.2,0,1.5,1.3,4,4v0.8h-0.2c-0.2,0-1.5-1.3-4-3.9V321z"/>
	<path d="M619.8,279h19.3c0.3,0.1,0.4,0.2,0.4,0.4v5.8c0,0.3-0.1,0.4-0.4,0.4h-12.9v14.7h9.5c0.3,0,0.4,0.2,0.4,0.4v5.7
		c0,0.3-0.1,0.4-0.4,0.4h-9.5v22.7c0,0.3-0.1,0.4-0.4,0.4h-6c-0.3,0-0.4-0.1-0.4-0.4v-50C619.5,279.1,619.6,279,619.8,279z
		 M620.6,330.8h0.4c0.2,0,1.5,1.3,3.9,4v0.2h-0.4c-0.2,0-1.5-1.3-4-4V330.8z M622.8,330.8h0.6c0.2,0,1.5,1.3,3.9,4v0.2h-1
		c-0.2,0-1.5-1.3-4-4L622.8,330.8z M625,330.8h0.8c0.2,0,1.5,1.3,3.9,4v0.2h-0.8c-0.2,0-1.5-1.3-4-4V330.8z M627.3,287.9
		c0,0.2,1.3,1.6,4,4.1v1h-0.2c-2.8-2.4-4.2-4.1-4.2-5L627.3,287.9z M627.3,290.5l4,4.1v0.8h-0.2c-0.2,0-1.6-1.4-4.2-4.2v-0.4
		C627,290.6,627.1,290.5,627.3,290.5z M627.3,292.9l4,4.1v1h-0.2c-2.8-2.4-4.2-4-4.2-4.8C627,293,627.1,292.9,627.3,292.9z
		 M627.3,295.3l3.6,3.8v0.2h-1c-2-1.6-3-2.8-3-3.6C627,295.4,627.1,295.3,627.3,295.3z M627.3,297.8l1,1.2v0.2h-0.8
		c-0.4-0.1-0.6-0.5-0.6-1.2L627.3,297.8z M627.3,307.8c0.2,0,1.5,1.3,4,3.9v1h-0.2c-2.8-2.4-4.2-4-4.2-4.8L627.3,307.8z M627.3,310
		l4,4.1v1h-0.2c-0.2,0-1.6-1.4-4.2-4.2v-0.6C627,310.1,627.1,310,627.3,310z M627.3,312.5l4,4.1v0.8h-0.2c-2.8-2.4-4.2-4-4.2-4.8
		L627.3,312.5z M627.3,314.9l4,4.1v1h-0.2c-2.8-2.4-4.2-4-4.2-4.8C627,315,627.1,314.9,627.3,314.9z M626.9,317.5h0.2
		c0.2,0,1.6,1.4,4.2,4.2v0.8h-0.2c-0.2,0-1.6-1.4-4.2-4.2V317.5z M627.3,319.9l4,4.2v0.8h-0.2c-0.2,0-1.6-1.4-4.2-4.2l0.2-0.4
		c-0.1,0-0.2-0.1-0.2-0.2L627.3,319.9z M627.3,322.3l4,4.1v1h-0.2c-2.8-2.4-4.2-4-4.2-4.8C627,322.4,627.1,322.3,627.3,322.3z
		 M627.3,324.8l4,4.2v0.8h-0.2c-0.2,0-1.6-1.4-4.2-4.2v-0.4C627,325,627.1,324.8,627.3,324.8z M627.3,327.4c0.2,0,1.5,1.3,4,4v0.8
		h-0.2c-0.2,0-1.6-1.4-4.2-4.2v-0.2C627,327.5,627.1,327.4,627.3,327.4z M627.3,329.6l4,4.2v1h-0.2c-0.2,0-1.6-1.4-4.2-4.2V330
		C627,329.7,627.1,329.6,627.3,329.6z M627.3,286.5h0.8c0.2,0,1.5,1.3,3.9,4v0.2h-0.8C628.7,288.5,627.3,287.1,627.3,286.5z
		 M628.9,307.8h0.8c0.2,0,1.5,1.3,4,3.9v0.2h-0.8c-0.2,0-1.5-1.3-4-4V307.8z M629.7,286.5h0.8c0.2,0,1.5,1.3,3.9,4v0.2h-0.8
		c-0.2,0-1.5-1.3-4-4V286.5z M631.3,307.8h1c0.2,0,1.5,1.3,4,3.9v0.2h-1c-0.2,0-1.5-1.3-4-4V307.8z M632.1,286.5h1
		c2.6,2.5,3.9,3.8,3.9,4v0.2h-1c-0.2,0-1.5-1.3-4-4V286.5z M633.7,307.8h1c0.2,0,1.5,1.3,4,3.9v0.2h-1c-0.2,0-1.5-1.3-4-4V307.8z
		 M634.5,286.5h1c0.2,0,1.5,1.3,3.9,4v0.2h-1c-0.2,0-1.5-1.3-4-4V286.5z M636.3,307.8h0.8c0.2,0,1.5,1.3,4,3.9v0.2h-0.8
		c-0.2,0-1.5-1.3-4-4V307.8z M637.3,302.8l4,4.1v1H641c-2.8-2.4-4.2-4-4.2-4.8C636.9,302.9,637,302.8,637.3,302.8z M637.3,305.2
		l4,4.1v1H641c-0.2,0-1.6-1.4-4.2-4.2v-0.6C636.9,305.3,637,305.2,637.3,305.2z M637.1,286.5h0.8c0.2,0,1.5,1.3,3.9,4v0.2H641
		c-0.2,0-1.5-1.3-4-4V286.5z M637.1,301.4h0.2c0.2,0,1.4,1.3,3.8,3.8v0.2C640.9,305.4,639.5,304.1,637.1,301.4z M639.4,286.5h1
		c0.2,0,1.5,1.3,3.9,4v0.2h-1c-0.2,0-1.5-1.3-4-4V286.5z M640.5,280.1h0.2c0.2,0,1.5,1.3,3.9,4v0.2h-0.2c-0.2,0-1.5-1.3-3.9-3.9
		V280.1z M640.5,281.9h0.2c0.2,0,1.5,1.3,3.9,4v0.8h-0.2c-0.2,0-1.5-1.3-3.9-3.9V281.9z M640.5,284.3h0.2c0.2,0,1.5,1.3,3.9,4v0.8
		h-0.2c-0.2,0-1.5-1.3-3.9-3.9V284.3z"/>
	<path d="M645.8,279h6c0.3,0.1,0.4,0.2,0.4,0.4v50c0,0.3-0.1,0.4-0.4,0.4h-6c-0.3,0-0.4-0.1-0.4-0.4v-50
		C645.5,279.1,645.6,279,645.8,279z M646.6,330.8h1c0.2,0,1.5,1.3,4,4v0.2h-1c-0.2,0-1.5-1.3-4-4V330.8z M649.4,330.8h0.6
		c0.2,0,1.5,1.3,4,4v0.2h-1c-0.2,0-1.5-1.3-4-4L649.4,330.8z M651.6,330.8h0.8c0.2,0,1.5,1.3,3.9,4v0.2h-0.8c-0.2,0-1.5-1.3-3.9-4
		V330.8z M653.2,280.1h0.2c0.2,0,1.5,1.3,4,4v1h-0.2c-0.2,0-1.5-1.3-4-4V280.1z M653.2,282.8h0.2c0.2,0,1.5,1.3,4,3.9v0.8h-0.2
		c-0.2,0-1.5-1.3-4-4V282.8z M653.2,285.1h0.2c0.2,0,1.5,1.3,4,3.9v1h-0.2c-2.7-2.5-4-4-4-4.6V285.1z M653.2,287.5h0.2
		c0.2,0,1.5,1.3,4,3.9v1h-0.2c-0.2,0-1.5-1.3-4-4V287.5z M653.2,290.1h0.2c0.2,0,1.5,1.3,4,3.9v0.8h-0.2c-0.2,0-1.5-1.3-4-4V290.1z
		 M653.2,292.5h0.2c0.2,0,1.5,1.3,4,3.9v1h-0.2c-0.2,0-1.5-1.3-4-4V292.5z M653.2,294.9h0.2c0.2,0,1.5,1.3,4,3.9v1h-0.2
		c-0.2,0-1.5-1.3-4-4V294.9z M653.2,297.5h0.2c0.2,0,1.5,1.3,4,3.9v0.8h-0.2c-0.2,0-1.5-1.3-4-4V297.5z M653.2,299.8h0.2
		c0.2,0,1.5,1.3,4,3.9v1h-0.2c-0.2,0-1.5-1.3-4-4V299.8z M653.2,302.2h0.2c0.2,0,1.5,1.3,4,3.9v1h-0.2c-0.2,0-1.5-1.3-4-4V302.2z
		 M653.2,304.8h0.2c0.2,0,1.5,1.3,4,3.9v0.8h-0.2c-0.2,0-1.5-1.3-4-4V304.8z M653.2,307.2h0.2c0.2,0,1.5,1.3,4,3.9v1h-0.2
		c-0.2,0-1.5-1.3-4-4V307.2z M653.6,309.6l3.8,3.9v1h-0.2c-0.2,0-1.5-1.3-4-4V310C653.2,309.7,653.4,309.6,653.6,309.6z
		 M653.2,312.1h0.2c0.2,0,1.5,1.3,4,3.9v0.8h-0.2c-0.2,0-1.5-1.3-4-4V312.1z M653.2,314.5h0.2c0.2,0,1.5,1.3,4,3.9v1h-0.2
		c-0.2,0-1.5-1.3-4-4V314.5z M653.2,317.1h0.2c0.2,0,1.5,1.3,4,3.9v0.8h-0.2c-0.2,0-1.5-1.3-4-4V317.1z M653.2,319.5h0.2
		c0.2,0,1.5,1.3,4,3.9v0.8h-0.2c-0.2,0-1.5-1.3-4-4V319.5z M653.2,321.9h0.2c0.2,0,1.5,1.3,4,3.9v1h-0.2c-0.2,0-1.5-1.3-4-4V321.9z
		 M653.2,324.4h0.2c0.2,0,1.5,1.3,4,3.9v0.8h-0.2c-0.2,0-1.5-1.3-4-4V324.4z M653.2,326.8h0.2c0.2,0,1.5,1.3,4,3.9v0.8h-0.2
		c-0.2,0-1.5-1.3-4-4V326.8z M653.2,329.2h0.2c0.2,0,1.5,1.3,4,3.9v1h-0.2c-0.2,0-1.5-1.3-4-4V329.2z"/>
	<path d="M681.2,323.3h0.1v6.1c0,0.3-0.1,0.4-0.4,0.4h-19.6c-0.3,0-0.4-0.1-0.4-0.4v-50c0.1-0.3,0.2-0.4,0.4-0.4h5.9
		c0.3,0.1,0.4,0.2,0.4,0.4v43.6h13.5V323.3z M662.4,330.6h0.6c0.2,0,1.5,1.4,4.1,4.1l-0.4,0.2h-0.6c-0.2,0-1.5-1.4-4.1-4.1
		L662.4,330.6z M664.8,330.6h0.6c0.2,0,1.6,1.4,4.1,4.1v0.2h-1c-0.2,0-1.6-1.4-4.1-4.1L664.8,330.6z M666.9,330.6h0.8
		c0.2,0,1.6,1.4,4.1,4.1v0.2h-0.8c-0.2,0-1.6-1.4-4.1-4.1V330.6z M668.9,280.2l3.9,4.2v1h-0.2c-0.2,0-1.5-1.4-4.1-4.1v-0.6
		C668.6,280.4,668.7,280.2,668.9,280.2z M668.5,282.8h0.2c0.2,0,1.6,1.4,4.1,4.1v0.8h-0.2c-0.2,0-1.5-1.4-4.1-4.1V282.8z
		 M668.9,285.2l3.9,4.1v0.6c0,0.3-0.1,0.4-0.4,0.4l-3.9-4.1v-0.6C668.6,285.3,668.7,285.2,668.9,285.2z M668.9,287.5
		c0,0.2,1.3,1.6,3.9,4.2v1h-0.2c-0.2,0-1.5-1.4-4.1-4.1V288C668.6,287.7,668.7,287.5,668.9,287.5z M668.5,290.1h0.2
		c0.2,0,1.6,1.4,4.1,4.1v0.8h-0.2c-0.2,0-1.5-1.4-4.1-4.2V290.1z M668.9,292.5l3.9,4.1v0.6c0,0.3-0.1,0.4-0.4,0.4l-3.9-4.1v-0.6
		C668.6,292.6,668.7,292.5,668.9,292.5z M668.5,295.1h0.2c0.2,0,1.6,1.4,4.1,4.1v0.8h-0.2c-0.2,0-1.5-1.4-4.1-4.1V295.1z
		 M668.5,297.4h0.2c0.2,0,1.6,1.4,4.1,4.1v0.8h-0.2c-0.2,0-1.5-1.4-4.1-4.2V297.4z M668.9,299.8l3.9,4.1v1h-0.2
		c-0.2,0-1.5-1.4-4.1-4.1v-0.6C668.6,299.9,668.7,299.8,668.9,299.8z M668.5,302.4h0.2c0.2,0,1.6,1.4,4.1,4.1v0.8h-0.2
		c-0.2,0-1.5-1.4-4.1-4.1V302.4z M668.5,304.7h0.2c0.2,0,1.6,1.4,4.1,4.2v0.6c0,0.3-0.1,0.4-0.4,0.4l-3.9-4.1V304.7z M668.9,307.1
		l3.9,4.1v1h-0.2c-0.2,0-1.5-1.4-4.1-4.1v-0.6C668.6,307.2,668.7,307.1,668.9,307.1z M668.5,309.7h0.2c0.2,0,1.6,1.4,4.1,4.1v0.8
		h-0.2c-0.2,0-1.5-1.4-4.1-4.1V309.7z M668.5,312h0.2c0.2,0,1.6,1.4,4.1,4.2v0.6c0,0.3-0.1,0.4-0.4,0.4l-3.9-4.1V312z M668.9,314.4
		l3.9,4.1v1h-0.2c-0.2,0-1.5-1.4-4.1-4.2v-0.6C668.6,314.5,668.7,314.4,668.9,314.4z M668.5,317h0.2c0.2,0,1.6,1.4,4.1,4.1v0.8h-0.2
		c-0.2,0-1.5-1.4-4.1-4.1V317z M668.5,319.4h0.2c0.2,0,1.1,0.9,2.8,2.7v0.2h-1c-0.2,0-0.8-0.7-2-2V319.4z M668.9,321.7l0.2,0.4v0.2
		h-0.2c-0.3,0-0.4-0.1-0.4-0.4L668.9,321.7z M669.3,330.6h0.4c0.8,0,2.3,1.4,4.8,4.1l-0.4,0.2h-0.6c-0.2,0-1.6-1.4-4.2-4.1V330.6z
		 M672.1,330.6h0.6c0.2,0,1.6,1.4,4.2,4.1v0.2h-1c-0.2,0-1.6-1.4-4.1-4.1L672.1,330.6z M674.2,330.6h0.8c0.2,0,1.6,1.4,4.1,4.1v0.2
		h-0.8c-0.2,0-1.6-1.4-4.1-4.1V330.6z M677,330.6h0.6c0.2,0,1.6,1.4,4.1,4.1l-0.4,0.2h-0.6c-0.2,0-1.6-1.4-4.2-4.1L677,330.6z
		 M679.4,330.6h0.6c0.2,0,1.6,1.4,4.2,4.1v0.2h-1c-0.2,0-1.5-1.4-4.1-4.1L679.4,330.6z M681.6,330.6h0.8c0.2,0,1.6,1.4,4.1,4.1
		l-0.4,0.2h-0.4c-0.2,0-1.6-1.4-4.1-4.1V330.6z M682.1,325.7h0.2c0.2,0,1.6,1.4,4.1,4.2v0.6c0,0.3-0.1,0.4-0.4,0.4l-3.9-4.1V325.7z
		 M682.5,328l3.9,4.1v0.6c0,0.3-0.1,0.4-0.4,0.4l-3.9-4.1v-0.6C682.2,328.2,682.3,328,682.5,328z"/>
	<path d="M687.6,279.1h6.7c0.4,0,2,4,4.5,12c0.3,0.3,1.8,4.5,4.6,12.5h0.2c5.7-16.3,8.6-24.5,8.9-24.5h6.9c0.3,0.1,0.4,0.2,0.4,0.4
		v50c0,0.3-0.1,0.4-0.4,0.4h-5.9c-0.3,0-0.4-0.1-0.4-0.4v-32.2h-0.2c-5.7,16.4-8.8,25.1-9.5,26.1h-0.2l-9.1-26.1h-0.2v32.2
		c0,0.3-0.1,0.4-0.4,0.4h-5.9c-0.3,0-0.4-0.1-0.4-0.4v-50C687.2,279.2,687.4,279.1,687.6,279.1z M688.3,330.6h0.2
		c0.2,0,1.6,1.4,4.2,4.1v0.2h-0.2c-0.2,0-1.6-1.4-4.2-4.1V330.6z M690.1,330.6h0.8c0.2,0,1.6,1.4,4.1,4.1v0.2h-0.8
		c-0.2,0-1.6-1.4-4.1-4.1V330.6z M692.5,330.6h0.4c0.8,0,2.3,1.4,4.7,4.1l-0.4,0.2h-0.6c-0.2,0-1.6-1.4-4.1-4.1V330.6z M695.1,317.4
		l3.9,4.1v1h-0.2c-2.8-2.4-4.1-4-4.1-4.9L695.1,317.4z M694.9,303c0.4,0.1,0.6,0.6,0.6,1.6c-0.2,0-0.4-0.2-0.6-0.6V303z
		 M694.9,305.5h0.2c1.2,0.8,1.8,1.7,1.8,2.7c-0.2,0-0.8-0.7-2-2V305.5z M694.9,307.9h0.2c2.1,1.7,3.2,3.1,3.2,4.1H698
		c-0.2,0-1.2-1-3.2-3.1V307.9z M694.9,310.3h0.2c0.2,0,1.5,1.3,3.9,3.9v1h-0.2c-0.2,0-1.5-1.3-3.9-3.9V310.3z M694.9,312.8h0.2
		c0.2,0,1.5,1.3,3.9,3.9v0.8h-0.2c-0.2,0-1.5-1.3-3.9-3.9V312.8z M694.9,315.2h0.2c0.2,0,1.5,1.3,3.9,3.9v0.6c0,0.3-0.1,0.4-0.4,0.4
		l-3.8-3.9V315.2z M694.9,320.1h0.2c0.2,0,1.5,1.3,3.9,3.9v0.8h-0.2c-0.2,0-1.5-1.3-3.9-3.9V320.1z M694.9,322.5h0.2
		c0.2,0,1.5,1.3,3.9,4v1h-0.2c-0.2,0-1.5-1.3-3.9-3.9V322.5z M694.9,324.9h0.2c0.2,0,1.5,1.3,3.9,3.9v1h-0.2c-0.2,0-1.5-1.3-3.9-4
		V324.9z M694.9,327.5h0.2c0.2,0,1.5,1.3,3.9,3.9v0.8h-0.2c-0.2,0-1.5-1.3-3.9-3.9V327.5z M694.9,329.8h0.2c0.2,0,1.5,1.3,3.9,3.9v1
		h-0.2c-0.2,0-1.5-1.3-3.9-3.9V329.8z M697.3,283.2c2.5,2,3.8,3.7,3.8,5C698.5,286.1,697.3,284.5,697.3,283.2z M698.6,287.1
		c2.5,2.1,3.8,3.6,3.8,4.6v0.2C699.9,289.8,698.6,288.3,698.6,287.1z M700,290.9c2.5,2.2,3.8,3.7,3.8,4.6h-0.2
		C701.2,293.5,700,292,700,290.9z M701.2,294.6h0.2c0.2,0,1.2,1.1,3.2,3.2v0.2c0,0.2-0.2,0.4-0.6,0.6
		C702.1,296.9,701.2,295.5,701.2,294.6z M702.6,298.4h0.4c0,0.2,0.3,0.5,1,1.2v0.2c0,0.2-0.2,0.4-0.6,0.6
		C702.8,299.5,702.6,298.9,702.6,298.4z M705,322.7c0.2,0,1.6,1.4,4.1,4.2v0.4c0,0.3-0.1,0.4-0.4,0.4l-4.1-4.3v-0.2
		C704.6,322.8,704.7,322.7,705,322.7z M705.7,320.7l4.2,4.3v0.2c0,0.2-0.2,0.4-0.6,0.6l-4.1-4.3C705.4,321,705.6,320.7,705.7,320.7z
		 M705.9,319.1h0.4c0.2,0,1.6,1.4,4.2,4.2v0.4c0,0.3-0.1,0.4-0.4,0.4c-0.2,0-1.6-1.4-4.2-4.1V319.1z M706.6,317.4h0.4
		c0.2,0,1.5,1.4,4.1,4.1v0.6h-0.4c-0.2,0-1.6-1.4-4.1-4.1V317.4z M707.7,315.4l4.1,4.4c-0.2,0.5-0.4,0.8-0.6,0.8l-4.1-4.3V316
		C707.1,315.8,707.3,315.6,707.7,315.4z M708.3,313.6l3.8,3.9v1h-0.2c-0.2,0-1.6-1.4-4.1-4.1v-0.2
		C707.7,314,707.9,313.8,708.3,313.6z M708.9,311.8l3.2,3.4v0.8h-0.2c-0.2,0-1.3-1.1-3.4-3.4v-0.4
		C708.6,312,708.7,311.8,708.9,311.8z M709.5,310.1c0.2,0,1.1,0.9,2.6,2.6v1h-0.2c-0.2,0-1.1-0.9-2.8-2.8v-0.4
		C709.1,310.2,709.3,310.1,709.5,310.1z M709.9,308.3h0.2c0.2,0,0.8,0.7,2,2v0.8h-0.2c-0.2,0-0.9-0.7-2.2-2.1
		C709.8,308.6,709.9,308.4,709.9,308.3z M710.9,306.3l1.2,1.6v0.8h-0.2c-0.2,0-0.7-0.5-1.6-1.6C710.5,306.6,710.7,306.3,710.9,306.3
		z M711.1,304.7h0.4c0.2,0,0.4,0.2,0.6,0.6v1h-0.2c-0.2,0-0.5-0.3-0.8-0.8V304.7z M711.7,303.2h0.4v0.6h-0.4V303.2z M714.8,330.6
		h0.6l4.1,4.1l-0.4,0.2h-0.6c-0.2,0-1.6-1.4-4.1-4.1L714.8,330.6z M717.2,330.6h0.6c0.2,0,1.6,1.4,4.1,4.1l-0.4,0.2H721
		c-0.1,0-1.5-1.4-4.2-4.1L717.2,330.6z M719.4,330.6h0.8c0.2,0,1.6,1.4,4.2,4.1v0.2h-0.8c-0.2,0-1.5-1.4-4.1-4.1V330.6z M721,280.2
		l3.9,4.2v0.6h-0.2c-0.2,0-1.6-1.4-4.1-4.1v-0.2C720.6,280.4,720.7,280.2,721,280.2z M720.6,282.4h0.2c0.2,0,1.5,1.4,4.1,4.1v0.8
		h-0.2c-0.2,0-1.6-1.4-4.1-4.1V282.4z M721,284.8l3.9,4.1v0.6c0,0.3-0.1,0.4-0.4,0.4c-2.6-2.6-3.9-4.1-3.9-4.7
		C720.6,284.9,720.7,284.8,721,284.8z M721,287.1l3.9,4.2v1h-0.2c-0.2,0-1.6-1.4-4.1-4.1v-0.6C720.6,287.3,720.7,287.1,721,287.1z
		 M720.6,289.7h0.2c0.2,0,1.5,1.4,4.1,4.1v0.8h-0.2c-0.2,0-1.6-1.4-4.1-4.1V289.7z M721,292.1l3.9,4.1v0.6c0,0.3-0.1,0.4-0.4,0.4
		c-2.6-2.6-3.9-4.1-3.9-4.7C720.6,292.2,720.7,292.1,721,292.1z M721,294.4l3.9,4.2v1h-0.2c-0.2,0-1.6-1.4-4.1-4.1v-0.6
		C720.6,294.6,720.7,294.4,721,294.4z M720.6,297h0.2c0.2,0,1.5,1.4,4.1,4.1v0.8h-0.2c-0.2,0-1.6-1.4-4.1-4.2V297z M721,299.4
		l3.9,4.1v1h-0.2c-0.2,0-1.6-1.4-4.1-4.1v-0.6C720.6,299.5,720.7,299.4,721,299.4z M721,301.8l3.9,4.1v1h-0.2
		c-0.2,0-1.6-1.4-4.1-4.1v-0.6C720.6,301.9,720.7,301.8,721,301.8z M720.6,304.3h0.2c0.2,0,1.5,1.4,4.1,4.1v0.8h-0.2
		c-0.2,0-1.6-1.4-4.1-4.2V304.3z M721,306.7l3.9,4.1v1h-0.2c-0.2,0-1.6-1.4-4.1-4.1v-0.6C720.6,306.8,720.7,306.7,721,306.7z
		 M720.6,309.3h0.2c0.2,0,1.5,1.4,4.1,4.1v0.8h-0.2c-0.2,0-1.6-1.4-4.1-4.1V309.3z M720.6,311.6h0.2c0.2,0,1.5,1.4,4.1,4.2v0.8h-0.2
		c-0.2,0-1.6-1.4-4.1-4.1V311.6z M721,314l3.9,4.1v1h-0.2c-0.2,0-1.6-1.4-4.1-4.1v-0.6C720.6,314.1,720.7,314,721,314z M721,316.4
		l3.9,4.3v0.8h-0.2c-0.2,0-1.6-1.4-4.1-4.1v-0.6C720.6,316.5,720.7,316.4,721,316.4z M721,318.9l3.9,4.2v0.8h-0.2
		c-0.2,0-1.6-1.4-4.1-4.1v-0.4C720.6,319.1,720.7,318.9,721,318.9z M721,321.3l3.9,4.1v0.6c0,0.3-0.1,0.4-0.4,0.4l-3.9-4.2v-0.6
		C720.6,321.4,720.7,321.3,721,321.3z M720.6,323.9h0.2c0.2,0,1.5,1.4,4.1,4.1v0.8h-0.2c-0.2,0-1.6-1.4-4.1-4.1V323.9z M721,326.3
		l3.9,4.1v0.6c0,0.3-0.1,0.4-0.4,0.4c-2.6-2.7-3.9-4.2-3.9-4.5v-0.2C720.6,326.4,720.7,326.3,721,326.3z M721,328.6
		c2.6,2.7,3.9,4.2,3.9,4.3v0.8h-0.2c-0.2,0-1.6-1.4-4.1-4.2V329C720.6,328.8,720.7,328.6,721,328.6z"/>
	<path d="M743.3,279c3,0,5.2,1.7,6.6,5c0.3,0.5,0.4,1.3,0.4,2.2v7c0,0.3-0.1,0.4-0.4,0.4h-6c-0.3,0-0.4-0.1-0.4-0.4v-5.4
		c-0.2-1.5-0.9-2.2-2.2-2.2h-3.9c-1.5,0.2-2.2,0.9-2.2,2.2v7.1c0,1,2.1,2.6,6.3,4.7c5.7,3.2,8.6,5.6,8.6,7.3l0.2,1.2v15.1
		c0,2.8-1.8,4.9-5.4,6.4c-0.5,0.1-1.1,0.2-1.6,0.2h-7.9c-3.3,0-5.6-2-7-6v-11.9c0.1-0.3,0.2-0.4,0.4-0.4h6c0.3,0.1,0.4,0.2,0.4,0.4
		v9.1c0.2,1.5,0.9,2.2,2.2,2.2h3.8c1.6-0.1,2.4-0.9,2.4-2.2v-11.3c0-1-2-2.5-5.9-4.4c-5.7-3.3-8.6-5.6-8.8-7
		c-0.3-0.9-0.4-1.7-0.4-2.4v-9.9c0-3.4,2-5.8,5.9-7.1H743.3z M733.6,330.6h0.6c0.2,0,1.3,1.1,3.4,3.4v0.2
		C737.1,334.2,735.8,333,733.6,330.6z M734.4,304.6h0.4c0.3,0,1.2,0.8,2.6,2.3H737C736.7,306.9,735.8,306.2,734.4,304.6z
		 M735.8,330.8h1c0.2,0,1.5,1.3,4,4v0.2h-1c-0.2,0-1.5-1.3-4-4V330.8z M736.2,288.7h0.2c0.2,0,1.5,1.3,4,4v1h-0.2
		c-0.2,0-1.5-1.3-4-4V288.7z M736.2,291.1h0.2c0.2,0,1.5,1.3,4,4v1h-0.2c-0.2,0-1.5-1.3-4-4V291.1z M736.2,293.7h0.2
		c0.2,0,1.5,1.3,4,4c-0.1,0-0.2,0.1-0.2,0.2c-1-0.3-2.3-1.5-4-3.4V293.7z M736.2,313.3h0.2c0.2,0,1.5,1.3,4,4v0.8h-0.2
		c-0.2,0-1.5-1.3-4-4V313.3z M736.2,315.7h0.2c0.2,0,1.5,1.3,4,4v0.8h-0.2c-0.2,0-1.5-1.3-4-4V315.7z M736.2,318.1h0.2
		c0.2,0,1.5,1.3,4,4c0,0.3-0.2,0.4-0.6,0.4c-0.4,0-1.6-1.1-3.6-3.4V318.1z M736.2,320.7h0.2c0.2,0,0.7,0.5,1.4,1.4v0.2H737
		c-0.2,0-0.5-0.3-0.8-0.8V320.7z M736.8,286.7c0.2,0,1.6,1.5,4.4,4.4c0,0.3-0.1,0.4-0.4,0.4h-0.2c-0.2,0-1.6-1.4-4.2-4.2v-0.2
		C736.4,286.8,736.6,286.7,736.8,286.7z M738.2,286.5h1c0.2,0,1.3,1.1,3.4,3.4v0.8h-0.4c-0.2,0-1.5-1.3-4-4V286.5z M738.4,330.8h0.8
		c0.2,0,1.5,1.3,4,4v0.2h-0.8c-0.2,0-1.5-1.3-4-4V330.8z M739.4,307.6h0.4c1.6,0.9,2.5,1.5,2.8,2v0.2l-0.2,0.4
		C741.6,309.9,740.6,309,739.4,307.6z M740.6,286.5h1c0.2,0,0.5,0.3,1,1v1h-0.2c-0.2,0-0.8-0.6-1.8-1.8V286.5z M740.8,330.8h1
		c0.2,0,1.5,1.3,4,4v0.2h-1c-0.2,0-1.5-1.3-4-4V330.8z M744.1,330.6l4,4.2v0.2h-1c-0.2,0-1.5-1.3-4-4v-0.2L744.1,330.6z
		 M746.1,330.2l4.2,4.4v0.2h-0.8c-0.2,0-1.6-1.4-4.2-4.2v-0.2C745.4,330.4,745.7,330.3,746.1,330.2z M746.3,294.2h0.6
		c0.2,0,1.5,1.4,4.1,4.2l-0.4,0.2h-0.6c-0.2,0-1.6-1.4-4.2-4.2L746.3,294.2z M747.5,329.4h0.2c0.2,0,1.6,1.5,4.4,4.4l-0.6,0.4h-0.2
		c-0.2,0-1.6-1.5-4.3-4.4L747.5,329.4z M748.7,294.2h0.6c0.2,0,1.5,1.4,4.1,4.2v0.2h-1c-0.2,0-1.6-1.4-4.2-4.2L748.7,294.2z
		 M748.9,328.4h0.2c0.2,0,1.6,1.4,4.2,4.2v0.2c0,0.3-0.1,0.4-0.4,0.4l-4.6-4.4L748.9,328.4z M750.1,327c0.2,0,1.6,1.5,4.4,4.4
		c0,0.2-0.2,0.4-0.6,0.6l-4.1-4.4v-0.2C749.7,327.2,749.9,327,750.1,327z M751.1,325.2l4.2,4.4c-0.2,0.5-0.4,0.8-0.6,0.8l-4.2-4.4
		v-0.2C750.5,325.6,750.7,325.4,751.1,325.2z M751.7,294.1l3.8,4v0.2c0,0.3-0.1,0.4-0.4,0.4c-0.2,0-1.6-1.4-4.2-4.2v-0.2
		L751.7,294.1z M751.1,284.1c2.4,2,3.6,3.5,3.6,4.4c-0.2,0-1.4-1.2-3.6-3.6V284.1z M751.1,306.9h0.2c0.2,0,1,0.8,2.4,2.4v0.2
		C753.5,309.6,752.6,308.7,751.1,306.9z M751.5,323.2l4,4.2v0.8h-0.2c-0.2,0-1.6-1.4-4.2-4.1v-0.4
		C751.1,323.4,751.3,323.2,751.5,323.2z M751.3,286.7h0.2c0.2,0,1.5,1.3,4,4v0.8h-0.2c-0.2,0-1.5-1.3-4-3.9V286.7z M751.3,289.1h0.2
		c0.2,0,1.5,1.3,4,4v0.6c0,0.3-0.1,0.4-0.4,0.4c-2.5-2.6-3.8-4-3.8-4.2V289.1z M751.3,291.5h0.2c0.2,0,1.5,1.3,4,4v1h-0.2
		c-0.2,0-1.5-1.3-4-3.9V291.5z M751.3,308.7h0.2c2.7,2.3,4,3.8,4,4.6v0.2h-0.2c-0.2,0-1.5-1.3-4-3.9V308.7z M751.3,311.1h0.2
		c0.2,0,1.5,1.3,4,4v1h-0.2c-0.2,0-1.5-1.3-4-3.9V311.1z M751.3,313.5h0.2c0.2,0,1.5,1.3,4,4v1h-0.2c-0.2,0-1.5-1.3-4-3.9V313.5z
		 M751.3,316.1h0.2c0.2,0,1.5,1.3,4,4v0.8h-0.2c-0.2,0-1.5-1.3-4-3.9V316.1z M751.3,318.5h0.2c0.2,0,1.5,1.3,4,4v1h-0.2
		c-0.2,0-1.5-1.3-4-3.9V318.5z M751.3,321h0.2c0.2,0,1.5,1.3,4,4v0.8h-0.2c-0.2,0-1.5-1.3-4-3.9V321z"/>
	<path d="M486.6,375.1h14.3c4,0,6.4,2.5,7.1,7.5v35.5c0,4-2,6.5-5.9,7.7h-15.5c-0.3,0-0.4-0.1-0.4-0.4v-50
		C486.2,375.2,486.4,375.1,486.6,375.1z M487.4,426.8h0.2c0.2,0,1.5,1.3,3.9,4v0.2h-0.2c-0.2,0-1.5-1.3-4-3.9V426.8z M489.2,426.8
		h0.8c0.2,0,1.5,1.3,4,4v0.2h-0.8c-0.2,0-1.5-1.3-4-3.9V426.8z M491.5,426.8h1c0.2,0,1.5,1.3,4,4v0.2h-1c-0.2,0-1.5-1.3-4-3.9V426.8
		z M492.9,381.6v37.7h6.1c0.9,0,1.5-0.5,2-1.4v-34.3c0-1.2-0.8-1.8-2.4-2H492.9z M494.1,384.2l3.9,4.2v0.6c0,0.3-0.1,0.4-0.4,0.4
		l-3.9-4.1v-0.6C493.7,384.3,493.9,384.2,494.1,384.2z M494.1,386.5l3.9,4.2v1h-0.2c-0.2,0-1.5-1.4-4.1-4.1v-0.6
		C493.7,386.7,493.9,386.5,494.1,386.5z M493.7,389.1h0.2c0.2,0,1.6,1.4,4.1,4.2v0.8h-0.2c-0.2,0-1.5-1.4-4.1-4.1V389.1z
		 M494.1,391.5l3.9,4.2v1h-0.2c-0.2,0-1.5-1.4-4.1-4.1v-0.6C493.7,391.6,493.9,391.5,494.1,391.5z M494.1,393.9
		c0,0.2,1.3,1.5,3.8,3.8l0.2,0.4v1h-0.2c-0.2,0-1.5-1.4-4.1-4.2v-0.6C493.7,394,493.9,393.9,494.1,393.9z M494.1,396.5l3.9,4.2v0.8
		h-0.2c-0.2,0-1.5-1.4-4.1-4.2v-0.4C493.7,396.6,493.9,396.5,494.1,396.5z M494.1,398.8l3.9,4.1v1h-0.2c-0.2,0-1.5-1.4-4.1-4.2v-0.6
		C493.7,399,493.9,398.8,494.1,398.8z M493.7,401.4h0.2c0.2,0,1.6,1.4,4.1,4.1v0.8h-0.2c-0.2,0-1.5-1.4-4.1-4.2V401.4z M494.1,403.8
		l3.9,4.1v0.8h-0.2c-0.2,0-1.5-1.4-4.1-4.2v-0.4C493.7,403.9,493.9,403.8,494.1,403.8z M494.1,406.2l3.9,4.1v1h-0.2
		c-0.2,0-1.5-1.4-4.1-4.2v-0.6C493.7,406.3,493.9,406.2,494.1,406.2z M493.7,408.8h0.2c0.2,0,1.6,1.4,4.1,4.1v0.8h-0.2
		c-0.2,0-1.5-1.4-4.1-4.2V408.8z M494.1,411.1l3.9,4.1v0.8h-0.2c-2.8-2.3-4.1-3.8-4.1-4.5C493.7,411.3,493.9,411.1,494.1,411.1z
		 M494.1,413.5l3.9,4.2v0.4c0,0.3-0.1,0.4-0.4,0.4c-0.2,0-1.5-1.3-3.9-3.9v-0.6C493.7,413.6,493.9,413.5,494.1,413.5z M493.7,416.1
		h0.2c0.2,0,0.9,0.7,2.2,2.2v0.2h-0.8c-0.2,0-0.7-0.5-1.6-1.6V416.1z M493.9,382.6h0.8c0.2,0,1.5,1.3,4,3.9v0.2h-0.8
		c-0.2,0-1.5-1.3-3.9-3.9V382.6z M493.9,426.8h1c0.2,0,1.5,1.3,4,4v0.2h-1c-0.2,0-1.5-1.3-3.9-3.9V426.8z M496.3,382.6h1
		c0.2,0,1.1,1,3,3v1H500c-0.2,0-1.4-1.3-3.8-3.8V382.6z M496.5,426.8h0.8c0.2,0,1.5,1.3,4,4v0.2h-0.8c-0.2,0-1.5-1.3-3.9-3.9V426.8z
		 M498.7,382.6h0.8c0.2,0,0.5,0.3,0.8,0.8v0.8H500c-0.2,0-0.6-0.5-1.4-1.4V382.6z M498.9,426.8h1c0.2,0,1.5,1.3,4,4v0.2h-1
		c-0.2,0-1.5-1.3-3.9-3.9V426.8z M502.2,426.6l4,4.2v0.2h-1c-0.2,0-1.5-1.3-3.9-3.9v-0.2L502.2,426.6z M503.4,426.2h0.6
		c0.2,0,1.5,1.4,4.1,4.2v0.4h-0.6c-0.2,0-1.6-1.4-4.2-4.2V426.2z M505.4,425.2h0.2c0.2,0,1.6,1.4,4.4,4.3c0,0.3-0.1,0.4-0.4,0.4
		h-0.4c-0.2,0-1.6-1.4-4.2-4.2v-0.2C505.1,425.3,505.2,425.2,505.4,425.2z M506.8,424c0.2,0,1.6,1.5,4.3,4.4v0.2
		c0,0.3-0.1,0.4-0.4,0.4c-0.3,0-1.8-1.4-4.5-4.3C506.2,424.4,506.4,424.2,506.8,424z M508,422.6l4.2,4.4v0.2c0,0.3-0.1,0.4-0.4,0.4
		c-0.2,0-1.6-1.5-4.4-4.4C507.4,423,507.6,422.8,508,422.6z M508.8,420.8l4.2,4.4v0.2c0,0.2-0.2,0.4-0.6,0.6l-4.2-4.4
		C508.4,421.1,508.6,420.8,508.8,420.8z M508.6,380.2h0.2c2,1.8,3,2.8,3,3.2v0.2c-0.2,0-1.3-1.1-3.2-3.2V380.2z M508.8,382.2h0.2
		c2.8,2.4,4.1,4,4.1,5h-0.2c-0.2,0-1.6-1.4-4.2-4.2V382.2z M508.8,384.6h0.2c0.2,0,1.5,1.4,4.1,4.1v0.6c0,0.3-0.1,0.4-0.4,0.4
		l-4-4.2V384.6z M509.2,386.9l3.9,4.2v0.6c0,0.3-0.1,0.4-0.4,0.4l-4-4.1v-0.6C508.8,387.1,509,386.9,509.2,386.9z M508.8,389.5h0.2
		c0.2,0,1.5,1.4,4.1,4.2v0.8h-0.2c-0.2,0-1.6-1.4-4.2-4.1V389.5z M508.8,391.9h0.2c0.2,0,1.5,1.4,4.1,4.2v0.6c0,0.3-0.1,0.4-0.4,0.4
		l-4-4.1V391.9z M509.2,394.3c2.6,2.6,3.9,4.1,3.9,4.8c0,0.3-0.1,0.4-0.4,0.4l-4-4.1v-0.6C508.8,394.4,509,394.3,509.2,394.3z
		 M508.8,396.8h0.2c0.2,0,1.5,1.4,4.1,4.2v0.8h-0.2c-0.2,0-1.6-1.4-4.2-4.2V396.8z M508.8,399.2h0.2c0.2,0,1.5,1.4,4.1,4.2v0.6
		c0,0.3-0.1,0.4-0.4,0.4l-4-4.2V399.2z M508.8,401.8h0.2c0.4,0,1.8,1.4,4.1,4.2v0.4c0,0.3-0.1,0.4-0.4,0.4l-4-4.2V401.8z
		 M508.8,404.2h0.2c0.2,0,1.5,1.4,4.1,4.2v0.8h-0.2c-0.2,0-1.6-1.4-4.2-4.2V404.2z M508.8,406.6h0.2c0.2,0,1.5,1.4,4.1,4.1v0.6
		c0,0.3-0.1,0.4-0.4,0.4l-4-4.2V406.6z M509.2,409c2.6,2.6,3.9,4.2,3.9,4.8v0.4h-0.2c-0.2,0-1.6-1.4-4.2-4.2v-0.6
		C508.8,409.1,509,409,509.2,409z M508.8,411.5h0.2c0.2,0,1.5,1.4,4.1,4.1v0.8h-0.2c-1.6-1.4-3-2.8-4.2-4.2V411.5z M509.2,413.9
		l3.9,4.1v0.6c0,0.3-0.1,0.4-0.4,0.4l-4-4.2v-0.6C508.8,414.1,509,413.9,509.2,413.9z M508.8,416.5h0.2c0.2,0,1.5,1.4,4.1,4.1v0.8
		h-0.2c-0.2,0-1.6-1.4-4.2-4.1V416.5z M508.8,418.8h0.2c0.2,0,1.5,1.4,4.1,4.2v0.6c0,0.3-0.1,0.4-0.4,0.4l-4-4.1V418.8z"/>
	<path d="M518.1,375.1h19.2c0.3,0.1,0.4,0.2,0.4,0.4v5.7c0,0.3-0.1,0.4-0.4,0.4h-12.9v14.7h9.5c0.3,0.1,0.4,0.2,0.4,0.4v5.7
		c0,0.3-0.1,0.4-0.4,0.4h-9.5v16.5h13.9c0.3,0,0.4,0.2,0.4,0.4v5.7c0,0.3-0.1,0.4-0.4,0.4h-20.2c-0.3,0-0.4-0.1-0.4-0.4v-50
		C517.8,375.2,517.9,375.1,518.1,375.1z M518.9,426.8h0.4c0.2,0,1.5,1.3,3.9,4v0.2h-0.4c-0.2,0-1.5-1.3-4-3.9V426.8z M520.9,426.8
		h0.8c0.2,0,1.5,1.3,4,4v0.2h-0.8c-0.2,0-1.5-1.3-4-3.9V426.8z M523.3,426.8h1l4,4v0.2h-1c-0.2,0-1.5-1.3-4-3.9V426.8z M525.7,384
		l3.9,4.2v0.6c0,0.3-0.1,0.4-0.4,0.4l-3.9-4.1v-0.6C525.3,384.1,525.4,384,525.7,384z M525.3,386.5h0.2c0.2,0,1.6,1.4,4.1,4.2v0.8
		h-0.2c-0.2,0-1.5-1.4-4.1-4.1V386.5z M525.3,388.9h0.2c0.2,0,1.6,1.4,4.1,4.2v0.6c0,0.3-0.1,0.4-0.4,0.4l-3.9-4.3V388.9z
		 M525.7,391.3l3.6,3.8v0.2h-1c-0.2,0-1.1-1-3-3v-0.6C525.3,391.4,525.4,391.3,525.7,391.3z M525.3,393.9h0.2c0.2,0,0.6,0.4,1.2,1.2
		v0.2h-0.8c-0.2,0-0.4-0.2-0.6-0.6V393.9z M525.7,403.8c0.2,0,1.5,1.3,3.9,3.9v0.6c0,0.3-0.1,0.4-0.4,0.4l-3.9-4.2v-0.4
		C525.3,403.9,525.4,403.8,525.7,403.8z M525.7,406l3.9,4.1v1h-0.2c-0.2,0-1.5-1.4-4.1-4.2v-0.6C525.3,406.1,525.4,406,525.7,406z
		 M525.3,408.6h0.2c0.2,0,1.6,1.4,4.1,4.1v0.8h-0.2c-0.2,0-1.5-1.4-4.1-4.1V408.6z M525.3,410.9h0.2c0.2,0,1.6,1.4,4.1,4.2v0.6
		c0,0.3-0.1,0.4-0.4,0.4l-3.9-4.1V410.9z M525.7,413.3l3.9,4.2v0.6c0,0.3-0.1,0.4-0.4,0.4l-3.9-4.1v-0.6
		C525.3,413.4,525.4,413.3,525.7,413.3z M525.3,415.9h0.2c0.2,0,1,0.8,2.4,2.4v0.2h-0.8c-0.2,0-0.8-0.6-1.8-1.8V415.9z M525.7,382.6
		h0.8c0.2,0,1.5,1.3,4,3.9v0.2h-0.8c-0.2,0-1.5-1.3-3.9-3.9V382.6z M525.7,426.8h1c0.2,0,1.5,1.3,4,4v0.2h-1c-0.2,0-1.5-1.3-3.9-3.9
		V426.8z M527.3,403.8h0.8c0.2,0,1.5,1.3,3.9,3.9v0.2h-0.8c-0.2,0-1.5-1.3-3.9-3.9V403.8z M528.1,382.6h0.8c0.2,0,1.5,1.3,4,3.9v0.2
		H532c-0.2,0-1.5-1.3-3.9-3.9V382.6z M528.3,426.8h0.8c0.2,0,1.5,1.3,4,4v0.2h-0.8c-0.2,0-1.5-1.3-3.9-3.9V426.8z M529.6,403.8h0.8
		c0.2,0,1.6,1.3,4.1,3.9v0.2h-1c-0.2,0-1.5-1.3-4-3.9V403.8z M530.4,382.6h1c0.2,0,1.5,1.3,4,3.9v0.2h-1c-0.2,0-1.5-1.3-3.9-3.9
		V382.6z M530.6,426.8h1c0.2,0,1.5,1.3,4,4v0.2h-1c-0.2,0-1.5-1.3-3.9-3.9V426.8z M532.2,403.8h0.8c0.2,0,1.5,1.3,3.9,3.9v0.2h-1
		c-2.4-2.1-3.6-3.5-3.8-3.9V403.8z M533,382.6h0.8c0.2,0,1.5,1.3,4,3.9v0.2H537c-0.2,0-1.5-1.3-3.9-3.9V382.6z M533,426.8h1
		c0.2,0,1.5,1.3,4,4v0.2h-1c-0.2,0-1.5-1.3-3.9-3.9V426.8z M534.6,403.8h0.8c0.2,0,1.5,1.3,3.9,3.9v0.2h-0.8c-0.2,0-1.5-1.3-4-3.9
		V403.8z M535.2,398.8h0.2c0.2,0,1.5,1.4,4.1,4.1v0.6c0,0.3-0.1,0.4-0.4,0.4c0-0.2-1.3-1.7-3.9-4.4V398.8z M535.6,401.2l3.9,4.1v0.6
		c0,0.3-0.1,0.4-0.4,0.4l-3.9-4.2v-0.6C535.2,401.4,535.4,401.2,535.6,401.2z M535.4,382.6h1c0.2,0,1.4,1.3,3.8,3.8h0.2v0.4h-1
		c-0.2,0-1.5-1.3-3.9-3.9V382.6z M535.6,426.8h0.8c0.2,0,1.5,1.3,3.9,4v0.2h-0.8c-0.2,0-1.5-1.3-3.9-3.9V426.8z M537.8,382.6h1
		c0.2,0,1.5,1.3,3.9,3.9v0.2h-1c-0.2,0-1.5-1.3-3.9-3.9V382.6z M538,426.8h1c0.2,0,1.5,1.3,3.9,4v0.2h-1c-0.2,0-1.5-1.3-3.9-3.9
		V426.8z M538.8,376.2h0.2c0.2,0,1.5,1.3,3.9,4v0.2h-0.2c-0.2,0-1.5-1.3-3.9-3.9V376.2z M538.8,377.8h0.2c0.2,0,1.5,1.3,3.9,4v1
		h-0.2c-0.2,0-1.5-1.3-3.9-4V377.8z M538.8,380.4h0.2c0.2,0,1.5,1.3,3.9,3.9v0.8h-0.2c-0.2,0-1.5-1.3-3.9-4V380.4z M539.5,420.4h0.2
		c0.2,0,1.5,1.3,4,4v0.8h-0.2c-0.2,0-1.5-1.3-4-4V420.4z M539.5,422.8h0.2c0.2,0,1.5,1.3,4,3.9v0.8h-0.2c-0.2,0-1.5-1.3-4-4V422.8z
		 M539.5,425.2h0.2c0.2,0,1.5,1.3,4,3.9v1h-0.2c-0.2,0-1.5-1.3-4-4V425.2z"/>
	<path d="M565.7,375h13c3.5,0,5.9,1.2,7.3,3.6c0.7,1.1,1,2.3,1,3.6v15c0,3.3-2,5.6-5.9,6.9H572v21.4c0,0.3-0.1,0.4-0.4,0.4h-5.9
		c-0.3,0-0.4-0.1-0.4-0.4v-50C565.4,375.1,565.5,375,565.7,375z M566.9,426.6l3.9,4.1l-0.4,0.2l-4-4.1L566.9,426.6z M568.5,426.6
		h0.6c0.2,0,1.6,1.4,4.2,4.1v0.2h-1c-0.2,0-1.6-1.4-4.1-4.1L568.5,426.6z M570.7,426.6h0.8c0.2,0,1.6,1.4,4.1,4.1v0.2h-0.8
		c-0.2,0-1.6-1.4-4.1-4.1V426.6z M572,381.7v15.8h6.1c1.5-0.2,2.2-0.9,2.2-2.1v-11.7c-0.3-1.3-0.9-2-2-2H572z M573,383.1h0.2
		c0.2,0,1.5,1.3,3.9,3.9v1H577c-0.2,0-1.5-1.3-4-3.9V383.1z M573,385.4h0.2c0.2,0,1.5,1.3,3.9,4v1H577c-0.2,0-1.5-1.3-4-3.9V385.4z
		 M573,388h0.2c0.2,0,1.5,1.3,3.9,3.9v0.8H577c-0.2,0-1.5-1.3-4-4V388z M573,390.4h0.2c0.2,0,1.5,1.3,3.9,3.9v1H577
		c-0.2,0-1.5-1.3-4-4V390.4z M573,392.8h0.2c0.2,0,1.3,1.2,3.6,3.6v0.2h-1c-0.2,0-1.1-0.9-2.8-2.8V392.8z M573,395.4h0.2
		c0.2,0,0.5,0.3,1,1v0.2h-0.8c-0.3,0-0.4-0.1-0.4-0.4V395.4z M573,406.4h0.2c0.2,0,1.5,1.3,3.9,3.9v0.8H577c-0.2,0-1.5-1.3-4-4
		V406.4z M573,408.8h0.2c0.2,0,1.5,1.3,3.9,3.9v0.8H577c-1.2-0.9-2.5-2.2-4-3.9V408.8z M573,411.2h0.2l3.9,3.9v1H577
		c-0.2,0-1.5-1.3-4-3.9V411.2z M573,413.7h0.2c0.2,0,1.5,1.3,3.9,4v0.8H577c-0.2,0-1.5-1.3-4-3.9V413.7z M573,416.1h0.2
		c0.2,0,1.5,1.3,3.9,4v1H577c-0.2,0-1.5-1.4-4-4.2V416.1z M573,418.5h0.2c2.6,2.5,3.9,3.8,3.9,3.9v1H577c-0.2,0-1.5-1.3-4-4V418.5z
		 M573,421.1h0.2c0.2,0,1.5,1.3,3.9,3.9v0.8H577c-0.2,0-1.5-1.3-4-3.9V421.1z M573,423.5h0.2c0.2,0,1.5,1.3,3.9,3.9v1H577
		c-0.2,0-1.5-1.3-4-3.9V423.5z M573,425.8h0.2c0.2,0,1.5,1.3,3.9,4v1H577c-0.2,0-1.5-1.3-4-3.9V425.8z M573.4,405.1h1
		c0.2,0,1.5,1.3,3.9,3.9v0.2h-1c-0.2,0-1.5-1.3-3.9-3.9V405.1z M574.2,382.5h0.8c0.2,0,1.6,1.4,4.1,4.2v0.2h-0.8
		c-0.2,0-1.6-1.4-4.1-4.2V382.5z M576,405.1h0.8c0.2,0,1.5,1.3,3.9,3.9v0.2H580c-0.2,0-1.5-1.3-4-3.9V405.1z M576.6,382.5h1
		c0.2,0,0.8,0.7,2,2v0.6c0,0.3-0.1,0.4-0.4,0.4l-2.5-2.8V382.5z M578.4,405.1h0.8c0.2,0,1.5,1.3,4,3.9v0.2h-0.8
		c-0.2,0-1.5-1.3-3.9-3.9V405.1z M580.9,404.9h0.6c0.2,0,1.6,1.4,4.2,4.1v0.2h-1c-2.7-2.6-4.1-4-4.1-4.1L580.9,404.9z M583.1,404.2
		h0.2c0.2,0,1.6,1.5,4.3,4.4l-0.4,0.2h-0.4c-0.2,0-1.6-1.4-4.1-4.1C582.8,404.4,582.9,404.2,583.1,404.2z M585.1,403.3
		c0,0.2,1.4,1.7,4.2,4.3c0,0.2-0.2,0.4-0.6,0.6c-0.2,0-1.6-1.5-4.4-4.4v-0.4C584.4,403.5,584.6,403.4,585.1,403.3z M586.3,402.1
		l4.1,4.3v0.2c0,0.3-0.1,0.4-0.4,0.4h-0.2l-4.1-4.1v-0.2C585.7,402.5,585.9,402.3,586.3,402.1z M587.3,400.7l4.1,4.4v0.2
		c0,0.3-0.1,0.4-0.4,0.4c-0.2,0-1.6-1.5-4.3-4.4C586.7,401.1,586.9,400.9,587.3,400.7z M588.1,398.9c0,0.1,1.4,1.5,4.2,4.3
		c-0.2,0.5-0.4,0.8-0.6,0.8l-4.1-4.3C587.7,399.2,587.9,398.9,588.1,398.9z M587.9,380.1c1.8,1.6,2.8,2.7,3.2,3.4v0.2
		c-0.2,0-1.2-1.1-3.2-3.2V380.1z M588.1,396.9h0.2c0.2,0,1.5,1.3,4,3.9v1H592c-2.8-2.6-4.2-4-4.2-4.2
		C588,397.5,588.1,397.2,588.1,396.9z M588.1,382.3h0.2c0.2,0,1.5,1.3,4,4v1H592c-2.5-2.3-3.9-3.7-4-4.1V382.3z M588.1,384.7h0.2
		c0.2,0,1.5,1.3,4,3.9v1H592c-0.2,0-1.5-1.3-4-4V384.7z M588.1,387.2h0.2c0.2,0,1.5,1.3,4,3.9v0.8H592c-0.2,0-1.5-1.3-4-3.9V387.2z
		 M588.1,389.6h0.2c0.2,0,1.5,1.3,4,3.9v1H592c-0.2,0-1.5-1.3-4-3.9V389.6z M588.1,392h0.2c0.2,0,1.5,1.3,4,4v1H592
		c-0.2,0-1.5-1.3-4-3.9V392z M588.1,394.5h0.2c0.2,0,1.5,1.3,4,4v0.8H592c-0.2,0-1.5-1.3-4-3.9V394.5z"/>
	<path d="M615.8,419.3h0.1v6.1c0,0.3-0.1,0.4-0.4,0.4H596c-0.3,0-0.4-0.1-0.4-0.4v-50c0.1-0.3,0.2-0.4,0.4-0.4h5.9
		c0.3,0.1,0.4,0.2,0.4,0.4v43.6h13.5V419.3z M597,426.6h0.6c0.2,0,1.5,1.4,4.1,4.1l-0.4,0.2h-0.6c-0.2,0-1.5-1.4-4.1-4.1L597,426.6z
		 M599.3,426.6h0.6c0.2,0,1.6,1.4,4.1,4.1v0.2h-1c-0.2,0-1.6-1.4-4.1-4.1L599.3,426.6z M601.5,426.6h0.8c0.2,0,1.6,1.4,4.1,4.1v0.2
		h-0.8c-0.2,0-1.6-1.4-4.1-4.1V426.6z M603.5,376.2l3.9,4.2v1h-0.2c-0.2,0-1.5-1.4-4.1-4.1v-0.6
		C603.1,376.4,603.3,376.2,603.5,376.2z M603.1,378.8h0.2c0.2,0,1.6,1.4,4.1,4.1v0.8h-0.2c-0.2,0-1.5-1.4-4.1-4.1V378.8z
		 M603.5,381.2l3.9,4.1v0.6c0,0.3-0.1,0.4-0.4,0.4l-3.9-4.1v-0.6C603.1,381.3,603.3,381.2,603.5,381.2z M603.5,383.5
		c0,0.2,1.3,1.6,3.9,4.2v1h-0.2c-0.2,0-1.5-1.4-4.1-4.1V384C603.1,383.7,603.3,383.5,603.5,383.5z M603.1,386.1h0.2
		c0.2,0,1.6,1.4,4.1,4.1v0.8h-0.2c-0.2,0-1.5-1.4-4.1-4.2V386.1z M603.5,388.5l3.9,4.1v0.6c0,0.3-0.1,0.4-0.4,0.4l-3.9-4.1v-0.6
		C603.1,388.6,603.3,388.5,603.5,388.5z M603.1,391.1h0.2c0.2,0,1.6,1.4,4.1,4.1v0.8h-0.2c-0.2,0-1.5-1.4-4.1-4.1V391.1z
		 M603.1,393.4h0.2c0.2,0,1.6,1.4,4.1,4.1v0.8h-0.2c-0.2,0-1.5-1.4-4.1-4.2V393.4z M603.5,395.8l3.9,4.1v1h-0.2
		c-0.2,0-1.5-1.4-4.1-4.1v-0.6C603.1,395.9,603.3,395.8,603.5,395.8z M603.1,398.4h0.2c0.2,0,1.6,1.4,4.1,4.1v0.8h-0.2
		c-0.2,0-1.5-1.4-4.1-4.1V398.4z M603.1,400.7h0.2c0.2,0,1.6,1.4,4.1,4.2v0.6c0,0.3-0.1,0.4-0.4,0.4l-3.9-4.1V400.7z M603.5,403.1
		l3.9,4.1v1h-0.2c-0.2,0-1.5-1.4-4.1-4.1v-0.6C603.1,403.2,603.3,403.1,603.5,403.1z M603.1,405.7h0.2c0.2,0,1.6,1.4,4.1,4.1v0.8
		h-0.2c-0.2,0-1.5-1.4-4.1-4.1V405.7z M603.1,408h0.2c0.2,0,1.6,1.4,4.1,4.2v0.6c0,0.3-0.1,0.4-0.4,0.4l-3.9-4.1V408z M603.5,410.4
		l3.9,4.1v1h-0.2c-0.2,0-1.5-1.4-4.1-4.2v-0.6C603.1,410.5,603.3,410.4,603.5,410.4z M603.1,413h0.2c0.2,0,1.6,1.4,4.1,4.1v0.8h-0.2
		c-0.2,0-1.5-1.4-4.1-4.1V413z M603.1,415.4h0.2c0.2,0,1.1,0.9,2.8,2.7v0.2h-1c-0.2,0-0.8-0.7-2-2V415.4z M603.5,417.7l0.2,0.4v0.2
		h-0.2c-0.3,0-0.4-0.1-0.4-0.4L603.5,417.7z M603.9,426.6h0.4c0.8,0,2.3,1.4,4.8,4.1l-0.4,0.2h-0.6c-0.2,0-1.6-1.4-4.2-4.1V426.6z
		 M606.7,426.6h0.6c0.2,0,1.6,1.4,4.2,4.1v0.2h-1c-0.2,0-1.6-1.4-4.1-4.1L606.7,426.6z M608.8,426.6h0.8c0.2,0,1.6,1.4,4.1,4.1v0.2
		H613c-0.2,0-1.6-1.4-4.1-4.1V426.6z M611.6,426.6h0.6c0.2,0,1.6,1.4,4.1,4.1l-0.4,0.2h-0.6c-0.2,0-1.6-1.4-4.2-4.1L611.6,426.6z
		 M614,426.6h0.6c0.2,0,1.6,1.4,4.2,4.1v0.2h-1c-0.2,0-1.5-1.4-4.1-4.1L614,426.6z M616.1,426.6h0.8c0.2,0,1.6,1.4,4.1,4.1l-0.4,0.2
		h-0.4c-0.2,0-1.6-1.4-4.1-4.1V426.6z M616.7,421.7h0.2c0.2,0,1.6,1.4,4.1,4.2v0.6c0,0.3-0.1,0.4-0.4,0.4l-3.9-4.1V421.7z
		 M617.1,424l3.9,4.1v0.6c0,0.3-0.1,0.4-0.4,0.4l-3.9-4.1v-0.6C616.8,424.2,616.9,424,617.1,424z"/>
	<path d="M621.4,375.1h19.2c0.3,0.1,0.4,0.2,0.4,0.4v5.7c0,0.3-0.1,0.4-0.4,0.4h-12.9v14.7h9.5c0.3,0.1,0.4,0.2,0.4,0.4v5.7
		c0,0.3-0.1,0.4-0.4,0.4h-9.5v16.5h13.9c0.3,0,0.4,0.2,0.4,0.4v5.7c0,0.3-0.1,0.4-0.4,0.4h-20.2c-0.3,0-0.4-0.1-0.4-0.4v-50
		C621,375.2,621.2,375.1,621.4,375.1z M622.2,426.8h0.4c0.2,0,1.5,1.3,3.9,4v0.2h-0.4c-0.2,0-1.5-1.3-4-3.9V426.8z M624.2,426.8h0.8
		c0.2,0,1.5,1.3,4,4v0.2h-0.8c-0.2,0-1.5-1.3-4-3.9V426.8z M626.5,426.8h1l4,4v0.2h-1c-0.2,0-1.5-1.3-4-3.9V426.8z M628.9,384
		l3.9,4.2v0.6c0,0.3-0.1,0.4-0.4,0.4l-3.9-4.1v-0.6C628.6,384.1,628.7,384,628.9,384z M628.5,386.5h0.2c0.2,0,1.6,1.4,4.1,4.2v0.8
		h-0.2c-0.2,0-1.5-1.4-4.1-4.1V386.5z M628.5,388.9h0.2c0.2,0,1.6,1.4,4.1,4.2v0.6c0,0.3-0.1,0.4-0.4,0.4l-3.9-4.3V388.9z
		 M628.9,391.3l3.6,3.8v0.2h-1c-0.2,0-1.1-1-3-3v-0.6C628.6,391.4,628.7,391.3,628.9,391.3z M628.5,393.9h0.2c0.2,0,0.6,0.4,1.2,1.2
		v0.2h-0.8c-0.2,0-0.4-0.2-0.6-0.6V393.9z M628.9,403.8c0.2,0,1.5,1.3,3.9,3.9v0.6c0,0.3-0.1,0.4-0.4,0.4l-3.9-4.2v-0.4
		C628.6,403.9,628.7,403.8,628.9,403.8z M628.9,406l3.9,4.1v1h-0.2c-0.2,0-1.5-1.4-4.1-4.2v-0.6C628.6,406.1,628.7,406,628.9,406z
		 M628.5,408.6h0.2c0.2,0,1.6,1.4,4.1,4.1v0.8h-0.2c-0.2,0-1.5-1.4-4.1-4.1V408.6z M628.5,410.9h0.2c0.2,0,1.6,1.4,4.1,4.2v0.6
		c0,0.3-0.1,0.4-0.4,0.4l-3.9-4.1V410.9z M628.9,413.3l3.9,4.2v0.6c0,0.3-0.1,0.4-0.4,0.4l-3.9-4.1v-0.6
		C628.6,413.4,628.7,413.3,628.9,413.3z M628.5,415.9h0.2c0.2,0,1,0.8,2.4,2.4v0.2h-0.8c-0.2,0-0.8-0.6-1.8-1.8V415.9z M628.9,382.6
		h0.8c0.2,0,1.5,1.3,4,3.9v0.2h-0.8c-0.2,0-1.5-1.3-3.9-3.9V382.6z M628.9,426.8h1c0.2,0,1.5,1.3,4,4v0.2h-1c-0.2,0-1.5-1.3-3.9-3.9
		V426.8z M630.5,403.8h0.8c0.2,0,1.5,1.3,3.9,3.9v0.2h-0.8c-0.2,0-1.5-1.3-3.9-3.9V403.8z M631.3,382.6h0.8c0.2,0,1.5,1.3,4,3.9v0.2
		h-0.8c-0.2,0-1.5-1.3-3.9-3.9V382.6z M631.5,426.8h0.8c0.2,0,1.5,1.3,4,4v0.2h-0.8c-0.2,0-1.5-1.3-3.9-3.9V426.8z M632.9,403.8h0.8
		c0.2,0,1.6,1.3,4.1,3.9v0.2h-1c-0.2,0-1.5-1.3-4-3.9V403.8z M633.7,382.6h1c0.2,0,1.5,1.3,4,3.9v0.2h-1c-0.2,0-1.5-1.3-3.9-3.9
		V382.6z M633.9,426.8h1c0.2,0,1.5,1.3,4,4v0.2h-1c-0.2,0-1.5-1.3-3.9-3.9V426.8z M635.4,403.8h0.8c0.2,0,1.5,1.3,3.9,3.9v0.2h-1
		c-2.4-2.1-3.6-3.5-3.8-3.9V403.8z M636.3,382.6h0.8c0.2,0,1.5,1.3,4,3.9v0.2h-0.8c-0.2,0-1.5-1.3-3.9-3.9V382.6z M636.3,426.8h1
		c0.2,0,1.5,1.3,4,4v0.2h-1c-0.2,0-1.5-1.3-3.9-3.9V426.8z M637.8,403.8h0.8c0.2,0,1.5,1.3,3.9,3.9v0.2h-0.8c-0.2,0-1.5-1.3-4-3.9
		V403.8z M638.4,398.8h0.2c0.2,0,1.5,1.4,4.1,4.1v0.6c0,0.3-0.1,0.4-0.4,0.4c0-0.2-1.3-1.7-3.9-4.4V398.8z M638.8,401.2l3.9,4.1v0.6
		c0,0.3-0.1,0.4-0.4,0.4l-3.9-4.2v-0.6C638.5,401.4,638.6,401.2,638.8,401.2z M638.6,382.6h1c0.2,0,1.4,1.3,3.7,3.8h0.2v0.4h-1
		c-0.2,0-1.5-1.3-3.9-3.9V382.6z M638.8,426.8h0.8c0.2,0,1.5,1.3,3.9,4v0.2h-0.8c-0.2,0-1.5-1.3-3.9-3.9V426.8z M641,382.6h1
		c0.2,0,1.5,1.3,3.9,3.9v0.2h-1c-0.2,0-1.5-1.3-3.9-3.9V382.6z M641.2,426.8h1c0.2,0,1.5,1.3,3.9,4v0.2h-1c-0.2,0-1.5-1.3-3.9-3.9
		V426.8z M642,376.2h0.2c0.2,0,1.5,1.3,3.9,4v0.2h-0.2c-0.2,0-1.5-1.3-3.9-3.9V376.2z M642,377.8h0.2c0.2,0,1.5,1.3,3.9,4v1h-0.2
		c-0.2,0-1.5-1.3-3.9-4V377.8z M642,380.4h0.2c0.2,0,1.5,1.3,3.9,3.9v0.8h-0.2c-0.2,0-1.5-1.3-3.9-4V380.4z M642.8,420.4h0.2
		c0.2,0,1.5,1.3,4,4v0.8h-0.2c-0.2,0-1.5-1.3-4-4V420.4z M642.8,422.8h0.2c0.2,0,1.5,1.3,4,3.9v0.8h-0.2c-0.2,0-1.5-1.3-4-4V422.8z
		 M642.8,425.2h0.2c0.2,0,1.5,1.3,4,3.9v1h-0.2c-0.2,0-1.5-1.3-4-4V425.2z"/>
	<path d="M647.9,375h6c0.3,0.1,0.4,0.2,0.4,0.4v50c0,0.3-0.1,0.4-0.4,0.4h-6c-0.3,0-0.4-0.1-0.4-0.4v-50
		C647.6,375.1,647.7,375,647.9,375z M648.7,426.8h1c0.2,0,1.5,1.3,4,4v0.2h-1c-0.2,0-1.5-1.3-4-4V426.8z M651.5,426.8h0.6
		c0.2,0,1.5,1.3,4,4v0.2h-1c-0.2,0-1.5-1.3-4-4L651.5,426.8z M653.7,426.8h0.8c0.2,0,1.5,1.3,3.9,4v0.2h-0.8c-0.2,0-1.5-1.3-3.9-4
		V426.8z M655.3,376.1h0.2c0.2,0,1.5,1.3,4,4v1h-0.2c-0.2,0-1.5-1.3-4-4V376.1z M655.3,378.8h0.2c0.2,0,1.5,1.3,4,3.9v0.8h-0.2
		c-0.2,0-1.5-1.3-4-4V378.8z M655.3,381.1h0.2c0.2,0,1.5,1.3,4,3.9v1h-0.2c-2.7-2.5-4-4-4-4.6V381.1z M655.3,383.5h0.2
		c0.2,0,1.5,1.3,4,3.9v1h-0.2c-0.2,0-1.5-1.3-4-4V383.5z M655.3,386.1h0.2c0.2,0,1.5,1.3,4,3.9v0.8h-0.2c-0.2,0-1.5-1.3-4-4V386.1z
		 M655.3,388.5h0.2c0.2,0,1.5,1.3,4,3.9v1h-0.2c-0.2,0-1.5-1.3-4-4V388.5z M655.3,390.9h0.2c0.2,0,1.5,1.3,4,3.9v1h-0.2
		c-0.2,0-1.5-1.3-4-4V390.9z M655.3,393.5h0.2c0.2,0,1.5,1.3,4,3.9v0.8h-0.2c-0.2,0-1.5-1.3-4-4V393.5z M655.3,395.8h0.2
		c0.2,0,1.5,1.3,4,3.9v1h-0.2c-0.2,0-1.5-1.3-4-4V395.8z M655.3,398.2h0.2c0.2,0,1.5,1.3,4,3.9v1h-0.2c-0.2,0-1.5-1.3-4-4V398.2z
		 M655.3,400.8h0.2c0.2,0,1.5,1.3,4,3.9v0.8h-0.2c-0.2,0-1.5-1.3-4-4V400.8z M655.3,403.2h0.2c0.2,0,1.5,1.3,4,3.9v1h-0.2
		c-0.2,0-1.5-1.3-4-4V403.2z M655.7,405.6l3.8,3.9v1h-0.2c-0.2,0-1.5-1.3-4-4V406C655.3,405.7,655.5,405.6,655.7,405.6z
		 M655.3,408.1h0.2c0.2,0,1.5,1.3,4,3.9v0.8h-0.2c-0.2,0-1.5-1.3-4-4V408.1z M655.3,410.5h0.2c0.2,0,1.5,1.3,4,3.9v1h-0.2
		c-0.2,0-1.5-1.3-4-4V410.5z M655.3,413.1h0.2c0.2,0,1.5,1.3,4,3.9v0.8h-0.2c-0.2,0-1.5-1.3-4-4V413.1z M655.3,415.5h0.2
		c0.2,0,1.5,1.3,4,3.9v0.8h-0.2c-0.2,0-1.5-1.3-4-4V415.5z M655.3,417.9h0.2c0.2,0,1.5,1.3,4,3.9v1h-0.2c-0.2,0-1.5-1.3-4-4V417.9z
		 M655.3,420.4h0.2c0.2,0,1.5,1.3,4,3.9v0.8h-0.2c-0.2,0-1.5-1.3-4-4V420.4z M655.3,422.8h0.2c0.2,0,1.5,1.3,4,3.9v0.8h-0.2
		c-0.2,0-1.5-1.3-4-4V422.8z M655.3,425.2h0.2c0.2,0,1.5,1.3,4,3.9v1h-0.2c-0.2,0-1.5-1.3-4-4V425.2z"/>
	<path d="M663.5,375.1h6.5c0.3,0,2.9,9,7.9,27.1h0.2v-26.7c0.1-0.3,0.2-0.4,0.4-0.4h5.9c0.3,0.1,0.4,0.2,0.4,0.4v50
		c0,0.3-0.1,0.4-0.4,0.4h-6.3c-0.5-0.3-1.9-5.1-4.3-14.3c-0.1,0-1.4-4.3-3.8-13h-0.2v26.8c0,0.3-0.1,0.4-0.4,0.4h-5.9
		c-0.3,0-0.4-0.1-0.4-0.4v-50C663.1,375.2,663.3,375.1,663.5,375.1z M665.7,426.6h0.8c0.2,0,1.6,1.4,4.1,4.1v0.2h-0.8
		c-0.2,0-1.6-1.4-4.1-4.1V426.6z M668.4,426.6h0.6c0.2,0,1.5,1.4,4.1,4.1l-0.4,0.2h-0.6c-0.2,0-1.6-1.4-4.2-4.1L668.4,426.6z
		 M670.8,426.2h0.2c0.2,0,1.5,1.3,3.9,3.9v0.4c0,0.3-0.1,0.4-0.4,0.4c-0.2,0-1.5-1.4-4.1-4.1C670.7,426.8,670.8,426.6,670.8,426.2z
		 M670.8,406.7h0.2c0.4,0,0.7,0.6,0.8,1.8h-0.2c-0.2,0-0.4-0.3-0.8-0.8V406.7z M670.8,409.2h0.2c1.2,0.8,1.8,1.7,1.8,2.6h-0.2
		c-0.2,0-0.8-0.6-1.8-1.8V409.2z M670.8,411.6h0.2c1.8,1.4,2.8,2.7,2.8,3.8c-0.8-0.5-1.8-1.4-3-2.8V411.6z M670.8,414h0.2
		c2.5,2,3.8,3.7,3.8,5c-0.2,0-1.5-1.3-3.9-4V414z M670.8,416.5h0.2c0.2,0,1.5,1.3,3.9,3.9v0.8h-0.2c-0.2,0-1.5-1.3-3.9-3.9V416.5z
		 M670.8,418.9h0.2c0.2,0,1.5,1.3,3.9,3.9v1h-0.2c-0.2,0-1.5-1.3-3.9-3.9V418.9z M670.8,421.3h0.2c0.2,0,1.5,1.3,3.9,3.9v1h-0.2
		c-0.2,0-1.5-1.3-3.9-3.9V421.3z M670.8,423.8h0.2c0.2,0,1.5,1.3,3.9,3.9v0.8h-0.2c-0.2,0-1.5-1.3-3.9-3.9V423.8z M672.4,378.8
		c2.6,2.2,3.9,3.8,3.9,4.9h-0.2c-2.5-2.1-3.8-3.6-3.8-4.7V378.8z M673.2,382.2h0.2c2.6,2.3,3.9,3.9,3.9,4.7l-0.4,0.2
		C674.4,384.7,673.2,383.1,673.2,382.2z M674.3,385.7c0.2,0,1.2,1,3,3v0.8h-0.2C675.3,388.1,674.3,386.8,674.3,385.7z M675.4,389.1
		c0.2,0,0.8,0.7,2,2v0.6c0,0.3-0.1,0.4-0.4,0.4c-1-1-1.6-1.9-1.6-2.8V389.1z M676.5,392.4l0.8,1v1h-0.2c-0.3,0-0.6-0.6-1-1.8
		L676.5,392.4z M680.3,426.6h0.8c0.2,0,1.6,1.4,4.1,4.1v0.2h-0.8c-0.2,0-1.6-1.4-4.1-4.1V426.6z M683.1,426.6h0.6
		c0.2,0,1.6,1.4,4.1,4.1l-0.4,0.2h-0.6c-0.2,0-1.6-1.4-4.1-4.1L683.1,426.6z M685.4,426.6h0.6c0.2,0,1.5,1.3,3.9,3.9
		c0,0.3-0.1,0.4-0.4,0.4h-0.4l-4.1-4.1L685.4,426.6z M685.8,377.8h0.2c0.2,0,1.5,1.3,3.9,3.9v1h-0.2c-0.2-0.1-1.5-1.4-3.9-4.1V377.8
		z M685.8,380.2h0.2c0.2,0,1.5,1.3,3.9,4v1h-0.2c-0.2,0-1.5-1.3-3.9-3.9V380.2z M685.8,382.7h0.2c0.2,0,1.5,1.3,3.9,3.9v0.8h-0.2
		c-0.2,0-1.5-1.3-3.9-4V382.7z M685.8,385.1h0.2c0.2,0,1.5,1.3,3.9,3.9v1h-0.2c-0.2,0-1.5-1.3-3.9-3.9V385.1z M685.8,387.5h0.2
		c0.2,0,1.5,1.3,3.9,3.9v1h-0.2c-0.2,0-1.5-1.3-3.9-3.9V387.5z M685.8,390.1h0.2c0.2,0,1.5,1.3,3.9,3.9v0.8h-0.2
		c-0.2,0-1.5-1.3-3.9-3.9V390.1z M685.8,392.4h0.2c0.2,0,1.5,1.3,3.9,3.9v1h-0.2c-0.2,0-1.5-1.3-3.9-3.9V392.4z M685.8,394.8h0.2
		c0.2,0,1.5,1.3,3.9,3.9v1h-0.2c-0.2,0-1.5-1.3-3.9-3.9V394.8z M685.8,397.4h0.2c0.2,0,1.5,1.3,3.9,4v0.8h-0.2
		c-0.2,0-1.5-1.3-3.9-3.9V397.4z M685.8,399.7h0.2c0.2,0,1.5,1.3,3.9,3.9v1h-0.2c-0.2,0-1.5-1.3-3.9-3.9V399.7z M685.8,402.1h0.2
		c0.2,0,1.5,1.3,3.9,3.9v1h-0.2c-0.2,0-1.5-1.3-3.9-3.9V402.1z M685.8,404.7h0.2c0.2,0,1.5,1.3,3.9,4v0.8h-0.2
		c-0.2,0-1.5-1.3-3.9-3.9V404.7z M685.8,407h0.2c0.2,0,1.5,1.3,3.9,3.9v1h-0.2c-0.2,0-1.5-1.3-3.9-4V407z M685.8,409.4h0.2
		c0.2,0,1.5,1.3,3.9,3.9v1h-0.2c-0.2,0-1.5-1.3-3.9-3.9V409.4z M685.8,412h0.2c0.2,0,1.5,1.3,3.9,3.9v0.8h-0.2
		c-0.2,0-1.5-1.3-3.9-3.9V412z M685.8,414.3h0.2c0.2,0,1.5,1.3,3.9,3.9v1h-0.2c-0.2,0-1.5-1.3-3.9-3.9V414.3z M685.8,416.9h0.2
		c0.2,0,1.5,1.3,3.9,3.9v0.8h-0.2c-0.2,0-1.5-1.3-3.9-3.9V416.9z M685.8,419.3h0.2c0.2,0,1.5,1.3,3.9,3.9v0.8h-0.2
		c-0.2,0-1.5-1.3-3.9-3.9V419.3z M685.8,421.7h0.2c0.2,0,1.5,1.3,3.9,3.9v1h-0.2c-0.2,0-1.5-1.3-3.9-3.9V421.7z M685.8,424.2h0.2
		c0.2,0,1.5,1.3,3.9,3.9v0.8h-0.2c-0.2,0-1.5-1.3-3.9-3.9V424.2z"/>
	<path d="M721.7,375h5.5c0.5,0.5,1.8,5.8,3.8,15.7c0.5,1.8,3.2,13.5,7.9,35l-0.4,0.2h-6.2c-0.4,0-1.2-3.2-2.4-9.5H719
		c-1.2,5.5-2,8.7-2.4,9.5h-6.4l-0.4-0.2l11.5-50.4L721.7,375z M711,426.8h0.4c2.5,2.4,3.8,3.8,3.8,4v0.2H715c-0.2,0-1.5-1.3-4-4
		V426.8z M712.8,426.8h1c0.2,0,1.5,1.3,3.9,4v0.2h-1c-0.2,0-1.5-1.3-4-4V426.8z M715.4,426.8h0.8c0.2,0,1.5,1.3,3.9,4v0.2h-0.8
		c-0.2,0-1.5-1.3-4-4V426.8z M717.9,425.8l4.2,4.4v0.2c0,0.2-0.2,0.4-0.6,0.6l-4-4.2v-0.6C717.6,425.9,717.7,425.8,717.9,425.8z
		 M718.4,424c0.2,0,1.5,1.4,4.1,4.2v0.4c0,0.3-0.1,0.4-0.4,0.4c-0.2,0-1.6-1.4-4.2-4.2v-0.4C718,424.1,718.1,424,718.4,424z
		 M718.6,422h0.2c0.2,0,1.5,1.4,4.1,4.2v0.4c0,0.3-0.1,0.4-0.4,0.4l-4.1-4.3C718.5,422.4,718.6,422.2,718.6,422z M719.3,419.8
		l4.2,4.4c-0.1,0.2-0.2,0.5-0.2,0.8h-0.2c-0.2,0-1.5-1.4-4.1-4.2v-0.6C719,420,719.1,419.8,719.3,419.8z M719.3,418.1h0.4
		c0.2,0,1.6,1.4,4.2,4.1v0.2c0,0.2-0.2,0.4-0.6,0.6l-4-4.2V418.1z M724.3,392l-3.8,17.7h8l-4-17.7H724.3z M720.5,417.2h0.8
		c0.2,0,1.5,1.3,3.9,4v0.2h-0.8c-0.2,0-1.5-1.3-4-4V417.2z M722.1,407.3c0.2,0,0.6,0.4,1.2,1.2v0.2h-0.8c-0.2,0-0.5-0.3-0.8-0.8
		v-0.2C721.8,407.4,721.9,407.3,722.1,407.3z M722.7,405.1l3.2,3.4v0.2h-1c-0.2,0-1.1-0.9-2.8-2.8
		C722.3,405.4,722.5,405.1,722.7,405.1z M723.1,403.2l4,4.1v0.8h-0.2c-0.2,0-1.6-1.4-4.2-4.2v-0.4
		C722.8,403.3,722.9,403.2,723.1,403.2z M722.9,417.2h1c0.2,0,1.5,1.3,3.9,4v0.2h-1c-0.2,0-1.5-1.3-4-4V417.2z M723.1,401.4h0.4
		c2,1.6,3,2.8,3,3.6v0.2h-0.2c-0.2,0-1.3-1.1-3.2-3.2V401.4z M723.7,399.2h0.2c1.3,1,2,2,2,3h-0.2c-1.5-1.2-2.2-2-2.2-2.4
		C723.7,399.5,723.7,399.3,723.7,399.2z M724.1,397.2h0.2c0.4,0,0.7,0.5,0.8,1.6h-0.2c-0.2,0-0.5-0.3-0.8-0.8V397.2z M725.3,417.2h1
		c0.2,0,1.5,1.3,3.9,4l-0.4,0.2h-0.6c-0.2,0-1.5-1.3-4-4V417.2z M727.9,417.2h0.8c0.7,0.3,1,0.9,1,1.8h-0.2c-0.2,0-0.7-0.5-1.6-1.6
		V417.2z M728.9,376.6h0.2c0.2,0,1.4,1.3,3.8,3.8v0.2h-0.2c-0.2,0-1.4-1.3-3.8-3.8V376.6z M729.5,379h0.2c2.7,2.2,4,3.8,4,5h-0.2
		C730.8,381.7,729.5,380.1,729.5,379z M730.4,381.9c2.5,2.4,3.8,4,3.8,4.8v0.2H734c-2.7-2.3-4-3.9-4-4.8L730.4,381.9z M730.9,385.3
		h0.2c2.6,2.2,3.9,3.8,3.9,4.8h-0.2C732.2,387.8,730.9,386.2,730.9,385.3z M731.7,388.3c2.7,2.3,4,3.8,4,4.6v0.4h-0.2
		c-2.5-2.1-3.8-3.7-3.8-4.8V388.3z M732.2,391.5h0.2c2.7,2.3,4,3.9,4,5h-0.2C733.6,394.2,732.2,392.6,732.2,391.5z M733.1,394.8h0.2
		c0.2,0,1.4,1.3,3.8,3.8v1C734.4,397.3,733.1,395.8,733.1,394.8z M733.4,427h0.2c0.2,0,1.4,1.3,3.8,3.8h-0.2
		C737,430.8,735.8,429.5,733.4,427z M733.6,397.8h0.2c2.7,2.2,4,3.9,4,5h-0.2C735,400.6,733.6,398.9,733.6,397.8z M734.4,401.2h0.2
		c2.7,2.2,4,3.8,4,4.8h-0.2C735.8,403.7,734.4,402.1,734.4,401.2z M735.2,426.8h0.6c0.2,0,1.5,1.3,3.9,4v0.2h-1c-0.2,0-1.5-1.3-4-4
		L735.2,426.8z M735.2,404.2c2.7,2.3,4,3.8,4,4.6v0.2H739c-2.5-2.2-3.8-3.6-3.8-4.4V404.2z M735.8,407.3h0.2c2.6,2.2,3.9,3.8,3.9,5
		h-0.2C737.1,410.1,735.8,408.4,735.8,407.3z M736.6,410.7h0.2c2.7,2.2,4,3.8,4,4.8h-0.2C737.9,413.2,736.6,411.7,736.6,410.7z
		 M737.4,413.7c2.7,2.2,4,3.8,4,5h-0.2c-2.5-2.2-3.8-3.6-3.8-4.4V413.7z M737.4,426.8h0.8c0.2,0,1.5,1.3,3.9,4v0.2h-0.8
		c-0.2,0-1.5-1.3-4-4V426.8z M738,416.8h0.2c2.6,2.2,3.9,3.8,3.9,5H742C739.3,419.6,738,418,738,416.8z M738.8,420.2h0.2
		c2.5,2.2,3.8,3.6,3.8,4.3v0.4C740.1,422.7,738.8,421.2,738.8,420.2z M739.4,423.2h0.2c2.7,2.2,4,3.8,4,5h-0.2
		C740.7,426,739.4,424.3,739.4,423.2z M740.2,426.4h0.2c2.5,2.2,3.8,3.6,3.8,4.4l-0.4,0.2c-0.2,0-1.5-1.3-4-4v-0.2
		C740,426.8,740.2,426.6,740.2,426.4z"/>
	<path d="M742.4,375h6c0.3,0.1,0.4,0.2,0.4,0.4v50c0,0.3-0.1,0.4-0.4,0.4h-6c-0.3,0-0.4-0.1-0.4-0.4v-50
		C742.1,375.1,742.2,375,742.4,375z M743.2,426.8h1c0.2,0,1.5,1.3,4,4v0.2h-1c-0.2,0-1.5-1.3-4-4V426.8z M746,426.8h0.6
		c0.2,0,1.5,1.3,4,4v0.2h-1c-0.2,0-1.5-1.3-4-4L746,426.8z M748.2,426.8h0.8c0.2,0,1.5,1.3,3.9,4v0.2h-0.8c-0.2,0-1.5-1.3-3.9-4
		V426.8z M749.7,376.1h0.2c0.2,0,1.5,1.3,4,4v1h-0.2c-0.2,0-1.5-1.3-4-4V376.1z M749.7,378.8h0.2c0.2,0,1.5,1.3,4,3.9v0.8h-0.2
		c-0.2,0-1.5-1.3-4-4V378.8z M749.7,381.1h0.2c0.2,0,1.5,1.3,4,3.9v1h-0.2c-2.7-2.5-4-4-4-4.6V381.1z M749.7,383.5h0.2
		c0.2,0,1.5,1.3,4,3.9v1h-0.2c-0.2,0-1.5-1.3-4-4V383.5z M749.7,386.1h0.2c0.2,0,1.5,1.3,4,3.9v0.8h-0.2c-0.2,0-1.5-1.3-4-4V386.1z
		 M749.7,388.5h0.2c0.2,0,1.5,1.3,4,3.9v1h-0.2c-0.2,0-1.5-1.3-4-4V388.5z M749.7,390.9h0.2c0.2,0,1.5,1.3,4,3.9v1h-0.2
		c-0.2,0-1.5-1.3-4-4V390.9z M749.7,393.5h0.2c0.2,0,1.5,1.3,4,3.9v0.8h-0.2c-0.2,0-1.5-1.3-4-4V393.5z M749.7,395.8h0.2
		c0.2,0,1.5,1.3,4,3.9v1h-0.2c-0.2,0-1.5-1.3-4-4V395.8z M749.7,398.2h0.2c0.2,0,1.5,1.3,4,3.9v1h-0.2c-0.2,0-1.5-1.3-4-4V398.2z
		 M749.7,400.8h0.2c0.2,0,1.5,1.3,4,3.9v0.8h-0.2c-0.2,0-1.5-1.3-4-4V400.8z M749.7,403.2h0.2c0.2,0,1.5,1.3,4,3.9v1h-0.2
		c-0.2,0-1.5-1.3-4-4V403.2z M750.1,405.6l3.8,3.9v1h-0.2c-0.2,0-1.5-1.3-4-4V406C749.8,405.7,749.9,405.6,750.1,405.6z
		 M749.7,408.1h0.2c0.2,0,1.5,1.3,4,3.9v0.8h-0.2c-0.2,0-1.5-1.3-4-4V408.1z M749.7,410.5h0.2c0.2,0,1.5,1.3,4,3.9v1h-0.2
		c-0.2,0-1.5-1.3-4-4V410.5z M749.7,413.1h0.2c0.2,0,1.5,1.3,4,3.9v0.8h-0.2c-0.2,0-1.5-1.3-4-4V413.1z M749.7,415.5h0.2
		c0.2,0,1.5,1.3,4,3.9v0.8h-0.2c-0.2,0-1.5-1.3-4-4V415.5z M749.7,417.9h0.2c0.2,0,1.5,1.3,4,3.9v1h-0.2c-0.2,0-1.5-1.3-4-4V417.9z
		 M749.7,420.4h0.2c0.2,0,1.5,1.3,4,3.9v0.8h-0.2c-0.2,0-1.5-1.3-4-4V420.4z M749.7,422.8h0.2c0.2,0,1.5,1.3,4,3.9v0.8h-0.2
		c-0.2,0-1.5-1.3-4-4V422.8z M749.7,425.2h0.2c0.2,0,1.5,1.3,4,3.9v1h-0.2c-0.2,0-1.5-1.3-4-4V425.2z"/>
	<path d="M757.9,374.9H771c4.1,0,6.7,1.7,7.9,5c0.3,0.9,0.4,1.7,0.4,2.4v14.6c0,3.4-1.8,5.7-5.5,7L773,404c0.3,0.9,3,8.1,8.1,21.6
		l-0.4,0.2h-6.6c-0.6-0.9-2.7-6.3-6.3-16.3c-1.5-3.7-2.3-5.5-2.4-5.5h-1.2v21.4c0,0.3-0.1,0.4-0.4,0.4h-5.9c-0.3,0-0.4-0.1-0.4-0.4
		v-50.2C757.6,375,757.7,374.9,757.9,374.9z M758.7,426.8h0.2c0.2,0,1.5,1.3,3.9,4h-0.2C762.5,430.8,761.2,429.4,758.7,426.8z
		 M760.3,426.6h1c0.2,0,1.6,1.4,4.2,4.2l-0.4,0.2h-0.6c-0.2,0-1.6-1.4-4.2-4.2V426.6z M763.1,426.6h0.6c0.2,0,1.6,1.4,4.2,4.2v0.2
		h-1c-0.2,0-1.5-1.4-4.1-4.2L763.1,426.6z M764.3,381.6v15.8h5.7c1.7,0,2.6-0.9,2.6-2.6V384c-0.1-1.6-0.8-2.3-2-2.3H764.3z
		 M765.5,383.4l3.9,4.2v0.6c0,0.3-0.1,0.4-0.4,0.4c-2.6-2.6-3.9-4.1-3.9-4.8C765.1,383.5,765.2,383.4,765.5,383.4z M765.5,385.8
		l3.9,4.2v1h-0.2c-2.8-2.4-4.1-4-4.1-4.8C765.1,385.9,765.2,385.8,765.5,385.8z M765.5,388.3l3.9,4.2v0.8h-0.2
		c-0.2,0-1.5-1.4-4.1-4.2v-0.4C765.1,388.5,765.2,388.3,765.5,388.3z M765.5,390.7l3.9,4.1v1h-0.2c-2.8-2.4-4.1-4-4.1-4.8
		C765.1,390.8,765.2,390.7,765.5,390.7z M765.5,393.1l3,3.2v0.2h-1c-0.2,0-1-0.8-2.4-2.4v-0.6C765.1,393.2,765.2,393.1,765.5,393.1z
		 M765.5,395.7l0.4,0.6v0.2h-0.4c-0.3,0-0.4-0.1-0.4-0.4C765.1,395.8,765.2,395.7,765.5,395.7z M765.5,406.2l0.8,2h-0.2
		c-0.7-0.3-1-0.9-1-1.6C765.1,406.3,765.2,406.2,765.5,406.2z M765.5,408.6c1.5,1.4,2.2,2.5,2.2,3.6c-0.2,0-1-0.9-2.6-2.6V409
		C765.1,408.7,765.2,408.6,765.5,408.6z M765.5,411.1c2.4,2.2,3.6,3.8,3.6,4.5v0.2c-0.2,0-1.5-1.3-3.9-3.9v-0.4
		C765.1,411.3,765.2,411.1,765.5,411.1z M765.5,413.7c0.2,0,1.5,1.3,3.9,3.9v1h-0.2c-2.8-2.4-4.1-4-4.1-4.7L765.5,413.7z
		 M765.5,415.9l3.9,4.2v1h-0.2c-0.2,0-1.5-1.4-4.1-4.1v-0.6C765.1,416,765.2,415.9,765.5,415.9z M765.5,418.5l3.9,4.2v0.8h-0.2
		c-0.2,0-1.5-1.4-4.1-4.1v-0.4C765.1,418.6,765.2,418.5,765.5,418.5z M765.5,420.8l3.9,4.2v1h-0.2c-2.8-2.4-4.1-4-4.1-4.8
		C765.1,421,765.2,420.8,765.5,420.8z M765.5,423.2l3.9,4.2v1h-0.2c-0.2,0-1.5-1.4-4.1-4.2v-0.6
		C765.1,423.3,765.2,423.2,765.5,423.2z M765.5,425.8l3.9,4.2v0.8h-0.2c-2.8-2.4-4.1-4-4.1-4.8L765.5,425.8z M765.9,382.4h0.8
		c0.2,0,1.6,1.4,4.2,4.1v0.2H770c-0.2,0-1.6-1.4-4.2-4.1V382.4z M768.3,382.4h1c0.2,0,1,0.8,2.4,2.4v1h-0.2c-0.2,0-1.2-1.1-3.2-3.2
		V382.4z M770.8,382.6h0.2c0.2,0,0.4,0.2,0.6,0.6v0.2h-0.2c-0.2,0-0.4-0.2-0.6-0.6V382.6z M775.4,404.2h0.2c0.2,0,1.6,1.5,4.3,4.4
		c-0.4,0.3-0.7,0.4-1,0.4l-4.2-4.4L775.4,404.2z M774.8,406c2.5,2.2,3.8,3.7,3.8,4.5h-0.2c-2.4-2-3.6-3.5-3.6-4.3V406z M775.4,426.6
		h0.6c0.2,0,1.6,1.4,4.1,4.2l-0.4,0.2h-0.6c-0.2,0-1.6-1.4-4.1-4.2L775.4,426.6z M776.2,409.9h0.2c2.5,2.1,3.8,3.7,3.8,4.8h-0.2
		C777.4,412.5,776.2,411,776.2,409.9z M776.6,403.4h0.6c0.2,0,1.6,1.4,4.2,4.1v0.2c0,0.3-0.1,0.4-0.4,0.4c-0.2,0-1.6-1.4-4.4-4.3
		V403.4z M777.8,426.6h0.6c0.2,0,1.6,1.4,4.1,4.2v0.2h-1c-0.2,0-1.6-1.4-4.2-4.2L777.8,426.6z M777.5,413.7h0.2
		c2.5,2.1,3.8,3.7,3.8,4.9C778.9,416.4,777.5,414.8,777.5,413.7z M778.2,402.2h0.2c0.2,0,1.6,1.5,4.3,4.4c0,0.3-0.1,0.4-0.4,0.4
		h-0.2c-0.2,0-1.6-1.5-4.3-4.4C777.8,402.3,777.9,402.2,778.2,402.2z M779.5,400.6l4.2,4.3v0.2c0,0.2-0.2,0.4-0.6,0.6l-4.2-4.4v-0.2
		C779,401,779.2,400.8,779.5,400.6z M779.2,417.9h0.2c2.4,2,3.6,3.5,3.6,4.6C780.4,420.3,779.2,418.8,779.2,417.9z M780.1,399
		c0.2,0,1.6,1.4,4.2,4.2v0.4c0,0.3-0.1,0.4-0.4,0.4l-4.2-4.4v-0.2C779.8,399.2,779.9,399,780.1,399z M779.9,426.6h0.8
		c0.2,0,1.5,1.4,4.1,4.2v0.2h-0.8c-0.2,0-1.6-1.4-4.2-4.2V426.6z M780.1,380.2c2.2,1.9,3.3,3.1,3.4,3.6h-0.2c-0.2,0-1.3-1.1-3.2-3.2
		V380.2z M780.6,382c2.6,2.6,3.9,4.1,3.9,4.7v0.4h-0.2c-0.2,0-1.6-1.4-4.2-4.2v-0.6C780.2,382.1,780.3,382,780.6,382z M780.6,384.6
		l3.9,4.1v0.8h-0.2c-0.2,0-1.6-1.4-4.2-4.1V385C780.2,384.7,780.3,384.6,780.6,384.6z M780.6,387l3.9,4.1v1h-0.2
		c-2.8-2.3-4.2-4-4.2-4.9L780.6,387z M780.6,389.3l3.9,4.2v1h-0.2c-0.2,0-1.6-1.4-4.2-4.1v-0.6C780.2,389.5,780.3,389.3,780.6,389.3
		z M780.6,391.9l3.9,4.2v0.8h-0.2c-0.2,0-1.6-1.4-4.2-4.1v-0.4C780.2,392,780.3,391.9,780.6,391.9z M780.6,394.3l3.9,4.2v1h-0.2
		c-2.8-2.4-4.2-4-4.2-4.8C780.2,394.4,780.3,394.3,780.6,394.3z M780.6,396.7l3.9,4.4v0.8h-0.2c-0.2,0-1.6-1.4-4.2-4.1V397
		C780.2,396.8,780.3,396.7,780.6,396.7z M780.8,421.7c2.5,2,3.8,3.6,3.8,4.9c-2.5-2.1-3.8-3.7-3.8-4.7V421.7z M782.1,425.6h0.2
		c2.5,2.1,3.8,3.7,3.8,4.8h-0.2C783.4,428.3,782.1,426.7,782.1,425.6z"/>
</g>
<g>
</g>
<g>
</g>
<g>
</g>
<g>
</g>
<g>
</g>
<g>
</g>
<g>
</g>
<g>
</g>
<g>
</g>
<g>
</g>
<g>
</g>
<g>
</g>
<g>
</g>
<g>
</g>
<g>
</g>
</svg>
