<?xml version="1.0" encoding="utf-8"?>
<!-- Generator: Adobe Illustrator 19.0.0, SVG Export Plug-In . SVG Version: 6.00 Build 0)  -->
<svg version="1.1" id="Layer_1" xmlns="http://www.w3.org/2000/svg" xmlns:xlink="http://www.w3.org/1999/xlink" x="0px" y="0px"
	 viewBox="334 -4 1280 800" style="enable-background:new 334 -4 1280 800;" xml:space="preserve">
<style type="text/css">
	.st0{fill:#FFFFFF;}
</style>
<g>
	<path class="st0" d="M773.5,287.2h0.2v12.2c0,0.6-0.2,0.8-0.8,0.8h-39.2c-0.6,0-0.8-0.2-0.8-0.8v-100c0.2-0.6,0.4-0.8,0.8-0.8h11.8
		c0.6,0.2,0.8,0.4,0.8,0.8v87.2h27.2V287.2z M735.7,301.8h1.2c0.4,0,3,2.8,8.2,8.2l-0.8,0.4h-1.2c-0.4,0-3-2.8-8.2-8.2L735.7,301.8z
		 M740.5,301.8h1.2c0.4,0,3.2,2.8,8.2,8.2v0.4h-2c-0.4,0-3.2-2.8-8.2-8.2L740.5,301.8z M744.9,301.8h1.6c0.4,0,3.2,2.8,8.2,8.2v0.4
		h-1.6c-0.4,0-3.2-2.8-8.2-8.2V301.8z M748.9,201l7.8,8.4v2h-0.4c-0.4,0-3-2.8-8.2-8.2V202C748.1,201.4,748.5,201,748.9,201z
		 M748.1,206.2h0.4c0.4,0,3.2,2.8,8.2,8.2v1.6h-0.4c-0.4,0-3-2.8-8.2-8.2V206.2z M748.9,211l7.8,8.2v1.2c0,0.6-0.2,0.8-0.8,0.8
		l-7.8-8.2v-1.2C748.1,211.2,748.5,211,748.9,211z M748.9,215.6c0,0.4,2.6,3.2,7.8,8.4v2h-0.4c-0.4,0-3-2.8-8.2-8.2v-1.2
		C748.1,216,748.5,215.6,748.9,215.6z M748.1,220.8h0.4c0.4,0,3.2,2.8,8.2,8.2v1.6h-0.4c-0.4,0-3-2.8-8.2-8.4V220.8z M748.9,225.6
		l7.8,8.2v1.2c0,0.6-0.2,0.8-0.8,0.8l-7.8-8.2v-1.2C748.1,225.8,748.5,225.6,748.9,225.6z M748.1,230.8h0.4c0.4,0,3.2,2.8,8.2,8.2
		v1.6h-0.4c-0.4,0-3-2.8-8.2-8.2V230.8z M748.1,235.4h0.4c0.4,0,3.2,2.8,8.2,8.2v1.6h-0.4c-0.4,0-3-2.8-8.2-8.4V235.4z M748.9,240.2
		l7.8,8.2v2h-0.4c-0.4,0-3-2.8-8.2-8.2V241C748.1,240.4,748.5,240.2,748.9,240.2z M748.1,245.4h0.4c0.4,0,3.2,2.8,8.2,8.2v1.6h-0.4
		c-0.4,0-3-2.8-8.2-8.2V245.4z M748.1,250h0.4c0.4,0,3.2,2.8,8.2,8.4v1.2c0,0.6-0.2,0.8-0.8,0.8l-7.8-8.2L748.1,250L748.1,250z
		 M748.9,254.8l7.8,8.2v2h-0.4c-0.4,0-3-2.8-8.2-8.2v-1.2C748.1,255,748.5,254.8,748.9,254.8z M748.1,260h0.4c0.4,0,3.2,2.8,8.2,8.2
		v1.6h-0.4c-0.4,0-3-2.8-8.2-8.2V260z M748.1,264.6h0.4c0.4,0,3.2,2.8,8.2,8.4v1.2c0,0.6-0.2,0.8-0.8,0.8l-7.8-8.2L748.1,264.6
		L748.1,264.6z M748.9,269.4l7.8,8.2v2h-0.4c-0.4,0-3-2.8-8.2-8.4V270C748.1,269.6,748.5,269.4,748.9,269.4z M748.1,274.6h0.4
		c0.4,0,3.2,2.8,8.2,8.2v1.6h-0.4c-0.4,0-3-2.8-8.2-8.2V274.6z M748.1,279.4h0.4c0.4,0,2.2,1.8,5.6,5.4v0.4h-2c-0.4,0-1.6-1.4-4-4
		V279.4z M748.9,284l0.4,0.8v0.4h-0.4c-0.6,0-0.8-0.2-0.8-0.8L748.9,284z M749.7,301.8h0.8c1.6,0,4.6,2.8,9.6,8.2l-0.8,0.4h-1.2
		c-0.4,0-3.2-2.8-8.4-8.2V301.8z M755.1,301.8h1.2c0.4,0,3.2,2.8,8.4,8.2v0.4h-2c-0.4,0-3.2-2.8-8.2-8.2L755.1,301.8z M759.5,301.8
		h1.6c0.4,0,3.2,2.8,8.2,8.2v0.4h-1.6c-0.4,0-3.2-2.8-8.2-8.2V301.8z M765.1,301.8h1.2c0.4,0,3.2,2.8,8.2,8.2l-0.8,0.4h-1.2
		c-0.4,0-3.2-2.8-8.4-8.2L765.1,301.8z M769.7,301.8h1.2c0.4,0,3.2,2.8,8.4,8.2v0.4h-2c-0.4,0-3-2.8-8.2-8.2L769.7,301.8z
		 M774.1,301.8h1.6c0.4,0,3.2,2.8,8.2,8.2l-0.8,0.4h-0.8c-0.4,0-3.2-2.8-8.2-8.2L774.1,301.8L774.1,301.8z M775.3,292h0.4
		c0.4,0,3.2,2.8,8.2,8.4v1.2c0,0.6-0.2,0.8-0.8,0.8l-7.8-8.2L775.3,292L775.3,292z M776.1,296.6l7.8,8.2v1.2c0,0.6-0.2,0.8-0.8,0.8
		l-7.8-8.2v-1.2C775.5,297,775.7,296.6,776.1,296.6z"/>
	<path class="st0" d="M784.7,198.8h38.4c0.6,0.2,0.8,0.4,0.8,0.8V211c0,0.6-0.2,0.8-0.8,0.8h-25.8v29.4h19c0.6,0.2,0.8,0.4,0.8,0.8
		v11.4c0,0.6-0.2,0.8-0.8,0.8h-19v33h27.8c0.6,0,0.8,0.4,0.8,0.8v11.4c0,0.6-0.2,0.8-0.8,0.8h-40.4c-0.6,0-0.8-0.2-0.8-0.8v-100
		C783.9,199,784.1,198.8,784.7,198.8z M786.1,302.2h0.8c0.4,0,3,2.6,7.8,8v0.4h-0.8c-0.4,0-3-2.6-8-7.8v-0.6H786.1z M790.1,302.2
		h1.6c0.4,0,3,2.6,8,8v0.4h-1.6c-0.4,0-3-2.6-8-7.8V302.2z M794.9,302.2h2l8,8v0.4h-2c-0.4,0-3-2.6-8-7.8V302.2z M799.7,216.6
		l7.8,8.4v1.2c0,0.6-0.2,0.8-0.8,0.8l-7.8-8.2v-1.2C798.9,216.8,799.3,216.6,799.7,216.6z M798.9,221.6h0.4c0.4,0,3.2,2.8,8.2,8.4
		v1.6h-0.4c-0.4,0-3-2.8-8.2-8.2V221.6z M798.9,226.4h0.4c0.4,0,3.2,2.8,8.2,8.4v1.2c0,0.6-0.2,0.8-0.8,0.8l-7.8-8.6L798.9,226.4
		L798.9,226.4z M799.7,231.2l7.2,7.6v0.4h-2c-0.4,0-2.2-2-6-6V232C798.9,231.4,799.3,231.2,799.7,231.2z M798.9,236.4h0.4
		c0.4,0,1.2,0.8,2.4,2.4v0.4h-1.6c-0.4,0-0.8-0.4-1.2-1.2L798.9,236.4L798.9,236.4z M799.7,256.2c0.4,0,3,2.6,7.8,7.8v1.2
		c0,0.6-0.2,0.8-0.8,0.8l-7.8-8.4v-0.8C798.9,256.4,799.3,256.2,799.7,256.2z M799.7,260.6l7.8,8.2v2h-0.4c-0.4,0-3-2.8-8.2-8.4
		v-1.2C798.9,260.8,799.3,260.6,799.7,260.6z M798.9,265.8h0.4c0.4,0,3.2,2.8,8.2,8.2v1.6h-0.4c-0.4,0-3-2.8-8.2-8.2V265.8z
		 M798.9,270.4h0.4c0.4,0,3.2,2.8,8.2,8.4v1.2c0,0.6-0.2,0.8-0.8,0.8l-7.8-8.2L798.9,270.4L798.9,270.4z M799.7,275.2l7.8,8.4v1.2
		c0,0.6-0.2,0.8-0.8,0.8l-7.8-8.2v-1.2C798.9,275.4,799.3,275.2,799.7,275.2z M798.9,280.4h0.4c0.4,0,2,1.6,4.8,4.8v0.4h-1.6
		c-0.4,0-1.6-1.2-3.6-3.6L798.9,280.4L798.9,280.4z M799.7,213.8h1.6c0.4,0,3,2.6,8,7.8v0.4h-1.8c-0.4,0-3-2.6-7.8-7.8V213.8z
		 M799.7,302.2h2c0.4,0,3,2.6,8,8v0.4h-2c-0.4,0-3-2.6-7.8-7.8v-0.6H799.7z M802.9,256.2h1.6c0.4,0,3,2.6,7.8,7.8v0.4h-1.6
		c-0.4,0-3-2.6-7.8-7.8V256.2z M804.5,213.8h1.6c0.4,0,3,2.6,8,7.8v0.4h-1.6c-0.4,0-3-2.6-7.8-7.8v-0.4H804.5z M804.9,302.2h1.6
		c0.4,0,3,2.6,8,8v0.4h-1.6c-0.4,0-3-2.6-7.8-7.8v-0.6H804.9z M807.5,256.2h1.6c0.4,0,3.2,2.6,8.2,7.8v0.4h-2c-0.4,0-3-2.6-8-7.8
		v-0.4H807.5z M809.3,213.8h2c0.4,0,3,2.6,8,7.8v0.4h-2c-0.4,0-3-2.6-7.8-7.8v-0.4H809.3z M809.7,302.2h2c0.4,0,3,2.6,8,8v0.4h-2
		c-0.4,0-3-2.6-7.8-7.8v-0.6H809.7z M812.7,256.2h1.6c0.4,0,3,2.6,7.8,7.8v0.4h-2c-4.8-4.2-7.2-7-7.6-7.8v-0.4H812.7z M814.3,213.8
		h1.6c0.4,0,3,2.6,8,7.8v0.4h-1.6c-0.4,0-3-2.6-7.8-7.8v-0.4H814.3z M814.3,302.2h2c0.4,0,3,2.6,8,8v0.4h-2c-0.4,0-3-2.6-7.8-7.8
		v-0.6H814.3z M817.5,256.2h1.6c0.4,0,3,2.6,7.8,7.8v0.4h-1.4c-0.4,0-3-2.6-8-7.8V256.2z M818.7,246.2h0.4c0.4,0,3,2.8,8.2,8.2v1.2
		c0,0.6-0.2,0.8-0.8,0.8c0-0.4-2.6-3.4-7.8-8.8L818.7,246.2L818.7,246.2z M819.5,251l7.8,8.2v1.2c0,0.6-0.2,0.8-0.8,0.8l-7.8-8.4
		v-1.2C818.7,251.4,819.1,251,819.5,251z M819.1,213.8h2c0.4,0,2.8,2.6,7.6,7.6h0.4v0.8h-2c-0.4,0-3-2.6-7.8-7.8v-0.6H819.1z
		 M819.5,302.2h1.6c0.4,0,3,2.6,7.8,8v0.4h-1.4c-0.4,0-3-2.6-7.8-7.8v-0.6H819.5z M823.9,213.8h2c0.4,0,3,2.6,7.8,7.8v0.4h-2
		c-0.4,0-3-2.6-7.8-7.8V213.8z M824.3,302.2h2c0.4,0,3,2.6,7.8,8v0.4h-2c-0.4,0-3-2.6-7.8-7.8V302.2z M825.9,201h0.4
		c0.4,0,3,2.6,7.8,8v0.4h-0.4c-0.4,0-3-2.6-7.8-7.8V201z M825.9,204.2h0.4c0.4,0,3,2.6,7.8,8v2h-0.4c-0.4,0-3-2.6-7.8-8V204.2z
		 M825.9,209.4h0.4c0.4,0,3,2.6,7.8,7.8v1.6h-0.4c-0.4,0-3-2.6-7.8-8V209.4z M827.5,289.4h0.4c0.4,0,3,2.6,8,8v1.6h-0.4
		c-0.4,0-3-2.6-8-8V289.4z M827.5,294.2h0.4c0.4,0,3,2.6,8,7.8v1.6h-0.4c-0.4,0-3-2.6-8-8V294.2z M827.5,299h0.4c0.4,0,3,2.6,8,7.8
		v2h-0.4c-0.4,0-3-2.6-8-8V299z"/>
	<path class="st0" d="M865.9,198.6c6,0,10.4,3.4,13.2,10c0.6,1,0.8,2.6,0.8,4.4v14c0,0.6-0.2,0.8-0.8,0.8h-12
		c-0.6,0-0.8-0.2-0.8-0.8v-10.8c-0.4-3-1.8-4.4-4.4-4.4h-7.8c-3,0.4-4.4,1.8-4.4,4.4v14.2c0,2,4.2,5.2,12.6,9.4
		c11.4,6.4,17.2,11.2,17.2,14.6l0.4,2.4V287c0,5.6-3.6,9.8-10.8,12.8c-1,0.2-2.2,0.4-3.2,0.4h-15.8c-6.6,0-11.2-4-14-12v-23.8
		c0.2-0.6,0.4-0.8,0.8-0.8h12c0.6,0.2,0.8,0.4,0.8,0.8v18.2c0.4,3,1.8,4.4,4.4,4.4h7.6c3.2-0.2,4.8-1.8,4.8-4.4v-22.6
		c0-2-4-5-11.8-8.8c-11.4-6.6-17.2-11.2-17.6-14c-0.6-1.8-0.8-3.4-0.8-4.8v-19.8c0-6.8,4-11.6,11.8-14.2h17.8V198.6z M846.5,301.8
		h1.2c0.4,0,2.6,2.2,6.8,6.8v0.4C853.5,309,850.7,306.6,846.5,301.8z M848.1,249.8h0.8c0.6,0,2.4,1.6,5.2,4.6h-0.8
		C852.7,254.4,850.9,253,848.1,249.8z M850.9,302.2h2c0.4,0,3,2.6,8,8v0.4h-2c-0.4,0-3-2.6-8-8V302.2z M851.7,218h0.4
		c0.4,0,3,2.6,8,8v2h-0.4c-0.4,0-3-2.6-8-8V218z M851.7,222.8h0.4c0.4,0,3,2.6,8,8v2h-0.4c-0.4,0-3-2.6-8-8V222.8z M851.7,228h0.4
		c0.4,0,3,2.6,8,8c-0.2,0-0.4,0.2-0.4,0.4c-2-0.6-4.6-3-8-6.8V228z M851.7,267.2h0.4c0.4,0,3,2.6,8,8v1.6h-0.4c-0.4,0-3-2.6-8-8
		V267.2z M851.7,272h0.4c0.4,0,3,2.6,8,8v1.6h-0.4c-0.4,0-3-2.6-8-8V272z M851.7,276.8h0.4c0.4,0,3,2.6,8,8c0,0.6-0.4,0.8-1.2,0.8
		c-0.8,0-3.2-2.2-7.2-6.8L851.7,276.8L851.7,276.8z M851.7,282h0.4c0.4,0,1.4,1,2.8,2.8v0.4h-1.6c-0.4,0-1-0.6-1.6-1.6L851.7,282
		L851.7,282z M852.9,214c0.4,0,3.2,3,8.8,8.8c0,0.6-0.2,0.8-0.8,0.8h-0.4c-0.4,0-3.2-2.8-8.4-8.4v-0.4
		C852.1,214.2,852.3,214,852.9,214z M855.7,213.6h2c0.4,0,2.6,2.2,6.8,6.8v1.6h-1c-0.4,0-3-2.6-8-8v-0.4H855.7z M856.1,302.2h1.6
		c0.4,0,3,2.6,8,8v0.4h-1.6c-0.4,0-3-2.6-8-8V302.2z M857.9,255.8h0.8c3.2,1.8,5,3,5.6,4v0.4l-0.4,0.8
		C862.5,260.4,860.5,258.6,857.9,255.8z M860.3,213.6h2c0.4,0,1,0.6,2,2v2h-0.4c-0.4,0-1.6-1.2-3.6-3.6V213.6z M860.7,302.2h2
		c0.4,0,3,2.6,8,8v0.4h-2c-0.4,0-3-2.6-8-8V302.2z M867.5,301.8l8,8.4v0.4h-2c-0.4,0-3-2.6-8-8v-0.4L867.5,301.8z M871.5,301
		l8.4,8.8v0.4h-1.6c-0.4,0-3.2-2.8-8.4-8.4v-0.4C870.1,301.4,870.5,301.2,871.5,301z M871.9,229h1.2c0.4,0,3,2.8,8.2,8.4l-0.8,0.4
		h-1c-0.4,0-3.2-2.8-8.4-8.4L871.9,229z M874.3,299.4h0.4c0.4,0,3.2,3,8.8,8.8l-1.2,0.8H882c-0.4,0-3.2-3-8.6-8.8L874.3,299.4z
		 M876.7,229h1.2c0.4,0,3,2.8,8.2,8.4v0.4h-2c-0.4,0-3.2-2.8-8.4-8.4L876.7,229z M877.1,297.4h0.4c0.4,0,3.2,2.8,8.4,8.4v0.4
		c0,0.6-0.2,0.8-0.8,0.8l-9.2-8.8L877.1,297.4z M879.5,294.6c0.4,0,3.2,3,8.8,8.8c0,0.4-0.4,0.8-1.2,1.2l-8.2-8.8v-0.4
		C878.7,295,878.9,294.6,879.5,294.6z M881.5,291l8.4,8.8c-0.4,1-0.8,1.6-1.2,1.6l-8.4-8.8v-0.4C880.3,291.8,880.7,291.4,881.5,291z
		 M882.7,228.8l7.6,8v0.4c0,0.6-0.2,0.8-0.8,0.8c-0.4,0-3.2-2.8-8.4-8.4v-0.4L882.7,228.8z M881.5,208.8c4.8,4,7.2,7,7.2,8.8
		c-0.4,0-2.8-2.4-7.2-7.2V208.8z M881.5,254.4h0.4c0.4,0,2,1.6,4.8,4.8v0.4C886.1,259.8,884.5,258,881.5,254.4z M882.1,287l8,8.4
		v1.6h-0.4c-0.4,0-3.2-2.8-8.4-8.2V288C881.5,287.4,881.7,287,882.1,287z M881.7,214h0.4c0.4,0,3,2.6,8,8v1.6h-0.4
		c-0.4,0-3-2.6-8-7.8V214z M881.7,218.8h0.4c0.4,0,3,2.6,8,8v1.2c0,0.6-0.2,0.8-0.8,0.8c-5-5.2-7.6-8-7.6-8.4V218.8z M881.7,223.6
		h0.4c0.4,0,3,2.6,8,8v2h-0.4c-0.4,0-3-2.6-8-7.8V223.6z M881.7,258h0.4c5.4,4.6,8,7.6,8,9.2v0.4h-0.4c-0.4,0-3-2.6-8-7.8V258z
		 M881.7,262.8h0.4c0.4,0,3,2.6,8,8v2h-0.4c-0.4,0-3-2.6-8-7.8V262.8z M881.7,267.6h0.4c0.4,0,3,2.6,8,8v2h-0.4c-0.4,0-3-2.6-8-7.8
		V267.6z M881.7,272.8h0.4c0.4,0,3,2.6,8,8v1.6h-0.4c-0.4,0-3-2.6-8-7.8V272.8z M881.7,277.6h0.4c0.4,0,3,2.6,8,8v2h-0.4
		c-0.4,0-3-2.6-8-7.8V277.6z M881.7,282.6h0.4c0.4,0,3,2.6,8,8v1.6h-0.4c-0.4,0-3-2.6-8-7.8V282.6z"/>
	<path class="st0" d="M941.1,198.6h38.6c0.6,0.2,0.8,0.4,0.8,0.8V211c0,0.6-0.2,0.8-0.8,0.8h-25.8v29.4h19c0.6,0,0.8,0.4,0.8,0.8
		v11.4c0,0.6-0.2,0.8-0.8,0.8h-19v45.4c0,0.6-0.2,0.8-0.8,0.8h-12c-0.6,0-0.8-0.2-0.8-0.8v-100C940.5,198.8,940.7,198.6,941.1,198.6
		z M942.7,302.2h0.8c0.4,0,3,2.6,7.8,8v0.4h-0.8c-0.4,0-3-2.6-8-8v-0.4H942.7z M947.1,302.2h1.2c0.4,0,3,2.6,7.8,8v0.4h-2
		c-0.4,0-3-2.6-8-8L947.1,302.2z M951.5,302.2h1.6c0.4,0,3,2.6,7.8,8v0.4h-1.6c-0.4,0-3-2.6-8-8v-0.4H951.5z M956.1,216.4
		c0,0.4,2.6,3.2,8,8.2v2h-0.4c-5.6-4.8-8.4-8.2-8.4-10L956.1,216.4z M956.1,221.6l8,8.2v1.6h-0.4c-0.4,0-3.2-2.8-8.4-8.4v-0.8
		C955.5,221.8,955.7,221.6,956.1,221.6z M956.1,226.4l8,8.2v2h-0.4c-5.6-4.8-8.4-8-8.4-9.6C955.5,226.6,955.7,226.4,956.1,226.4z
		 M956.1,231.2l7.2,7.6v0.4h-2c-4-3.2-6-5.6-6-7.2C955.5,231.4,955.7,231.2,956.1,231.2z M956.1,236.2l2,2.4v0.4h-1.6
		c-0.8-0.2-1.2-1-1.2-2.4L956.1,236.2z M956.1,256.2c0.4,0,3,2.6,8,7.8v2h-0.4c-5.6-4.8-8.4-8-8.4-9.6L956.1,256.2z M956.1,260.6
		l8,8.2v2h-0.4c-0.4,0-3.2-2.8-8.4-8.4v-1.2C955.5,260.8,955.7,260.6,956.1,260.6z M956.1,265.6l8,8.2v1.6h-0.4
		c-5.6-4.8-8.4-8-8.4-9.6L956.1,265.6z M956.1,270.4l8,8.2v2h-0.4c-5.6-4.8-8.4-8-8.4-9.6C955.5,270.6,955.7,270.4,956.1,270.4z
		 M955.3,275.6h0.4c0.4,0,3.2,2.8,8.4,8.4v1.6h-0.4c-0.4,0-3.2-2.8-8.4-8.4V275.6z M956.1,280.4l8,8.4v1.6h-0.4
		c-0.4,0-3.2-2.8-8.4-8.4l0.4-0.8c-0.2,0-0.4-0.2-0.4-0.4L956.1,280.4z M956.1,285.2l8,8.2v2h-0.4c-5.6-4.8-8.4-8-8.4-9.6
		C955.5,285.4,955.7,285.2,956.1,285.2z M956.1,290.2l8,8.4v1.6h-0.4c-0.4,0-3.2-2.8-8.4-8.4V291
		C955.5,290.6,955.7,290.2,956.1,290.2z M956.1,295.4c0.4,0,3,2.6,8,8v1.6h-0.4c-0.4,0-3.2-2.8-8.4-8.4v-0.4
		C955.5,295.6,955.7,295.4,956.1,295.4z M956.1,299.8l8,8.4v2h-0.4c-0.4,0-3.2-2.8-8.4-8.4v-1.2C955.5,300,955.7,299.8,956.1,299.8z
		 M956.1,213.6h1.6c0.4,0,3,2.6,7.8,8v0.4h-1.6C958.9,217.6,956.1,214.8,956.1,213.6z M959.3,256.2h1.6c0.4,0,3,2.6,8,7.8v0.4h-1.6
		c-0.4,0-3-2.6-8-8V256.2z M960.9,213.6h1.6c0.4,0,3,2.6,7.8,8v0.4h-1.6c-0.4,0-3-2.6-8-8v-0.4H960.9z M964.1,256.2h2
		c0.4,0,3,2.6,8,7.8v0.4h-2c-0.4,0-3-2.6-8-8V256.2z M965.7,213.6h2c5.2,5,7.8,7.6,7.8,8v0.4h-2c-0.4,0-3-2.6-8-8v-0.4H965.7z
		 M968.9,256.2h2c0.4,0,3,2.6,8,7.8v0.4h-2c-0.4,0-3-2.6-8-8V256.2z M970.5,213.6h2c0.4,0,3,2.6,7.8,8v0.4h-2c-0.4,0-3-2.6-8-8v-0.4
		H970.5z M974.1,256.2h1.6c0.4,0,3,2.6,8,7.8v0.4h-1.6c-0.4,0-3-2.6-8-8V256.2z M976.1,246.2l8,8.2v2h-0.6c-5.6-4.8-8.4-8-8.4-9.6
		C975.3,246.4,975.5,246.2,976.1,246.2z M976.1,251l8,8.2v2h-0.6c-0.4,0-3.2-2.8-8.4-8.4v-1.2C975.3,251.2,975.5,251,976.1,251z
		 M975.7,213.6h1.6c0.4,0,3,2.6,7.8,8v0.4h-1.6c-0.4,0-3-2.6-8-8v-0.4H975.7z M975.7,243.4h0.4c0.4,0,2.8,2.6,7.6,7.6v0.4
		C983.3,251.4,980.5,248.8,975.7,243.4z M980.3,213.6h2c0.4,0,3,2.6,7.8,8v0.4h-2c-0.4,0-3-2.6-8-8v-0.4H980.3z M982.5,200.8h0.4
		c0.4,0,3,2.6,7.8,8v0.4h-0.4c-0.4,0-3-2.6-7.8-7.8V200.8z M982.5,204.4h0.4c0.4,0,3,2.6,7.8,8v1.6h-0.4c-0.4,0-3-2.6-7.8-7.8V204.4
		z M982.5,209.2h0.4c0.4,0,3,2.6,7.8,8v1.6h-0.4c-0.4,0-3-2.6-7.8-7.8V209.2z"/>
	<path class="st0" d="M993.1,198.6h12c0.6,0.2,0.8,0.4,0.8,0.8v100c0,0.6-0.2,0.8-0.8,0.8h-12c-0.6,0-0.8-0.2-0.8-0.8v-100
		C992.5,198.8,992.7,198.6,993.1,198.6z M994.7,302.2h2c0.4,0,3,2.6,8,8v0.4h-2c-0.4,0-3-2.6-8-8V302.2z M1000.3,302.2h1.2
		c0.4,0,3,2.6,8,8v0.4h-2c-0.4,0-3-2.6-8-8L1000.3,302.2z M1004.7,302.2h1.6c0.4,0,3,2.6,7.8,8v0.4h-1.6c-0.4,0-3-2.6-7.8-8V302.2z
		 M1007.9,200.8h0.4c0.4,0,3,2.6,8,8v2h-0.4c-0.4,0-3-2.6-8-8V200.8z M1007.9,206.2h0.4c0.4,0,3,2.6,8,7.8v1.6h-0.4
		c-0.4,0-3-2.6-8-8V206.2z M1007.9,210.8h0.4c0.4,0,3,2.6,8,7.8v2h-0.4c-5.4-5-8-8-8-9.2V210.8z M1007.9,215.6h0.4
		c0.4,0,3,2.6,8,7.8v2h-0.4c-0.4,0-3-2.6-8-8V215.6z M1007.9,220.8h0.4c0.4,0,3,2.6,8,7.8v1.6h-0.4c-0.4,0-3-2.6-8-8V220.8z
		 M1007.9,225.6h0.4c0.4,0,3,2.6,8,7.8v2h-0.4c-0.4,0-3-2.6-8-8V225.6z M1007.9,230.4h0.4c0.4,0,3,2.6,8,7.8v2h-0.4
		c-0.4,0-3-2.6-8-8V230.4z M1007.9,235.6h0.4c0.4,0,3,2.6,8,7.8v1.6h-0.4c-0.4,0-3-2.6-8-8V235.6z M1007.9,240.2h0.4
		c0.4,0,3,2.6,8,7.8v2h-0.4c-0.4,0-3-2.6-8-8V240.2z M1007.9,245h0.4c0.4,0,3,2.6,8,7.8v2h-0.4c-0.4,0-3-2.6-8-8V245z M1007.9,250.2
		h0.4c0.4,0,3,2.6,8,7.8v1.6h-0.4c-0.4,0-3-2.6-8-8V250.2z M1007.9,255h0.4c0.4,0,3,2.6,8,7.8v2h-0.4c-0.4,0-3-2.6-8-8V255z
		 M1008.7,259.8l7.6,7.8v2h-0.4c-0.4,0-3-2.6-8-8v-1C1007.9,260,1008.3,259.8,1008.7,259.8z M1007.9,264.8h0.4c0.4,0,3,2.6,8,7.8
		v1.6h-0.4c-0.4,0-3-2.6-8-8V264.8z M1007.9,269.6h0.4c0.4,0,3,2.6,8,7.8v2h-0.4c-0.4,0-3-2.6-8-8V269.6z M1007.9,274.8h0.4
		c0.4,0,3,2.6,8,7.8v1.6h-0.4c-0.4,0-3-2.6-8-8V274.8z M1007.9,279.6h0.4c0.4,0,3,2.6,8,7.8v1.6h-0.4c-0.4,0-3-2.6-8-8V279.6z
		 M1007.9,284.4h0.4c0.4,0,3,2.6,8,7.8v2h-0.4c-0.4,0-3-2.6-8-8V284.4z M1007.9,289.4h0.4c0.4,0,3,2.6,8,7.8v1.6h-0.4
		c-0.4,0-3-2.6-8-8V289.4z M1007.9,294.2h0.4c0.4,0,3,2.6,8,7.8v1.6h-0.4c-0.4,0-3-2.6-8-8V294.2z M1007.9,299h0.4
		c0.4,0,3,2.6,8,7.8v2h-0.4c-0.4,0-3-2.6-8-8V299z"/>
	<path class="st0" d="M1063.9,287.2h0.2v12.2c0,0.6-0.2,0.8-0.8,0.8h-39.2c-0.6,0-0.8-0.2-0.8-0.8v-100c0.2-0.6,0.4-0.8,0.8-0.8
		h11.8c0.6,0.2,0.8,0.4,0.8,0.8v87.2h27v0.6H1063.9z M1026.3,301.8h1.2c0.4,0,3,2.8,8.2,8.2l-0.8,0.4h-1.2c-0.4,0-3-2.8-8.2-8.2
		L1026.3,301.8z M1031.1,301.8h1.2c0.4,0,3.2,2.8,8.2,8.2v0.4h-2c-0.4,0-3.2-2.8-8.2-8.2L1031.1,301.8z M1035.3,301.8h1.6
		c0.4,0,3.2,2.8,8.2,8.2v0.4h-1.6c-0.4,0-3.2-2.8-8.2-8.2V301.8z M1039.3,201l7.8,8.4v2h-0.4c-0.4,0-3-2.8-8.2-8.2V202
		C1038.7,201.4,1038.9,201,1039.3,201z M1038.5,206.2h0.4c0.4,0,3.2,2.8,8.2,8.2v1.6h-0.4c-0.4,0-3-2.8-8.2-8.2V206.2z M1039.3,211
		l7.8,8.2v1.2c0,0.6-0.2,0.8-0.8,0.8l-7.8-8.2v-1.2C1038.7,211.2,1038.9,211,1039.3,211z M1039.3,215.6c0,0.4,2.6,3.2,7.8,8.4v2
		h-0.4c-0.4,0-3-2.8-8.2-8.2v-1.2C1038.7,216,1038.9,215.6,1039.3,215.6z M1038.5,220.8h0.4c0.4,0,3.2,2.8,8.2,8.2v1.6h-0.4
		c-0.4,0-3-2.8-8.2-8.4V220.8z M1039.3,225.6l7.8,8.2v1.2c0,0.6-0.2,0.8-0.8,0.8l-7.8-8.2v-1.2
		C1038.7,225.8,1038.9,225.6,1039.3,225.6z M1038.5,230.8h0.4c0.4,0,3.2,2.8,8.2,8.2v1.6h-0.4c-0.4,0-3-2.8-8.2-8.2V230.8z
		 M1038.5,235.4h0.4c0.4,0,3.2,2.8,8.2,8.2v1.6h-0.4c-0.4,0-3-2.8-8.2-8.4V235.4z M1039.3,240.2l7.8,8.2v2h-0.4
		c-0.4,0-3-2.8-8.2-8.2V241C1038.7,240.4,1038.9,240.2,1039.3,240.2z M1038.5,245.4h0.4c0.4,0,3.2,2.8,8.2,8.2v1.6h-0.4
		c-0.4,0-3-2.8-8.2-8.2V245.4z M1038.5,250h0.4c0.4,0,3.2,2.8,8.2,8.4v1.2c0,0.6-0.2,0.8-0.8,0.8l-7.8-8.2L1038.5,250L1038.5,250z
		 M1039.3,254.8l7.8,8.2v2h-0.4c-0.4,0-3-2.8-8.2-8.2v-1.2C1038.7,255,1038.9,254.8,1039.3,254.8z M1038.5,260h0.4
		c0.4,0,3.2,2.8,8.2,8.2v1.6h-0.4c-0.4,0-3-2.8-8.2-8.2V260z M1038.5,264.6h0.4c0.4,0,3.2,2.8,8.2,8.4v1.2c0,0.6-0.2,0.8-0.8,0.8
		l-7.8-8.2L1038.5,264.6L1038.5,264.6z M1039.3,269.4l7.8,8.2v2h-0.4c-0.4,0-3-2.8-8.2-8.4V270
		C1038.7,269.6,1038.9,269.4,1039.3,269.4z M1038.5,274.6h0.4c0.4,0,3.2,2.8,8.2,8.2v1.6h-0.4c-0.4,0-3-2.8-8.2-8.2V274.6z
		 M1038.5,279.4h0.4c0.4,0,2.2,1.8,5.6,5.4v0.4h-2c-0.4,0-1.6-1.4-4-4V279.4z M1039.3,284l0.4,0.8v0.4h-0.4c-0.6,0-0.8-0.2-0.8-0.8
		L1039.3,284z M1040.1,301.8h0.8c1.6,0,4.6,2.8,9.6,8.2l-0.8,0.4h-1.2c-0.4,0-3.2-2.8-8.4-8.2V301.8z M1045.7,301.8h1.2
		c0.4,0,3.2,2.8,8.4,8.2v0.4h-2c-0.4,0-3.2-2.8-8.2-8.2L1045.7,301.8z M1049.9,301.8h1.6c0.4,0,3.2,2.8,8.2,8.2v0.4h-1.6
		c-0.4,0-3.2-2.8-8.2-8.2V301.8z M1055.5,301.8h1.2c0.4,0,3.2,2.8,8.2,8.2l-0.8,0.4h-1.2c-0.4,0-3.2-2.8-8.4-8.2L1055.5,301.8z
		 M1060.3,301.8h1.2c0.4,0,3.2,2.8,8.4,8.2v0.4h-2c-0.4,0-3-2.8-8.2-8.2L1060.3,301.8z M1064.7,301.8h1.6c0.4,0,3.2,2.8,8.2,8.2
		l-0.8,0.4h-0.8c-0.4,0-3.2-2.8-8.2-8.2L1064.7,301.8L1064.7,301.8z M1065.7,292h0.4c0.4,0,3.2,2.8,8.2,8.4v1.2
		c0,0.6-0.2,0.8-0.8,0.8l-7.8-8.2L1065.7,292L1065.7,292z M1066.5,296.6l7.8,8.2v1.2c0,0.6-0.2,0.8-0.8,0.8l-7.8-8.2v-1.2
		C1065.9,297,1066.1,296.6,1066.5,296.6z"/>
	<path class="st0" d="M1076.7,198.8h13.4c0.8,0,4,8,9,24c0.6,0.6,3.6,9,9.2,25h0.4c11.4-32.6,17.2-49,17.8-49h13.8
		c0.6,0.2,0.8,0.4,0.8,0.8v100c0,0.6-0.2,0.8-0.8,0.8h-11.8c-0.6,0-0.8-0.2-0.8-0.8v-64.4h-0.4c-11.4,32.8-17.6,50.2-19,52.2h-0.4
		l-18.2-52.2h-0.4v64.4c0,0.6-0.2,0.8-0.8,0.8h-11.8c-0.6,0-0.8-0.2-0.8-0.8v-100C1075.9,199,1076.3,198.8,1076.7,198.8z
		 M1078.1,301.8h0.4c0.4,0,3.2,2.8,8.4,8.2v0.4h-0.4c-0.4,0-3.2-2.8-8.4-8.2V301.8z M1081.7,301.8h1.6c0.4,0,3.2,2.8,8.2,8.2v0.4
		h-1.6c-0.4,0-3.2-2.8-8.2-8.2V301.8z M1086.5,301.8h0.8c1.6,0,4.6,2.8,9.4,8.2l-0.8,0.4h-1.2c-0.4,0-3.2-2.8-8.2-8.2L1086.5,301.8
		L1086.5,301.8z M1091.7,275.4l7.8,8.2v2h-0.4c-5.6-4.8-8.2-8-8.2-9.8L1091.7,275.4z M1091.3,246.6c0.8,0.2,1.2,1.2,1.2,3.2
		c-0.4,0-0.8-0.4-1.2-1.2V246.6z M1091.3,251.6h0.4c2.4,1.6,3.6,3.4,3.6,5.4c-0.4,0-1.6-1.4-4-4V251.6z M1091.3,256.4h0.4
		c4.2,3.4,6.4,6.2,6.4,8.2h-0.6c-0.4,0-2.4-2-6.4-6.2v-2H1091.3z M1091.3,261.2h0.4c0.4,0,3,2.6,7.8,7.8v2h-0.4
		c-0.4,0-3-2.6-7.8-7.8V261.2z M1091.3,266.2h0.4c0.4,0,3,2.6,7.8,7.8v1.6h-0.4c-0.4,0-3-2.6-7.8-7.8V266.2z M1091.3,271h0.4
		c0.4,0,3,2.6,7.8,7.8v1.2c0,0.6-0.2,0.8-0.8,0.8l-7.6-7.8v-2H1091.3z M1091.3,280.8h0.4c0.4,0,3,2.6,7.8,7.8v1.6h-0.4
		c-0.4,0-3-2.6-7.8-7.8V280.8z M1091.3,285.6h0.4c0.4,0,3,2.6,7.8,8v2h-0.4c-0.4,0-3-2.6-7.8-7.8V285.6z M1091.3,290.4h0.4
		c0.4,0,3,2.6,7.8,7.8v2h-0.4c-0.4,0-3-2.6-7.8-8V290.4z M1091.3,295.6h0.4c0.4,0,3,2.6,7.8,7.8v1.6h-0.4c-0.4,0-3-2.6-7.8-7.8
		V295.6z M1091.3,300.2h0.4c0.4,0,3,2.6,7.8,7.8v2h-0.4c-0.4,0-3-2.6-7.8-7.8V300.2z M1096.1,207c5,4,7.6,7.4,7.6,10
		C1098.5,212.8,1096.1,209.6,1096.1,207z M1098.7,214.8c5,4.2,7.6,7.2,7.6,9.2v0.4C1101.3,220.2,1098.7,217.2,1098.7,214.8z
		 M1101.5,222.4c5,4.4,7.6,7.4,7.6,9.2h-0.4C1103.9,227.6,1101.5,224.6,1101.5,222.4z M1103.9,229.8h0.4c0.4,0,2.4,2.2,6.4,6.4v0.4
		c0,0.4-0.4,0.8-1.2,1.2C1105.7,234.4,1103.9,231.6,1103.9,229.8z M1106.7,237.4h0.8c0,0.4,0.6,1,2,2.4v0.4c0,0.4-0.4,0.8-1.2,1.2
		C1107.1,239.6,1106.7,238.4,1106.7,237.4z M1111.5,286c0.4,0,3.2,2.8,8.2,8.4v0.8c0,0.6-0.2,0.8-0.8,0.8l-8.2-8.6V287
		C1110.7,286.2,1110.9,286,1111.5,286z M1112.9,282l8.4,8.6v0.4c0,0.4-0.4,0.8-1.2,1.2l-8.2-8.6C1112.3,282.6,1112.7,282,1112.9,282
		z M1113.3,278.8h0.8c0.4,0,3.2,2.8,8.4,8.4v0.8c0,0.6-0.2,0.8-0.8,0.8c-0.4,0-3.2-2.8-8.4-8.2V278.8z M1114.7,275.4h0.8
		c0.4,0,3,2.8,8.2,8.2v1.2h-0.8c-0.4,0-3.2-2.8-8.2-8.2V275.4z M1116.9,271.4l8.2,8.8c-0.4,1-0.8,1.6-1.2,1.6l-8.2-8.6v-0.6
		C1115.7,272.2,1116.1,271.8,1116.9,271.4z M1118.1,267.8l7.6,7.8v2h-0.4c-0.4,0-3.2-2.8-8.2-8.2V269
		C1116.9,268.6,1117.3,268.2,1118.1,267.8z M1119.3,264.2l6.4,6.8v1.6h-0.4c-0.4,0-2.6-2.2-6.8-6.8V265
		C1118.7,264.6,1118.9,264.2,1119.3,264.2z M1120.5,260.8c0.4,0,2.2,1.8,5.2,5.2v2h-0.4c-0.4,0-2.2-1.8-5.6-5.6v-0.8
		C1119.7,261,1120.1,260.8,1120.5,260.8z M1121.3,257.2h0.4c0.4,0,1.6,1.4,4,4v1.6h-0.4c-0.4,0-1.8-1.4-4.4-4.2
		C1121.1,257.8,1121.3,257.4,1121.3,257.2z M1123.3,253.2l2.4,3.2v1.6h-0.4c-0.4,0-1.4-1-3.2-3.2
		C1122.5,253.8,1122.9,253.2,1123.3,253.2z M1123.7,250h0.8c0.4,0,0.8,0.4,1.2,1.2v2h-0.4c-0.4,0-1-0.6-1.6-1.6V250z M1124.9,247
		h0.8v1.2h-0.8V247z M1131.1,301.8h1.2l8.2,8.2l-0.8,0.4h-1.2c-0.4,0-3.2-2.8-8.2-8.2L1131.1,301.8z M1135.9,301.8h1.2
		c0.4,0,3.2,2.8,8.2,8.2l-0.8,0.4h-1c-0.2,0-3-2.8-8.4-8.2L1135.9,301.8z M1140.3,301.8h1.6c0.4,0,3.2,2.8,8.4,8.2v0.4h-1.6
		c-0.4,0-3-2.8-8.2-8.2v-0.4H1140.3z M1143.5,201l7.8,8.4v1.2h-0.4c-0.4,0-3.2-2.8-8.2-8.2V202C1142.7,201.4,1142.9,201,1143.5,201z
		 M1142.7,205.4h0.4c0.4,0,3,2.8,8.2,8.2v1.6h-0.4c-0.4,0-3.2-2.8-8.2-8.2V205.4z M1143.5,210.2l7.8,8.2v1.2c0,0.6-0.2,0.8-0.8,0.8
		c-5.2-5.2-7.8-8.2-7.8-9.4C1142.7,210.4,1142.9,210.2,1143.5,210.2z M1143.5,214.8l7.8,8.4v2h-0.4c-0.4,0-3.2-2.8-8.2-8.2v-1.2
		C1142.7,215.2,1142.9,214.8,1143.5,214.8z M1142.7,220h0.4c0.4,0,3,2.8,8.2,8.2v1.6h-0.4c-0.4,0-3.2-2.8-8.2-8.2V220z
		 M1143.5,224.8l7.8,8.2v1.2c0,0.6-0.2,0.8-0.8,0.8c-5.2-5.2-7.8-8.2-7.8-9.4C1142.7,225,1142.9,224.8,1143.5,224.8z M1143.5,229.4
		l7.8,8.4v2h-0.4c-0.4,0-3.2-2.8-8.2-8.2v-1.2C1142.7,229.8,1142.9,229.4,1143.5,229.4z M1142.7,234.6h0.4c0.4,0,3,2.8,8.2,8.2v1.6
		h-0.4c-0.4,0-3.2-2.8-8.2-8.4V234.6z M1143.5,239.4l7.8,8.2v2h-0.4c-0.4,0-3.2-2.8-8.2-8.2v-1.2
		C1142.7,239.6,1142.9,239.4,1143.5,239.4z M1143.5,244.2l7.8,8.2v2h-0.4c-0.4,0-3.2-2.8-8.2-8.2V245
		C1142.7,244.4,1142.9,244.2,1143.5,244.2z M1142.7,249.2h0.4c0.4,0,3,2.8,8.2,8.2v1.6h-0.4c-0.4,0-3.2-2.8-8.2-8.4V249.2z
		 M1143.5,254l7.8,8.2v2h-0.4c-0.4,0-3.2-2.8-8.2-8.2v-1.2C1142.7,254.2,1142.9,254,1143.5,254z M1142.7,259.2h0.4
		c0.4,0,3,2.8,8.2,8.2v1.6h-0.4c-0.4,0-3.2-2.8-8.2-8.2V259.2z M1142.7,263.8h0.4c0.4,0,3,2.8,8.2,8.4v1.6h-0.4
		c-0.4,0-3.2-2.8-8.2-8.2V263.8z M1143.5,268.6l7.8,8.2v2h-0.4c-0.4,0-3.2-2.8-8.2-8.2v-1.2C1142.7,268.8,1142.9,268.6,1143.5,268.6
		z M1143.5,273.4l7.8,8.6v1.6h-0.4c-0.4,0-3.2-2.8-8.2-8.2v-1.2C1142.7,273.6,1142.9,273.4,1143.5,273.4z M1143.5,278.4l7.8,8.4v1.6
		h-0.4c-0.4,0-3.2-2.8-8.2-8.2v-0.8C1142.7,278.8,1142.9,278.4,1143.5,278.4z M1143.5,283.2l7.8,8.2v1.2c0,0.6-0.2,0.8-0.8,0.8
		l-7.8-8.4v-1.2C1142.7,283.4,1142.9,283.2,1143.5,283.2z M1142.7,288.4h0.4c0.4,0,3,2.8,8.2,8.2v1.6h-0.4c-0.4,0-3.2-2.8-8.2-8.2
		V288.4z M1143.5,293.2l7.8,8.2v1.2c0,0.6-0.2,0.8-0.8,0.8c-5.2-5.4-7.8-8.4-7.8-9V294C1142.7,293.4,1142.9,293.2,1143.5,293.2z
		 M1143.5,297.8c5.2,5.4,7.8,8.4,7.8,8.6v1.6h-0.4c-0.4,0-3.2-2.8-8.2-8.4v-1C1142.7,298.2,1142.9,297.8,1143.5,297.8z"/>
	<path class="st0" d="M1188.1,198.6c6,0,10.4,3.4,13.2,10c0.6,1,0.8,2.6,0.8,4.4v14c0,0.6-0.2,0.8-0.8,0.8h-12
		c-0.6,0-0.8-0.2-0.8-0.8v-10.8c-0.4-3-1.8-4.4-4.4-4.4h-7.8c-3,0.4-4.4,1.8-4.4,4.4v14.2c0,2,4.2,5.2,12.6,9.4
		c11.4,6.4,17.2,11.2,17.2,14.6l0.4,2.4V287c0,5.6-3.6,9.8-10.8,12.8c-1,0.2-2.2,0.4-3.2,0.4h-15.8c-6.6,0-11.2-4-14-12v-23.8
		c0.2-0.6,0.4-0.8,0.8-0.8h12c0.6,0.2,0.8,0.4,0.8,0.8v18.2c0.4,3,1.8,4.4,4.4,4.4h7.6c3.2-0.2,4.8-1.8,4.8-4.4v-22.6
		c0-2-4-5-11.8-8.8c-11.4-6.6-17.2-11.2-17.6-14c-0.6-1.8-0.8-3.4-0.8-4.8v-19.8c0-6.8,4-11.6,11.8-14.2h17.8V198.6z M1168.7,301.8
		h1.2c0.4,0,2.6,2.2,6.8,6.8v0.4C1175.7,309,1173.1,306.6,1168.7,301.8z M1170.3,249.8h0.8c0.6,0,2.4,1.6,5.2,4.6h-0.8
		C1174.9,254.4,1173.1,253,1170.3,249.8z M1173.1,302.2h2c0.4,0,3,2.6,8,8v0.4h-2c-0.4,0-3-2.6-8-8V302.2z M1173.9,218h0.4
		c0.4,0,3,2.6,8,8v2h-0.4c-0.4,0-3-2.6-8-8V218z M1173.9,222.8h0.4c0.4,0,3,2.6,8,8v2h-0.4c-0.4,0-3-2.6-8-8V222.8z M1173.9,228h0.4
		c0.4,0,3,2.6,8,8c-0.2,0-0.4,0.2-0.4,0.4c-2-0.6-4.6-3-8-6.8V228z M1173.9,267.2h0.4c0.4,0,3,2.6,8,8v1.6h-0.4c-0.4,0-3-2.6-8-8
		V267.2z M1173.9,272h0.4c0.4,0,3,2.6,8,8v1.6h-0.4c-0.4,0-3-2.6-8-8V272z M1173.9,276.8h0.4c0.4,0,3,2.6,8,8c0,0.6-0.4,0.8-1.2,0.8
		c-0.8,0-3.2-2.2-7.2-6.8L1173.9,276.8L1173.9,276.8z M1173.9,282h0.4c0.4,0,1.4,1,2.8,2.8v0.4h-1.6c-0.4,0-1-0.6-1.6-1.6V282z
		 M1175.1,214c0.4,0,3.2,3,8.8,8.8c0,0.6-0.2,0.8-0.8,0.8h-0.4c-0.4,0-3.2-2.8-8.4-8.4v-0.4C1174.3,214.2,1174.7,214,1175.1,214z
		 M1177.9,213.6h2c0.4,0,2.6,2.2,6.8,6.8v1.6h-0.8c-0.4,0-3-2.6-8-8V213.6z M1178.3,302.2h1.6c0.4,0,3,2.6,8,8v0.4h-1.6
		c-0.4,0-3-2.6-8-8V302.2z M1180.3,255.8h0.8c3.2,1.8,5,3,5.6,4v0.4l-0.4,0.8C1184.7,260.4,1182.7,258.6,1180.3,255.8z
		 M1182.7,213.6h2c0.4,0,1,0.6,2,2v2h-0.4c-0.4,0-1.6-1.2-3.6-3.6V213.6z M1183.1,302.2h2c0.4,0,3,2.6,8,8v0.4h-2c-0.4,0-3-2.6-8-8
		V302.2z M1189.7,301.8l8,8.4v0.4h-2c-0.4,0-3-2.6-8-8v-0.4L1189.7,301.8z M1193.7,301l8.4,8.8v0.4h-1.6c-0.4,0-3.2-2.8-8.4-8.4
		v-0.4C1192.3,301.4,1192.9,301.2,1193.7,301z M1194.1,229h1.2c0.4,0,3,2.8,8.2,8.4l-0.8,0.4h-1.2c-0.4,0-3.2-2.8-8.4-8.4
		L1194.1,229z M1196.5,299.4h0.4c0.4,0,3.2,3,8.8,8.8l-1.2,0.8h-0.4c-0.4,0-3.2-3-8.6-8.8L1196.5,299.4z M1198.9,229h1.2
		c0.4,0,3,2.8,8.2,8.4v0.4h-2c-0.4,0-3.2-2.8-8.4-8.4L1198.9,229z M1199.3,297.4h0.4c0.4,0,3.2,2.8,8.4,8.4v0.4
		c0,0.6-0.2,0.8-0.8,0.8l-9.2-8.8L1199.3,297.4z M1201.7,294.6c0.4,0,3.2,3,8.8,8.8c0,0.4-0.4,0.8-1.2,1.2l-8.2-8.8v-0.4
		C1200.9,295,1201.3,294.6,1201.7,294.6z M1203.7,291l8.4,8.8c-0.4,1-0.8,1.6-1.2,1.6l-8.4-8.8v-0.4
		C1202.5,291.8,1202.9,291.4,1203.7,291z M1204.9,228.8l7.6,8v0.4c0,0.6-0.2,0.8-0.8,0.8c-0.4,0-3.2-2.8-8.4-8.4v-0.4L1204.9,228.8z
		 M1203.7,208.8c4.8,4,7.2,7,7.2,8.8c-0.4,0-2.8-2.4-7.2-7.2V208.8z M1203.7,254.4h0.4c0.4,0,2,1.6,4.8,4.8v0.4
		C1208.5,259.8,1206.7,258,1203.7,254.4z M1204.5,287l8,8.4v1.6h-0.4c-0.4,0-3.2-2.8-8.4-8.2V288
		C1203.7,287.4,1204.1,287,1204.5,287z M1204.1,214h0.4c0.4,0,3,2.6,8,8v1.6h-0.4c-0.4,0-3-2.6-8-7.8V214z M1204.1,218.8h0.4
		c0.4,0,3,2.6,8,8v1.2c0,0.6-0.2,0.8-0.8,0.8c-5-5.2-7.6-8-7.6-8.4V218.8z M1204.1,223.6h0.4c0.4,0,3,2.6,8,8v2h-0.4
		c-0.4,0-3-2.6-8-7.8V223.6z M1204.1,258h0.4c5.4,4.6,8,7.6,8,9.2v0.4h-0.4c-0.4,0-3-2.6-8-7.8V258z M1204.1,262.8h0.4
		c0.4,0,3,2.6,8,8v2h-0.4c-0.4,0-3-2.6-8-7.8V262.8z M1204.1,267.6h0.4c0.4,0,3,2.6,8,8v2h-0.4c-0.4,0-3-2.6-8-7.8V267.6z
		 M1204.1,272.8h0.4c0.4,0,3,2.6,8,8v1.6h-0.4c-0.4,0-3-2.6-8-7.8V272.8z M1204.1,277.6h0.4c0.4,0,3,2.6,8,8v2h-0.4
		c-0.4,0-3-2.6-8-7.8V277.6z M1204.1,282.6h0.4c0.4,0,3,2.6,8,8v1.6h-0.4c-0.4,0-3-2.6-8-7.8V282.6z"/>
	<path class="st0" d="M674.8,390.8h28.6c8,0,12.8,5,14.2,15v71c0,8-4,13-11.8,15.4h-31c-0.6,0-0.8-0.2-0.8-0.8v-100
		C673.9,391,674.3,390.8,674.8,390.8z M676.3,494.2h0.4c0.4,0,3,2.6,7.8,8v0.4h-0.4c-0.4,0-3-2.6-8-7.8v-0.6H676.3z M679.9,494.2
		h1.6c0.4,0,3,2.6,8,8v0.4h-1.6c-0.4,0-3-2.6-8-7.8V494.2z M684.5,494.2h2c0.4,0,3,2.6,8,8v0.4h-2c-0.4,0-3-2.6-8-7.8V494.2z
		 M687.3,403.8v75.4h12.2c1.8,0,3-1,4-2.8v-68.6c0-2.4-1.6-3.6-4.8-4L687.3,403.8L687.3,403.8z M689.8,409l7.8,8.4v1.2
		c0,0.6-0.2,0.8-0.8,0.8l-7.8-8.2V410C688.9,409.2,689.3,409,689.8,409z M689.8,413.6l7.8,8.4v2h-0.4c-0.4,0-3-2.8-8.2-8.2v-1.2
		C688.9,414,689.3,413.6,689.8,413.6z M688.9,418.8h0.4c0.4,0,3.2,2.8,8.2,8.4v1.6h-0.4c-0.4,0-3-2.8-8.2-8.2V418.8z M689.8,423.6
		l7.8,8.4v2h-0.4c-0.4,0-3-2.8-8.2-8.2v-1.2C688.9,423.8,689.3,423.6,689.8,423.6z M689.8,428.4c0,0.4,2.6,3,7.6,7.6l0.4,0.8v2h-0.4
		c-0.4,0-3-2.8-8.2-8.4v-1.2C688.9,428.6,689.3,428.4,689.8,428.4z M689.8,433.6l7.8,8.4v1.6h-0.4c-0.4,0-3-2.8-8.2-8.4v-0.8
		C688.9,433.8,689.3,433.6,689.8,433.6z M689.8,438.2l7.8,8.2v2h-0.4c-0.4,0-3-2.8-8.2-8.4v-1.2
		C688.9,438.6,689.3,438.2,689.8,438.2z M688.9,443.4h0.4c0.4,0,3.2,2.8,8.2,8.2v1.6h-0.4c-0.4,0-3-2.8-8.2-8.4V443.4z M689.8,448.2
		l7.8,8.2v1.6h-0.4c-0.4,0-3-2.8-8.2-8.4v-0.8C688.9,448.4,689.3,448.2,689.8,448.2z M689.8,453l7.8,8.2v2h-0.4
		c-0.4,0-3-2.8-8.2-8.4v-1.2C688.9,453.2,689.3,453,689.8,453z M688.9,458.2h0.4c0.4,0,3.2,2.8,8.2,8.2v1.6h-0.4
		c-0.4,0-3-2.8-8.2-8.4V458.2z M689.8,462.8l7.8,8.2v1.6h-0.4c-5.6-4.6-8.2-7.6-8.2-9C688.9,463.2,689.3,462.8,689.8,462.8z
		 M689.8,467.6l7.8,8.4v0.8c0,0.6-0.2,0.8-0.8,0.8c-0.4,0-3-2.6-7.8-7.8v-1.2C688.9,467.8,689.3,467.6,689.8,467.6z M688.9,472.8
		h0.4c0.4,0,1.8,1.4,4.4,4.4v0.4h-1.6c-0.4,0-1.4-1-3.2-3.2L688.9,472.8L688.9,472.8z M689.3,405.8h1.6c0.4,0,3,2.6,8,7.8v0.4h-1.6
		c-0.4,0-3-2.6-7.8-7.8v-0.4H689.3z M689.3,494.2h2c0.4,0,3,2.6,8,8v0.4h-2c-0.4,0-3-2.6-7.8-7.8v-0.6H689.3z M694.1,405.8h2
		c0.4,0,2.2,2,6,6v2h-0.6c-0.4,0-2.8-2.6-7.6-7.6v-0.4H694.1z M694.5,494.2h1.6c0.4,0,3,2.6,8,8v0.4h-1.6c-0.4,0-3-2.6-7.8-7.8v-0.6
		H694.5z M698.9,405.8h1.6c0.4,0,1,0.6,1.6,1.6v1.6h-0.6c-0.4,0-1.2-1-2.8-2.8v-0.4H698.9z M699.3,494.2h2c0.4,0,3,2.6,8,8v0.4h-2
		c-0.4,0-3-2.6-7.8-7.8v-0.6H699.3z M705.9,493.8l8,8.4v0.4h-2c-0.4,0-3-2.6-7.8-7.8v-0.4L705.9,493.8z M708.3,493h1.2
		c0.4,0,3,2.8,8.2,8.4v0.8h-1.2c-0.4,0-3.2-2.8-8.4-8.4V493H708.3z M712.3,491h0.4c0.4,0,3.2,2.8,8.8,8.6c0,0.6-0.2,0.8-0.8,0.8
		h-0.8c-0.4,0-3.2-2.8-8.4-8.4v-0.4C711.8,491.2,711.9,491,712.3,491z M715.1,488.6c0.4,0,3.2,3,8.6,8.8v0.4c0,0.6-0.2,0.8-0.8,0.8
		s-3.6-2.8-9-8.6C713.9,489.4,714.3,489,715.1,488.6z M717.5,485.8l8.4,8.8v0.4c0,0.6-0.2,0.8-0.8,0.8c-0.4,0-3.2-3-8.8-8.8
		C716.3,486.6,716.8,486.2,717.5,485.8z M719.1,482.2l8.4,8.8v0.4c0,0.4-0.4,0.8-1.2,1.2l-8.4-8.8
		C718.3,482.8,718.8,482.2,719.1,482.2z M718.8,401h0.4c4,3.6,6,5.6,6,6.4v0.4c-0.4,0-2.6-2.2-6.4-6.4V401z M719.1,405h0.4
		c5.6,4.8,8.2,8,8.2,10h-0.4c-0.4,0-3.2-2.8-8.4-8.4V405H719.1z M719.1,409.8h0.4c0.4,0,3,2.8,8.2,8.2v1.2c0,0.6-0.2,0.8-0.8,0.8
		l-8-8.4v-1.8H719.1z M719.9,414.4l7.8,8.4v1.2c0,0.6-0.2,0.8-0.8,0.8l-8-8.2v-1.2C719.1,414.8,719.5,414.4,719.9,414.4z
		 M719.1,419.6h0.4c0.4,0,3,2.8,8.2,8.4v1.6h-0.4c-0.4,0-3.2-2.8-8.4-8.2v-1.8H719.1z M719.1,424.4h0.4c0.4,0,3,2.8,8.2,8.4v1.2
		c0,0.6-0.2,0.8-0.8,0.8l-8-8.2v-2.2H719.1z M719.9,429.2c5.2,5.2,7.8,8.2,7.8,9.6c0,0.6-0.2,0.8-0.8,0.8l-8-8.2v-1.2
		C719.1,429.4,719.5,429.2,719.9,429.2z M719.1,434.2h0.4c0.4,0,3,2.8,8.2,8.4v1.6h-0.4c-0.4,0-3.2-2.8-8.4-8.4v-1.6H719.1z
		 M719.1,439h0.4c0.4,0,3,2.8,8.2,8.4v1.2c0,0.6-0.2,0.8-0.8,0.8l-8-8.4v-2H719.1z M719.1,444.2h0.4c0.8,0,3.6,2.8,8.2,8.4v0.8
		c0,0.6-0.2,0.8-0.8,0.8l-8-8.4v-1.6H719.1z M719.1,449h0.4c0.4,0,3,2.8,8.2,8.4v1.6h-0.4c-0.4,0-3.2-2.8-8.4-8.4V449H719.1z
		 M719.1,453.8h0.4c0.4,0,3,2.8,8.2,8.2v1.2c0,0.6-0.2,0.8-0.8,0.8l-8-8.4v-1.8H719.1z M719.9,458.6c5.2,5.2,7.8,8.4,7.8,9.6v0.8
		h-0.4c-0.4,0-3.2-2.8-8.4-8.4v-1.2C719.1,458.8,719.5,458.6,719.9,458.6z M719.1,463.6h0.4c0.4,0,3,2.8,8.2,8.2v1.6h-0.4
		c-3.2-2.8-6-5.6-8.4-8.4v-1.4H719.1z M719.9,468.4l7.8,8.2v1.2c0,0.6-0.2,0.8-0.8,0.8l-8-8.4V469
		C719.1,468.8,719.5,468.4,719.9,468.4z M719.1,473.6h0.4c0.4,0,3,2.8,8.2,8.2v1.6h-0.4c-0.4,0-3.2-2.8-8.4-8.2v-1.6H719.1z
		 M719.1,478.2h0.4c0.4,0,3,2.8,8.2,8.4v1.2c0,0.6-0.2,0.8-0.8,0.8l-8-8.2v-2.2H719.1z"/>
	<path class="st0" d="M737.7,390.8h38.4c0.6,0.2,0.8,0.4,0.8,0.8V403c0,0.6-0.2,0.8-0.8,0.8h-25.8v29.4h19c0.6,0.2,0.8,0.4,0.8,0.8
		v11.4c0,0.6-0.2,0.8-0.8,0.8h-19v33h27.8c0.6,0,0.8,0.4,0.8,0.8v11.4c0,0.6-0.2,0.8-0.8,0.8h-40.4c-0.6,0-0.8-0.2-0.8-0.8v-100
		C737.1,391,737.3,390.8,737.7,390.8z M739.3,494.2h0.8c0.4,0,3,2.6,7.8,8v0.4h-0.8c-0.4,0-3-2.6-8-7.8v-0.6H739.3z M743.3,494.2
		h1.6c0.4,0,3,2.6,8,8v0.4h-1.6c-0.4,0-3-2.6-8-7.8V494.2z M748.1,494.2h2l8,8v0.4h-2c-0.4,0-3-2.6-8-7.8V494.2z M752.9,408.6
		l7.8,8.4v1.2c0,0.6-0.2,0.8-0.8,0.8l-7.8-8.2v-1.2C752.1,408.8,752.3,408.6,752.9,408.6z M752.1,413.6h0.4c0.4,0,3.2,2.8,8.2,8.4
		v1.6h-0.4c-0.4,0-3-2.8-8.2-8.2V413.6z M752.1,418.4h0.4c0.4,0,3.2,2.8,8.2,8.4v1.2c0,0.6-0.2,0.8-0.8,0.8l-7.8-8.6L752.1,418.4
		L752.1,418.4z M752.9,423.2l7.2,7.6v0.4h-2c-0.4,0-2.2-2-6-6V424C752.1,423.4,752.3,423.2,752.9,423.2z M752.1,428.4h0.4
		c0.4,0,1.2,0.8,2.4,2.4v0.4h-1.6c-0.4,0-0.8-0.4-1.2-1.2L752.1,428.4L752.1,428.4z M752.9,448.2c0.4,0,3,2.6,7.8,7.8v1.2
		c0,0.6-0.2,0.8-0.8,0.8l-7.8-8.4v-0.8C752.1,448.4,752.3,448.2,752.9,448.2z M752.9,452.6l7.8,8.2v2h-0.4c-0.4,0-3-2.8-8.2-8.4
		v-1.2C752.1,452.8,752.3,452.6,752.9,452.6z M752.1,457.8h0.4c0.4,0,3.2,2.8,8.2,8.2v1.6h-0.4c-0.4,0-3-2.8-8.2-8.2V457.8z
		 M752.1,462.4h0.4c0.4,0,3.2,2.8,8.2,8.4v1.2c0,0.6-0.2,0.8-0.8,0.8l-7.8-8.2L752.1,462.4L752.1,462.4z M752.9,467.2l7.8,8.4v1.2
		c0,0.6-0.2,0.8-0.8,0.8l-7.8-8.2v-1.2C752.1,467.4,752.3,467.2,752.9,467.2z M752.1,472.4h0.4c0.4,0,2,1.6,4.8,4.8v0.4h-1.6
		c-0.4,0-1.6-1.2-3.6-3.6L752.1,472.4L752.1,472.4z M752.9,405.8h1.6c0.4,0,3,2.6,8,7.8v0.4h-1.6c-0.4,0-3-2.6-7.8-7.8v-0.4H752.9z
		 M752.9,494.2h2c0.4,0,3,2.6,8,8v0.4h-2c-0.4,0-3-2.6-7.8-7.8v-0.6H752.9z M756.1,448.2h1.6c0.4,0,3,2.6,7.8,7.8v0.4h-1.6
		c-0.4,0-3-2.6-7.8-7.8V448.2z M757.7,405.8h1.6c0.4,0,3,2.6,8,7.8v0.4h-1.8c-0.4,0-3-2.6-7.8-7.8V405.8z M758.1,494.2h1.6
		c0.4,0,3,2.6,8,8v0.4h-1.6c-0.4,0-3-2.6-7.8-7.8v-0.6H758.1z M760.7,448.2h1.6c0.4,0,3.2,2.6,8.2,7.8v0.4h-2c-0.4,0-3-2.6-8-7.8
		v-0.4H760.7z M762.3,405.8h2c0.4,0,3,2.6,8,7.8v0.4h-2c-0.4,0-3-2.6-7.8-7.8v-0.4H762.3z M762.7,494.2h2c0.4,0,3,2.6,8,8v0.4h-2
		c-0.4,0-3-2.6-7.8-7.8v-0.6H762.7z M765.9,448.2h1.6c0.4,0,3,2.6,7.8,7.8v0.4h-2c-4.8-4.2-7.2-7-7.6-7.8v-0.4H765.9z M767.5,405.8
		h1.6c0.4,0,3,2.6,8,7.8v0.4h-1.6c-0.4,0-3-2.6-7.8-7.8v-0.4H767.5z M767.5,494.2h2c0.4,0,3,2.6,8,8v0.4h-2c-0.4,0-3-2.6-7.8-7.8
		v-0.6H767.5z M770.7,448.2h1.6c0.4,0,3,2.6,7.8,7.8v0.4h-1.6c-0.4,0-3-2.6-8-7.8v-0.4H770.7z M771.9,438.2h0.4c0.4,0,3,2.8,8.2,8.2
		v1.2c0,0.6-0.2,0.8-0.8,0.8c0-0.4-2.6-3.4-7.8-8.8L771.9,438.2L771.9,438.2z M772.7,443l7.8,8.2v1.2c0,0.6-0.2,0.8-0.8,0.8
		l-7.8-8.4v-1.2C771.9,443.4,772.3,443,772.7,443z M772.3,405.8h2c0.4,0,2.8,2.6,7.6,7.6h0.4v0.8h-2c-0.4,0-3-2.6-7.8-7.8v-0.6
		H772.3z M772.7,494.2h1.6c0.4,0,3,2.6,7.8,8v0.4h-1.6c-0.4,0-3-2.6-7.8-7.8V494.2z M777.1,405.8h2c0.4,0,3,2.6,7.8,7.8v0.4h-2
		c-0.4,0-3-2.6-7.8-7.8V405.8z M777.5,494.2h2c0.4,0,3,2.6,7.8,8v0.4h-2c-0.4,0-3-2.6-7.8-7.8V494.2z M779.1,393h0.4
		c0.4,0,3,2.6,7.8,8v0.4h-0.4c-0.4,0-3-2.6-7.8-7.8V393z M779.1,396.2h0.4c0.4,0,3,2.6,7.8,8v2h-0.4c-0.4,0-3-2.6-7.8-8V396.2z
		 M779.1,401.4h0.4c0.4,0,3,2.6,7.8,7.8v1.6h-0.4c-0.4,0-3-2.6-7.8-8V401.4z M780.5,481.4h0.4c0.4,0,3,2.6,8,8v1.6h-0.4
		c-0.4,0-3-2.6-8-8V481.4z M780.5,486.2h0.4c0.4,0,3,2.6,8,7.8v1.6h-0.4c-0.4,0-3-2.6-8-8V486.2z M780.5,491h0.4c0.4,0,3,2.6,8,7.8
		v2h-0.4c-0.4,0-3-2.6-8-8V491z"/>
	<path class="st0" d="M832.9,390.6h26c7,0,11.8,2.4,14.6,7.2c1.4,2.2,2,4.6,2,7.2v30c0,6.6-4,11.2-11.8,13.8h-18.2v42.8
		c0,0.6-0.2,0.8-0.8,0.8h-11.8c-0.6,0-0.8-0.2-0.8-0.8v-100C832.3,390.8,832.5,390.6,832.9,390.6z M835.3,493.8l7.8,8.2l-0.8,0.4
		l-8-8.2L835.3,493.8z M838.5,493.8h1.2c0.4,0,3.2,2.8,8.4,8.2v0.4h-2c-0.4,0-3.2-2.8-8.2-8.2L838.5,493.8z M842.9,493.8h1.6
		c0.4,0,3.2,2.8,8.2,8.2v0.4h-1.6c-0.4,0-3.2-2.8-8.2-8.2V493.8z M845.5,404v31.6h12.2c3-0.4,4.4-1.8,4.4-4.2V408
		c-0.6-2.6-1.8-4-4-4L845.5,404L845.5,404z M847.5,406.8h0.4c0.4,0,3,2.6,7.8,7.8v2h-0.2c-0.4,0-3-2.6-8-7.8V406.8z M847.5,411.4
		h0.4c0.4,0,3,2.6,7.8,8v2h-0.2c-0.4,0-3-2.6-8-7.8V411.4z M847.5,416.6h0.4c0.4,0,3,2.6,7.8,7.8v1.6h-0.2c-0.4,0-3-2.6-8-8V416.6z
		 M847.5,421.4h0.4c0.4,0,3,2.6,7.8,7.8v2h-0.2c-0.4,0-3-2.6-8-8V421.4z M847.5,426.2h0.4c0.4,0,2.6,2.4,7.2,7.2v0.4h-2
		c-0.4,0-2.2-1.8-5.6-5.6V426.2z M847.5,431.4h0.4c0.4,0,1,0.6,2,2v0.4h-1.6c-0.6,0-0.8-0.2-0.8-0.8V431.4z M847.5,453.4h0.4
		c0.4,0,3,2.6,7.8,7.8v1.6h-0.2c-0.4,0-3-2.6-8-8V453.4z M847.5,458.2h0.4c0.4,0,3,2.6,7.8,7.8v1.6h-0.2c-2.4-1.8-5-4.4-8-7.8V458.2
		z M847.5,463h0.4l7.8,7.8v2h-0.2c-0.4,0-3-2.6-8-7.8V463z M847.5,468h0.4c0.4,0,3,2.6,7.8,8v1.6h-0.2c-0.4,0-3-2.6-8-7.8V468z
		 M847.5,472.8h0.4c0.4,0,3,2.6,7.8,8v2h-0.2c-0.4,0-3-2.8-8-8.4V472.8z M847.5,477.6h0.4c5.2,5,7.8,7.6,7.8,7.8v2h-0.2
		c-0.4,0-3-2.6-8-8V477.6z M847.5,482.8h0.4c0.4,0,3,2.6,7.8,7.8v1.6h-0.2c-0.4,0-3-2.6-8-7.8V482.8z M847.5,487.6h0.4
		c0.4,0,3,2.6,7.8,7.8v2h-0.2c-0.4,0-3-2.6-8-7.8V487.6z M847.5,492.2h0.4c0.4,0,3,2.6,7.8,8v2h-0.2c-0.4,0-3-2.6-8-7.8V492.2z
		 M848.3,450.8h2c0.4,0,3,2.6,7.8,7.8v0.4h-2c-0.4,0-3-2.6-7.8-7.8V450.8z M849.9,405.6h1.6c0.4,0,3.2,2.8,8.2,8.4v0.4h-1.6
		c-0.4,0-3.2-2.8-8.2-8.4V405.6z M853.5,450.8h1.6c0.4,0,3,2.6,7.8,7.8v0.4h-1.4c-0.4,0-3-2.6-8-7.8V450.8z M854.7,405.6h2
		c0.4,0,1.6,1.4,4,4v1.2c0,0.6-0.2,0.8-0.8,0.8l-5-5.6v-0.4H854.7z M858.3,450.8h1.6c0.4,0,3,2.6,8,7.8v0.4h-1.6
		c-0.4,0-3-2.6-7.8-7.8v-0.4H858.3z M863.3,450.4h1.2c0.4,0,3.2,2.8,8.4,8.2v0.4h-2c-5.4-5.2-8.2-8-8.2-8.2L863.3,450.4z M867.7,449
		h0.4c0.4,0,3.2,3,8.6,8.8l-0.8,0.4h-0.8c-0.4,0-3.2-2.8-8.2-8.2C867.1,449.4,867.3,449,867.7,449z M871.7,447.2
		c0,0.4,2.8,3.4,8.4,8.6c0,0.4-0.4,0.8-1.2,1.2c-0.4,0-3.2-3-8.8-8.8v-0.8C870.3,447.6,870.7,447.4,871.7,447.2z M874.1,444.8
		l8.2,8.6v0.4c0,0.6-0.2,0.8-0.8,0.8h-0.4l-8.2-8.2V446C872.9,445.6,873.3,445.2,874.1,444.8z M876.1,442l8.2,8.8v0.4
		c0,0.6-0.2,0.8-0.8,0.8c-0.4,0-3.2-3-8.6-8.8C874.9,442.8,875.3,442.4,876.1,442z M877.7,438.4c0,0.2,2.8,3,8.4,8.6
		c-0.4,1-0.8,1.6-1.2,1.6l-8.2-8.6C876.9,439,877.3,438.4,877.7,438.4z M877.3,400.8c3.6,3.2,5.6,5.4,6.4,6.8v0.4
		c-0.4,0-2.4-2.2-6.4-6.4V400.8z M877.7,434.4h0.4c0.4,0,3,2.6,8,7.8v2h-0.6c-5.6-5.2-8.4-8-8.4-8.4
		C877.5,435.6,877.7,435,877.7,434.4z M877.7,405.2h0.4c0.4,0,3,2.6,8,8v2h-0.6c-5-4.6-7.8-7.4-8-8.2v-1.8H877.7z M877.7,410h0.4
		c0.4,0,3,2.6,8,7.8v2h-0.6c-0.4,0-3-2.6-8-8V410H877.7z M877.7,415h0.4c0.4,0,3,2.6,8,7.8v1.6h-0.6c-0.4,0-3-2.6-8-7.8V415H877.7z
		 M877.7,419.8h0.4c0.4,0,3,2.6,8,7.8v2h-0.6c-0.4,0-3-2.6-8-7.8v-2H877.7z M877.7,424.6h0.4c0.4,0,3,2.6,8,8v2h-0.6
		c-0.4,0-3-2.6-8-7.8v-2.2H877.7z M877.7,429.6h0.4c0.4,0,3,2.6,8,8v1.6h-0.6c-0.4,0-3-2.6-8-7.8v-1.8H877.7z"/>
	<path class="st0" d="M933.1,479.2h0.2v12.2c0,0.6-0.2,0.8-0.8,0.8h-39c-0.6,0-0.8-0.2-0.8-0.8v-100c0.2-0.6,0.4-0.8,0.8-0.8h11.8
		c0.6,0.2,0.8,0.4,0.8,0.8v87.2h27L933.1,479.2L933.1,479.2z M895.5,493.8h1.2c0.4,0,3,2.8,8.2,8.2l-0.8,0.4h-1.2
		c-0.4,0-3-2.8-8.2-8.2L895.5,493.8z M900.1,493.8h1.2c0.4,0,3.2,2.8,8.2,8.2v0.4h-2c-0.4,0-3.2-2.8-8.2-8.2L900.1,493.8z
		 M904.5,493.8h1.6c0.4,0,3.2,2.8,8.2,8.2v0.4h-1.6c-0.4,0-3.2-2.8-8.2-8.2V493.8z M908.5,393l7.8,8.4v2h-0.4c-0.4,0-3-2.8-8.2-8.2
		V394C907.7,393.4,908.1,393,908.5,393z M907.7,398.2h0.4c0.4,0,3.2,2.8,8.2,8.2v1.6h-0.4c-0.4,0-3-2.8-8.2-8.2V398.2z M908.5,403
		l7.8,8.2v1.2c0,0.6-0.2,0.8-0.8,0.8l-7.8-8.2v-1.2C907.7,403.2,908.1,403,908.5,403z M908.5,407.6c0,0.4,2.6,3.2,7.8,8.4v2h-0.4
		c-0.4,0-3-2.8-8.2-8.2v-1.2C907.7,408,908.1,407.6,908.5,407.6z M907.7,412.8h0.4c0.4,0,3.2,2.8,8.2,8.2v1.6h-0.4
		c-0.4,0-3-2.8-8.2-8.4V412.8z M908.5,417.6l7.8,8.2v1.2c0,0.6-0.2,0.8-0.8,0.8l-7.8-8.2v-1.2C907.7,417.8,908.1,417.6,908.5,417.6z
		 M907.7,422.8h0.4c0.4,0,3.2,2.8,8.2,8.2v1.6h-0.4c-0.4,0-3-2.8-8.2-8.2V422.8z M907.7,427.4h0.4c0.4,0,3.2,2.8,8.2,8.2v1.6h-0.4
		c-0.4,0-3-2.8-8.2-8.4V427.4z M908.5,432.2l7.8,8.2v2h-0.4c-0.4,0-3-2.8-8.2-8.2V433C907.7,432.4,908.1,432.2,908.5,432.2z
		 M907.7,437.4h0.4c0.4,0,3.2,2.8,8.2,8.2v1.6h-0.4c-0.4,0-3-2.8-8.2-8.2V437.4z M907.7,442h0.4c0.4,0,3.2,2.8,8.2,8.4v1.2
		c0,0.6-0.2,0.8-0.8,0.8l-7.8-8.2L907.7,442L907.7,442z M908.5,446.8l7.8,8.2v2h-0.4c-0.4,0-3-2.8-8.2-8.2v-1.2
		C907.7,447,908.1,446.8,908.5,446.8z M907.7,452h0.4c0.4,0,3.2,2.8,8.2,8.2v1.6h-0.4c-0.4,0-3-2.8-8.2-8.2V452z M907.7,456.6h0.4
		c0.4,0,3.2,2.8,8.2,8.4v1.2c0,0.6-0.2,0.8-0.8,0.8l-7.8-8.2L907.7,456.6L907.7,456.6z M908.5,461.4l7.8,8.2v2h-0.4
		c-0.4,0-3-2.8-8.2-8.4V462C907.7,461.6,908.1,461.4,908.5,461.4z M907.7,466.6h0.4c0.4,0,3.2,2.8,8.2,8.2v1.6h-0.4
		c-0.4,0-3-2.8-8.2-8.2V466.6z M907.7,471.4h0.4c0.4,0,2.2,1.8,5.6,5.4v0.4h-2c-0.4,0-1.6-1.4-4-4V471.4z M908.5,476l0.4,0.8v0.4
		h-0.4c-0.6,0-0.8-0.2-0.8-0.8L908.5,476z M909.3,493.8h0.8c1.6,0,4.6,2.8,9.6,8.2l-0.8,0.4h-1.2c-0.4,0-3.2-2.8-8.4-8.2V493.8z
		 M914.9,493.8h1.2c0.4,0,3.2,2.8,8.4,8.2v0.4h-2c-0.4,0-3.2-2.8-8.2-8.2L914.9,493.8z M919.1,493.8h1.6c0.4,0,3.2,2.8,8.2,8.2v0.4
		h-1.4c-0.4,0-3.2-2.8-8.2-8.2v-0.4H919.1z M924.7,493.8h1.2c0.4,0,3.2,2.8,8.2,8.2l-0.8,0.4h-1.2c-0.4,0-3.2-2.8-8.4-8.2
		L924.7,493.8z M929.5,493.8h1.2c0.4,0,3.2,2.8,8.4,8.2v0.4h-2c-0.4,0-3-2.8-8.2-8.2L929.5,493.8z M933.7,493.8h1.6
		c0.4,0,3.2,2.8,8.2,8.2l-0.8,0.4h-0.8c-0.4,0-3.2-2.8-8.2-8.2L933.7,493.8L933.7,493.8z M934.9,484h0.4c0.4,0,3.2,2.8,8.2,8.4v1.2
		c0,0.6-0.2,0.8-0.8,0.8l-7.8-8.2L934.9,484L934.9,484z M935.7,488.6l7.8,8.2v1.2c0,0.6-0.2,0.8-0.8,0.8l-7.8-8.2v-1.2
		C935.1,489,935.3,488.6,935.7,488.6z"/>
	<path class="st0" d="M944.3,390.8h38.4c0.6,0.2,0.8,0.4,0.8,0.8V403c0,0.6-0.2,0.8-0.8,0.8h-25.8v29.4h19c0.6,0.2,0.8,0.4,0.8,0.8
		v11.4c0,0.6-0.2,0.8-0.8,0.8h-19v33h27.8c0.6,0,0.8,0.4,0.8,0.8v11.4c0,0.6-0.2,0.8-0.8,0.8h-40.4c-0.6,0-0.8-0.2-0.8-0.8v-100
		C943.5,391,943.9,390.8,944.3,390.8z M945.9,494.2h0.8c0.4,0,3,2.6,7.8,8v0.4h-0.8c-0.4,0-3-2.6-8-7.8v-0.6H945.9z M949.9,494.2
		h1.6c0.4,0,3,2.6,8,8v0.4h-1.6c-0.4,0-3-2.6-8-7.8V494.2z M954.5,494.2h2l8,8v0.4h-2c-0.4,0-3-2.6-8-7.8V494.2z M959.3,408.6
		l7.8,8.4v1.2c0,0.6-0.2,0.8-0.8,0.8l-7.8-8.2v-1.2C958.7,408.8,958.9,408.6,959.3,408.6z M958.5,413.6h0.4c0.4,0,3.2,2.8,8.2,8.4
		v1.6h-0.4c-0.4,0-3-2.8-8.2-8.2V413.6z M958.5,418.4h0.4c0.4,0,3.2,2.8,8.2,8.4v1.2c0,0.6-0.2,0.8-0.8,0.8l-7.8-8.6L958.5,418.4
		L958.5,418.4z M959.3,423.2l7.2,7.6v0.4h-2c-0.4,0-2.2-2-6-6V424C958.7,423.4,958.9,423.2,959.3,423.2z M958.5,428.4h0.4
		c0.4,0,1.2,0.8,2.4,2.4v0.4h-1.6c-0.4,0-0.8-0.4-1.2-1.2L958.5,428.4L958.5,428.4z M959.3,448.2c0.4,0,3,2.6,7.8,7.8v1.2
		c0,0.6-0.2,0.8-0.8,0.8l-7.8-8.4v-0.8C958.7,448.4,958.9,448.2,959.3,448.2z M959.3,452.6l7.8,8.2v2h-0.4c-0.4,0-3-2.8-8.2-8.4
		v-1.2C958.7,452.8,958.9,452.6,959.3,452.6z M958.5,457.8h0.4c0.4,0,3.2,2.8,8.2,8.2v1.6h-0.4c-0.4,0-3-2.8-8.2-8.2V457.8z
		 M958.5,462.4h0.4c0.4,0,3.2,2.8,8.2,8.4v1.2c0,0.6-0.2,0.8-0.8,0.8l-7.8-8.2L958.5,462.4L958.5,462.4z M959.3,467.2l7.8,8.4v1.2
		c0,0.6-0.2,0.8-0.8,0.8l-7.8-8.2v-1.2C958.7,467.4,958.9,467.2,959.3,467.2z M958.5,472.4h0.4c0.4,0,2,1.6,4.8,4.8v0.4h-1.6
		c-0.4,0-1.6-1.2-3.6-3.6L958.5,472.4L958.5,472.4z M959.3,405.8h1.6c0.4,0,3,2.6,8,7.8v0.4h-1.6c-0.4,0-3-2.6-7.8-7.8v-0.4H959.3z
		 M959.3,494.2h2c0.4,0,3,2.6,8,8v0.4h-2c-0.4,0-3-2.6-7.8-7.8v-0.6H959.3z M962.5,448.2h1.6c0.4,0,3,2.6,7.8,7.8v0.4h-1.6
		c-0.4,0-3-2.6-7.8-7.8V448.2z M964.1,405.8h1.6c0.4,0,3,2.6,8,7.8v0.4h-1.6c-0.4,0-3-2.6-7.8-7.8v-0.4H964.1z M964.5,494.2h1.6
		c0.4,0,3,2.6,8,8v0.4h-1.6c-0.4,0-3-2.6-7.8-7.8v-0.6H964.5z M967.3,448.2h1.6c0.4,0,3.2,2.6,8.2,7.8v0.4h-2c-0.4,0-3-2.6-8-7.8
		v-0.4H967.3z M968.9,405.8h2c0.4,0,3,2.6,8,7.8v0.4h-2c-0.4,0-3-2.6-7.8-7.8v-0.4H968.9z M969.3,494.2h2c0.4,0,3,2.6,8,8v0.4h-2
		c-0.4,0-3-2.6-7.8-7.8v-0.6H969.3z M972.3,448.2h1.6c0.4,0,3,2.6,7.8,7.8v0.4h-2c-4.8-4.2-7.2-7-7.6-7.8v-0.4H972.3z M974.1,405.8
		h1.6c0.4,0,3,2.6,8,7.8v0.4h-1.6c-0.4,0-3-2.6-7.8-7.8v-0.4H974.1z M974.1,494.2h2c0.4,0,3,2.6,8,8v0.4h-2c-0.4,0-3-2.6-7.8-7.8
		v-0.6H974.1z M977.1,448.2h1.6c0.4,0,3,2.6,7.8,7.8v0.4h-1.6c-0.4,0-3-2.6-8-7.8v-0.4H977.1z M978.3,438.2h0.4c0.4,0,3,2.8,8.2,8.2
		v1.2c0,0.6-0.2,0.8-0.8,0.8c0-0.4-2.6-3.4-7.8-8.8L978.3,438.2L978.3,438.2z M979.1,443l7.8,8.2v1.2c0,0.6-0.2,0.8-0.8,0.8
		l-7.8-8.4v-1.2C978.5,443.4,978.7,443,979.1,443z M978.7,405.8h2c0.4,0,2.8,2.6,7.4,7.6h0.4v0.8h-2c-0.4,0-3-2.6-7.8-7.8V405.8z
		 M979.1,494.2h1.6c0.4,0,3,2.6,7.8,8v0.4h-1.6c-0.4,0-3-2.6-7.8-7.8V494.2z M983.5,405.8h2c0.4,0,3,2.6,7.8,7.8v0.4h-2
		c-0.4,0-3-2.6-7.8-7.8V405.8z M983.9,494.2h2c0.4,0,3,2.6,7.8,8v0.4h-2c-0.4,0-3-2.6-7.8-7.8V494.2z M985.5,393h0.4
		c0.4,0,3,2.6,7.8,8v0.4h-0.4c-0.4,0-3-2.6-7.8-7.8V393z M985.5,396.2h0.4c0.4,0,3,2.6,7.8,8v2h-0.4c-0.4,0-3-2.6-7.8-8V396.2z
		 M985.5,401.4h0.4c0.4,0,3,2.6,7.8,7.8v1.6h-0.4c-0.4,0-3-2.6-7.8-8V401.4z M987.1,481.4h0.4c0.4,0,3,2.6,8,8v1.6h-0.4
		c-0.4,0-3-2.6-8-8V481.4z M987.1,486.2h0.4c0.4,0,3,2.6,8,7.8v1.6h-0.4c-0.4,0-3-2.6-8-8V486.2z M987.1,491h0.4c0.4,0,3,2.6,8,7.8
		v2h-0.4c-0.4,0-3-2.6-8-8V491z"/>
	<path class="st0" d="M997.3,390.6h12c0.6,0.2,0.8,0.4,0.8,0.8v100c0,0.6-0.2,0.8-0.8,0.8h-12c-0.6,0-0.8-0.2-0.8-0.8v-100
		C996.7,390.8,996.9,390.6,997.3,390.6z M998.9,494.2h2c0.4,0,3,2.6,8,8v0.4h-2c-0.4,0-3-2.6-8-8V494.2z M1004.5,494.2h1.2
		c0.4,0,3,2.6,8,8v0.4h-2c-0.4,0-3-2.6-8-8L1004.5,494.2z M1008.9,494.2h1.6c0.4,0,3,2.6,7.8,8v0.4h-1.6c-0.4,0-3-2.6-7.8-8V494.2z
		 M1012.1,392.8h0.4c0.4,0,3,2.6,8,8v2h-0.4c-0.4,0-3-2.6-8-8V392.8z M1012.1,398.2h0.4c0.4,0,3,2.6,8,7.8v1.6h-0.4
		c-0.4,0-3-2.6-8-8V398.2z M1012.1,402.8h0.4c0.4,0,3,2.6,8,7.8v2h-0.4c-5.4-5-8-8-8-9.2V402.8z M1012.1,407.6h0.4
		c0.4,0,3,2.6,8,7.8v2h-0.4c-0.4,0-3-2.6-8-8V407.6z M1012.1,412.8h0.4c0.4,0,3,2.6,8,7.8v1.6h-0.4c-0.4,0-3-2.6-8-8V412.8z
		 M1012.1,417.6h0.4c0.4,0,3,2.6,8,7.8v2h-0.4c-0.4,0-3-2.6-8-8V417.6z M1012.1,422.4h0.4c0.4,0,3,2.6,8,7.8v2h-0.4
		c-0.4,0-3-2.6-8-8V422.4z M1012.1,427.6h0.4c0.4,0,3,2.6,8,7.8v1.6h-0.4c-0.4,0-3-2.6-8-8V427.6z M1012.1,432.2h0.4
		c0.4,0,3,2.6,8,7.8v2h-0.4c-0.4,0-3-2.6-8-8V432.2z M1012.1,437h0.4c0.4,0,3,2.6,8,7.8v2h-0.4c-0.4,0-3-2.6-8-8V437z M1012.1,442.2
		h0.4c0.4,0,3,2.6,8,7.8v1.6h-0.4c-0.4,0-3-2.6-8-8V442.2z M1012.1,447h0.4c0.4,0,3,2.6,8,7.8v2h-0.4c-0.4,0-3-2.6-8-8V447z
		 M1012.9,451.8l7.6,7.8v2h-0.4c-0.4,0-3-2.6-8-8v-1C1012.1,452,1012.5,451.8,1012.9,451.8z M1012.1,456.8h0.4c0.4,0,3,2.6,8,7.8
		v1.6h-0.4c-0.4,0-3-2.6-8-8V456.8z M1012.1,461.6h0.4c0.4,0,3,2.6,8,7.8v2h-0.4c-0.4,0-3-2.6-8-8V461.6z M1012.1,466.8h0.4
		c0.4,0,3,2.6,8,7.8v1.6h-0.4c-0.4,0-3-2.6-8-8V466.8z M1012.1,471.6h0.4c0.4,0,3,2.6,8,7.8v1.6h-0.4c-0.4,0-3-2.6-8-8V471.6z
		 M1012.1,476.4h0.4c0.4,0,3,2.6,8,7.8v2h-0.4c-0.4,0-3-2.6-8-8V476.4z M1012.1,481.4h0.4c0.4,0,3,2.6,8,7.8v1.6h-0.4
		c-0.4,0-3-2.6-8-8V481.4z M1012.1,486.2h0.4c0.4,0,3,2.6,8,7.8v1.6h-0.4c-0.4,0-3-2.6-8-8V486.2z M1012.1,491h0.4
		c0.4,0,3,2.6,8,7.8v2h-0.4c-0.4,0-3-2.6-8-8V491z"/>
	<path class="st0" d="M1028.5,390.8h13c0.6,0,5.8,18,15.8,54.2h0.4v-53.4c0.2-0.6,0.4-0.8,0.8-0.8h11.8c0.6,0.2,0.8,0.4,0.8,0.8v100
		c0,0.6-0.2,0.8-0.8,0.8h-12.6c-1-0.6-3.8-10.2-8.6-28.6c-0.2,0-2.8-8.6-7.6-26h-0.4v53.6c0,0.6-0.2,0.8-0.8,0.8h-11.8
		c-0.6,0-0.8-0.2-0.8-0.8v-100C1027.7,391,1028.1,390.8,1028.5,390.8z M1032.9,493.8h1.6c0.4,0,3.2,2.8,8.2,8.2v0.4h-1.6
		c-0.4,0-3.2-2.8-8.2-8.2V493.8z M1038.3,493.8h1.2c0.4,0,3,2.8,8.2,8.2l-0.8,0.4h-1.2c-0.4,0-3.2-2.8-8.4-8.2L1038.3,493.8z
		 M1043.1,493h0.4c0.4,0,3,2.6,7.8,7.8v0.8c0,0.6-0.2,0.8-0.8,0.8c-0.4,0-3-2.8-8.2-8.2C1042.9,494.2,1043.1,493.8,1043.1,493z
		 M1043.1,454h0.4c0.8,0,1.4,1.2,1.6,3.6h-0.4c-0.4,0-0.8-0.6-1.6-1.6V454z M1043.1,459h0.4c2.4,1.6,3.6,3.4,3.6,5.2h-0.4
		c-0.4,0-1.6-1.2-3.6-3.6V459z M1043.1,463.8h0.4c3.6,2.8,5.6,5.4,5.6,7.6c-1.6-1-3.6-2.8-6-5.6V463.8z M1043.1,468.6h0.4
		c5,4,7.6,7.4,7.6,10c-0.4,0-3-2.6-7.8-8v-2H1043.1z M1043.1,473.6h0.4c0.4,0,3,2.6,7.8,7.8v1.6h-0.4c-0.4,0-3-2.6-7.8-7.8V473.6z
		 M1043.1,478.4h0.4c0.4,0,3,2.6,7.8,7.8v2h-0.4c-0.4,0-3-2.6-7.8-7.8V478.4z M1043.1,483.2h0.4c0.4,0,3,2.6,7.8,7.8v2h-0.4
		c-0.4,0-3-2.6-7.8-7.8V483.2z M1043.1,488.2h0.4c0.4,0,3,2.6,7.8,7.8v1.6h-0.4c-0.4,0-3-2.6-7.8-7.8V488.2z M1046.3,398.2
		c5.2,4.4,7.8,7.6,7.8,9.8h-0.4c-5-4.2-7.6-7.2-7.6-9.4v-0.4H1046.3z M1047.9,405h0.4c5.2,4.6,7.8,7.8,7.8,9.4l-0.8,0.4
		C1050.3,410,1047.9,406.8,1047.9,405z M1050.1,412c0.4,0,2.4,2,6,6v1.6h-0.4C1052.1,416.8,1050.1,414.2,1050.1,412z M1052.3,418.8
		c0.4,0,1.6,1.4,4,4v1.2c0,0.6-0.2,0.8-0.8,0.8c-2-2-3.2-3.8-3.2-5.6V418.8z M1054.5,425.4l1.6,2v2h-0.4c-0.6,0-1.2-1.2-2-3.6
		L1054.5,425.4z M1062.1,493.8h1.6c0.4,0,3.2,2.8,8.2,8.2v0.4h-1.6c-0.4,0-3.2-2.8-8.2-8.2V493.8z M1067.7,493.8h1.2
		c0.4,0,3.2,2.8,8.2,8.2l-0.8,0.4h-1.2c-0.4,0-3.2-2.8-8.2-8.2L1067.7,493.8z M1072.3,493.8h1.2c0.4,0,3,2.6,7.8,7.8
		c0,0.6-0.2,0.8-0.8,0.8h-0.8l-8.2-8.2L1072.3,493.8z M1073.1,396.2h0.4c0.4,0,3,2.6,7.8,7.8v2h-0.4c-0.4-0.2-3-2.8-7.8-8.2V396.2z
		 M1073.1,401h0.4c0.4,0,3,2.6,7.8,8v2h-0.4c-0.4,0-3-2.6-7.8-7.8V401z M1073.1,406h0.4c0.4,0,3,2.6,7.8,7.8v1.6h-0.4
		c-0.4,0-3-2.6-7.8-8V406z M1073.1,410.8h0.4c0.4,0,3,2.6,7.8,7.8v2h-0.4c-0.4,0-3-2.6-7.8-7.8V410.8z M1073.1,415.6h0.4
		c0.4,0,3,2.6,7.8,7.8v2h-0.4c-0.4,0-3-2.6-7.8-7.8V415.6z M1073.1,420.8h0.4c0.4,0,3,2.6,7.8,7.8v1.6h-0.4c-0.4,0-3-2.6-7.8-7.8
		V420.8z M1073.1,425.4h0.4c0.4,0,3,2.6,7.8,7.8v2h-0.4c-0.4,0-3-2.6-7.8-7.8V425.4z M1073.1,430.2h0.4c0.4,0,3,2.6,7.8,7.8v2h-0.4
		c-0.4,0-3-2.6-7.8-7.8V430.2z M1073.1,435.4h0.4c0.4,0,3,2.6,7.8,8v1.6h-0.4c-0.4,0-3-2.6-7.8-7.8V435.4z M1073.1,440h0.4
		c0.4,0,3,2.6,7.8,7.8v2h-0.4c-0.4,0-3-2.6-7.8-7.8V440z M1073.1,444.8h0.4c0.4,0,3,2.6,7.8,7.8v2h-0.4c-0.4,0-3-2.6-7.8-7.8V444.8z
		 M1073.1,450h0.4c0.4,0,3,2.6,7.8,8v1.6h-0.4c-0.4,0-3-2.6-7.8-7.8V450z M1073.1,454.6h0.4c0.4,0,3,2.6,7.8,7.8v2h-0.4
		c-0.4,0-3-2.6-7.8-8V454.6z M1073.1,459.4h0.4c0.4,0,3,2.6,7.8,7.8v2h-0.4c-0.4,0-3-2.6-7.8-7.8V459.4z M1073.1,464.6h0.4
		c0.4,0,3,2.6,7.8,7.8v1.6h-0.4c-0.4,0-3-2.6-7.8-7.8V464.6z M1073.1,469.2h0.4c0.4,0,3,2.6,7.8,7.8v2h-0.4c-0.4,0-3-2.6-7.8-7.8
		V469.2z M1073.1,474.4h0.4c0.4,0,3,2.6,7.8,7.8v1.6h-0.4c-0.4,0-3-2.6-7.8-7.8V474.4z M1073.1,479.2h0.4c0.4,0,3,2.6,7.8,7.8v1.6
		h-0.4c-0.4,0-3-2.6-7.8-7.8V479.2z M1073.1,484h0.4c0.4,0,3,2.6,7.8,7.8v2h-0.4c-0.4,0-3-2.6-7.8-7.8V484z M1073.1,489h0.4
		c0.4,0,3,2.6,7.8,7.8v1.6h-0.4c-0.4,0-3-2.6-7.8-7.8V489z"/>
	<path class="st0" d="M1144.9,390.6h11c1,1,3.6,11.6,7.6,31.4c1,3.6,6.4,27,15.8,70l-0.8,0.4h-12.4c-0.8,0-2.4-6.4-4.8-19h-21.8
		c-2.4,11-4,17.4-4.8,19h-12.8l-0.8-0.4l23-100.8L1144.9,390.6z M1123.5,494.2h0.8c5,4.8,7.6,7.6,7.6,8v0.4h-0.4c-0.4,0-3-2.6-8-8
		V494.2z M1127.1,494.2h2c0.4,0,3,2.6,7.8,8v0.4h-2c-0.4,0-3-2.6-8-8v-0.4H1127.1z M1132.3,494.2h1.6c0.4,0,3,2.6,7.8,8v0.4h-1.6
		c-0.4,0-3-2.6-8-8v-0.4H1132.3z M1137.3,492.2l8.4,8.8v0.4c0,0.4-0.4,0.8-1.2,1.2l-8-8.4V493
		C1136.7,492.4,1136.9,492.2,1137.3,492.2z M1138.3,488.6c0.4,0,3,2.8,8.2,8.4v0.8c0,0.6-0.2,0.8-0.8,0.8c-0.4,0-3.2-2.8-8.4-8.4
		v-0.8C1137.5,488.8,1137.7,488.6,1138.3,488.6z M1138.7,484.6h0.4c0.4,0,3,2.8,8.2,8.4v0.8c0,0.6-0.2,0.8-0.8,0.8l-8.2-8.6
		C1138.5,485.4,1138.7,485,1138.7,484.6z M1140.1,480.2l8.4,8.8c-0.2,0.4-0.4,1-0.4,1.6h-0.4c-0.4,0-3-2.8-8.2-8.4V481
		C1139.5,480.6,1139.7,480.2,1140.1,480.2z M1140.1,476.8h0.8c0.4,0,3.2,2.8,8.4,8.2v0.4c0,0.4-0.4,0.8-1.2,1.2l-8-8.4L1140.1,476.8
		L1140.1,476.8z M1150.1,424.6l-7.6,35.4h16l-8-35.4H1150.1z M1142.5,475h1.6c0.4,0,3,2.6,7.8,8v0.4h-1.6c-0.4,0-3-2.6-8-8V475
		H1142.5z M1145.7,455.2c0.4,0,1.2,0.8,2.4,2.4v0.4h-1.6c-0.4,0-1-0.6-1.6-1.6V456C1145.1,455.4,1145.3,455.2,1145.7,455.2z
		 M1146.9,450.8l6.4,6.8v0.4h-2c-0.4,0-2.2-1.8-5.6-5.6C1146.1,451.4,1146.5,450.8,1146.9,450.8z M1147.7,447l8,8.2v1.6h-0.4
		c-0.4,0-3.2-2.8-8.4-8.4v-0.8C1147.1,447.2,1147.3,447,1147.7,447z M1147.3,475h2c0.4,0,3,2.6,7.8,8v0.4h-2c-0.4,0-3-2.6-8-8V475
		H1147.3z M1147.7,443.4h0.8c4,3.2,6,5.6,6,7.2v0.4h-0.4c-0.4,0-2.6-2.2-6.4-6.4V443.4z M1148.9,439h0.4c2.6,2,4,4,4,6h-0.4
		c-3-2.4-4.4-4-4.4-4.8C1148.9,439.6,1148.9,439.2,1148.9,439z M1149.7,435h0.4c0.8,0,1.4,1,1.6,3.2h-0.4c-0.4,0-1-0.6-1.6-1.6V435z
		 M1152.1,475h2c0.4,0,3,2.6,7.8,8l-0.8,0.4h-1.2c-0.4,0-3-2.6-8-8V475H1152.1z M1157.3,475h1.6c1.4,0.6,2,1.8,2,3.6h-0.4
		c-0.4,0-1.4-1-3.2-3.2V475z M1159.3,393.8h0.4c0.4,0,2.8,2.6,7.6,7.6v0.4h-0.4c-0.4,0-2.8-2.6-7.6-7.6V393.8z M1160.5,398.6h0.4
		c5.4,4.4,8,7.6,8,10h-0.4C1163.1,404,1160.5,400.8,1160.5,398.6z M1162.3,404.4c5,4.8,7.6,8,7.6,9.6v0.4h-0.4c-5.4-4.6-8-7.8-8-9.6
		L1162.3,404.4z M1163.3,411.2h0.4c5.2,4.4,7.8,7.6,7.8,9.6h-0.4C1165.9,416.2,1163.3,413,1163.3,411.2z M1164.9,417.2
		c5.4,4.6,8,7.6,8,9.2v0.8h-0.4c-5-4.2-7.6-7.4-7.6-9.6V417.2z M1165.9,423.6h0.4c5.4,4.6,8,7.8,8,10h-0.4
		C1168.7,429,1165.9,425.8,1165.9,423.6z M1167.7,430.2h0.4c0.4,0,2.8,2.6,7.6,7.6v2C1170.3,435.2,1167.7,432.2,1167.7,430.2z
		 M1168.3,494.6h0.4c0.4,0,2.8,2.6,7.6,7.6h-0.4C1175.5,502.2,1173.1,499.6,1168.3,494.6z M1168.7,436.2h0.4c5.4,4.4,8,7.8,8,10
		h-0.4C1171.5,441.8,1168.7,438.4,1168.7,436.2z M1170.3,443h0.4c5.4,4.4,8,7.6,8,9.6h-0.4C1173.1,448,1170.3,444.8,1170.3,443z
		 M1171.9,494.2h1.2c0.4,0,3,2.6,7.8,8v0.4h-2c-0.4,0-3-2.6-8-8L1171.9,494.2z M1171.9,449c5.4,4.6,8,7.6,8,9.2v0.4h-0.4
		c-5-4.4-7.6-7.2-7.6-8.8V449z M1173.1,455.2h0.4c5.2,4.4,7.8,7.6,7.8,10h-0.4C1175.7,460.8,1173.1,457.4,1173.1,455.2z M1174.7,462
		h0.4c5.4,4.4,8,7.6,8,9.6h-0.4C1177.3,467,1174.7,464,1174.7,462z M1176.3,468c5.4,4.4,8,7.6,8,10h-0.4c-5-4.4-7.6-7.2-7.6-8.8V468
		z M1176.3,494.2h1.6c0.4,0,3,2.6,7.8,8v0.4h-1.6c-0.4,0-3-2.6-8-8v-0.4H1176.3z M1177.5,474.2h0.4c5.2,4.4,7.8,7.6,7.8,10h-0.2
		C1180.1,479.8,1177.5,476.6,1177.5,474.2z M1179.1,481h0.4c5,4.4,7.6,7.2,7.6,8.6v0.8C1181.7,486,1179.1,483,1179.1,481z
		 M1180.3,487h0.4c5.4,4.4,8,7.6,8,10h-0.4C1182.9,492.6,1180.3,489.2,1180.3,487z M1181.9,493.4h0.4c5,4.4,7.6,7.2,7.6,8.8
		l-0.8,0.4c-0.4,0-3-2.6-8-8v-0.4C1181.5,494.2,1181.9,493.8,1181.9,493.4z"/>
	<path class="st0" d="M1186.3,390.6h12c0.6,0.2,0.8,0.4,0.8,0.8v100c0,0.6-0.2,0.8-0.8,0.8h-12c-0.6,0-0.8-0.2-0.8-0.8v-100
		C1185.7,390.8,1185.9,390.6,1186.3,390.6z M1187.9,494.2h2c0.4,0,3,2.6,8,8v0.4h-2c-0.4,0-3-2.6-8-8V494.2z M1193.5,494.2h1.2
		c0.4,0,3,2.6,8,8v0.4h-2c-0.4,0-3-2.6-8-8L1193.5,494.2z M1197.9,494.2h1.6c0.4,0,3,2.6,7.8,8v0.4h-1.6c-0.4,0-3-2.6-7.8-8V494.2z
		 M1200.9,392.8h0.4c0.4,0,3,2.6,8,8v2h-0.4c-0.4,0-3-2.6-8-8V392.8z M1200.9,398.2h0.4c0.4,0,3,2.6,8,7.8v1.6h-0.4
		c-0.4,0-3-2.6-8-8V398.2z M1200.9,402.8h0.4c0.4,0,3,2.6,8,7.8v2h-0.4c-5.4-5-8-8-8-9.2V402.8z M1200.9,407.6h0.4
		c0.4,0,3,2.6,8,7.8v2h-0.4c-0.4,0-3-2.6-8-8V407.6z M1200.9,412.8h0.4c0.4,0,3,2.6,8,7.8v1.6h-0.4c-0.4,0-3-2.6-8-8V412.8z
		 M1200.9,417.6h0.4c0.4,0,3,2.6,8,7.8v2h-0.4c-0.4,0-3-2.6-8-8V417.6z M1200.9,422.4h0.4c0.4,0,3,2.6,8,7.8v2h-0.4
		c-0.4,0-3-2.6-8-8V422.4z M1200.9,427.6h0.4c0.4,0,3,2.6,8,7.8v1.6h-0.4c-0.4,0-3-2.6-8-8V427.6z M1200.9,432.2h0.4
		c0.4,0,3,2.6,8,7.8v2h-0.4c-0.4,0-3-2.6-8-8V432.2z M1200.9,437h0.4c0.4,0,3,2.6,8,7.8v2h-0.4c-0.4,0-3-2.6-8-8V437z M1200.9,442.2
		h0.4c0.4,0,3,2.6,8,7.8v1.6h-0.4c-0.4,0-3-2.6-8-8V442.2z M1200.9,447h0.4c0.4,0,3,2.6,8,7.8v2h-0.4c-0.4,0-3-2.6-8-8V447z
		 M1201.7,451.8l7.6,7.8v2h-0.4c-0.4,0-3-2.6-8-8v-1C1201.1,452,1201.3,451.8,1201.7,451.8z M1200.9,456.8h0.4c0.4,0,3,2.6,8,7.8
		v1.6h-0.4c-0.4,0-3-2.6-8-8V456.8z M1200.9,461.6h0.4c0.4,0,3,2.6,8,7.8v2h-0.4c-0.4,0-3-2.6-8-8V461.6z M1200.9,466.8h0.4
		c0.4,0,3,2.6,8,7.8v1.6h-0.4c-0.4,0-3-2.6-8-8V466.8z M1200.9,471.6h0.4c0.4,0,3,2.6,8,7.8v1.6h-0.4c-0.4,0-3-2.6-8-8V471.6z
		 M1200.9,476.4h0.4c0.4,0,3,2.6,8,7.8v2h-0.4c-0.4,0-3-2.6-8-8V476.4z M1200.9,481.4h0.4c0.4,0,3,2.6,8,7.8v1.6h-0.4
		c-0.4,0-3-2.6-8-8V481.4z M1200.9,486.2h0.4c0.4,0,3,2.6,8,7.8v1.6h-0.4c-0.4,0-3-2.6-8-8V486.2z M1200.9,491h0.4
		c0.4,0,3,2.6,8,7.8v2h-0.4c-0.4,0-3-2.6-8-8V491z"/>
	<path class="st0" d="M1217.3,390.4h26.2c8.2,0,13.4,3.4,15.8,10c0.6,1.8,0.8,3.4,0.8,4.8v29.2c0,6.8-3.6,11.4-11,14l-1.6,0.2
		c0.6,1.8,6,16.2,16.2,43.2l-0.8,0.4h-13.2c-1.2-1.8-5.4-12.6-12.6-32.6c-3-7.4-4.6-11-4.8-11h-2.4v42.8c0,0.6-0.2,0.8-0.8,0.8
		h-11.8c-0.6,0-0.8-0.2-0.8-0.8V391C1216.7,390.6,1216.9,390.4,1217.3,390.4z M1218.9,494.2h0.4c0.4,0,3,2.6,7.8,8h-0.4
		C1226.5,502.2,1223.9,499.4,1218.9,494.2z M1222.1,493.8h2c0.4,0,3.2,2.8,8.4,8.4l-0.8,0.4h-1.2c-0.4,0-3.2-2.8-8.4-8.4V493.8z
		 M1227.7,493.8h1.2c0.4,0,3.2,2.8,8.4,8.4v0.4h-2c-0.4,0-3-2.8-8.2-8.4L1227.7,493.8z M1230.1,403.8v31.6h11.4
		c3.4,0,5.2-1.8,5.2-5.2v-21.6c-0.2-3.2-1.6-4.6-4-4.6h-12.6V403.8z M1232.5,407.4l7.8,8.4v1.2c0,0.6-0.2,0.8-0.8,0.8
		c-5.2-5.2-7.8-8.2-7.8-9.6C1231.7,407.6,1231.9,407.4,1232.5,407.4z M1232.5,412.2l7.8,8.4v2h-0.4c-5.6-4.8-8.2-8-8.2-9.6
		C1231.7,412.4,1231.9,412.2,1232.5,412.2z M1232.5,417.2l7.8,8.4v1.6h-0.4c-0.4,0-3-2.8-8.2-8.4V418
		C1231.7,417.6,1231.9,417.2,1232.5,417.2z M1232.5,422l7.8,8.2v2h-0.4c-5.6-4.8-8.2-8-8.2-9.6C1231.7,422.2,1231.9,422,1232.5,422z
		 M1232.5,426.8l6,6.4v0.4h-2c-0.4,0-2-1.6-4.8-4.8v-1.2C1231.7,427,1231.9,426.8,1232.5,426.8z M1232.5,432l0.8,1.2v0.4h-0.8
		c-0.6,0-0.8-0.2-0.8-0.8C1231.7,432.2,1231.9,432,1232.5,432z M1232.5,453l1.6,4h-0.4c-1.4-0.6-2-1.8-2-3.2
		C1231.7,453.2,1231.9,453,1232.5,453z M1232.5,457.8c3,2.8,4.4,5,4.4,7.2c-0.4,0-2-1.8-5.2-5.2v-1.2
		C1231.7,458,1231.9,457.8,1232.5,457.8z M1232.5,462.8c4.8,4.4,7.2,7.6,7.2,9v0.4c-0.4,0-3-2.6-7.8-7.8v-0.8
		C1231.7,463.2,1231.9,462.8,1232.5,462.8z M1232.5,468c0.4,0,3,2.6,7.8,7.8v2h-0.4c-5.6-4.8-8.2-8-8.2-9.4L1232.5,468z
		 M1232.5,472.4l7.8,8.4v2h-0.4c-0.4,0-3-2.8-8.2-8.2v-1.2C1231.7,472.6,1231.9,472.4,1232.5,472.4z M1232.5,477.6l7.8,8.4v1.6h-0.4
		c-0.4,0-3-2.8-8.2-8.2v-0.8C1231.7,477.8,1231.9,477.6,1232.5,477.6z M1232.5,482.2l7.8,8.4v2h-0.4c-5.6-4.8-8.2-8-8.2-9.6
		C1231.7,482.6,1231.9,482.2,1232.5,482.2z M1232.5,487l7.8,8.4v2h-0.4c-0.4,0-3-2.8-8.2-8.4v-1.2
		C1231.7,487.2,1231.9,487,1232.5,487z M1232.5,492.2l7.8,8.4v1.6h-0.4c-5.6-4.8-8.2-8-8.2-9.6L1232.5,492.2z M1233.3,405.4h1.6
		c0.4,0,3.2,2.8,8.4,8.2v0.4h-1.8c-0.4,0-3.2-2.8-8.4-8.2v-0.4H1233.3z M1238.1,405.4h2c0.4,0,2,1.6,4.8,4.8v2h-0.4
		c-0.4,0-2.4-2.2-6.4-6.4V405.4z M1243.1,405.8h0.4c0.4,0,0.8,0.4,1.2,1.2v0.4h-0.4c-0.4,0-0.8-0.4-1.2-1.2V405.8z M1252.3,449h0.4
		c0.4,0,3.2,3,8.6,8.8c-0.8,0.6-1.4,0.8-2,0.8l-8.4-8.8L1252.3,449z M1251.1,452.6c5,4.4,7.6,7.4,7.6,9h-0.4c-4.8-4-7.2-7-7.2-8.6
		V452.6z M1252.3,493.8h1.2c0.4,0,3.2,2.8,8.2,8.4l-0.8,0.4h-1.2c-0.4,0-3.2-2.8-8.2-8.4L1252.3,493.8z M1253.9,460.4h0.4
		c5,4.2,7.6,7.4,7.6,9.6h-0.4C1256.3,465.6,1253.9,462.6,1253.9,460.4z M1254.7,447.4h1.2c0.4,0,3.2,2.8,8.4,8.2v0.4
		c0,0.6-0.2,0.8-0.8,0.8c-0.4,0-3.2-2.8-8.8-8.6L1254.7,447.4L1254.7,447.4z M1257.1,493.8h1.2c0.4,0,3.2,2.8,8.2,8.4v0.4h-2
		c-0.4,0-3.2-2.8-8.4-8.4L1257.1,493.8z M1256.5,468h0.4c5,4.2,7.6,7.4,7.6,9.8C1259.3,473.4,1256.5,470.2,1256.5,468z M1257.9,445
		h0.4c0.4,0,3.2,3,8.6,8.8c0,0.6-0.2,0.8-0.8,0.8h-0.4c-0.4,0-3.2-3-8.6-8.8C1257.1,445.2,1257.3,445,1257.9,445z M1260.5,441.8
		l8.4,8.6v0.4c0,0.4-0.4,0.8-1.2,1.2l-8.4-8.8v-0.4C1259.5,442.6,1259.9,442.2,1260.5,441.8z M1259.9,476.4h0.4c4.8,4,7.2,7,7.2,9.2
		C1262.3,481.2,1259.9,478.2,1259.9,476.4z M1261.7,438.6c0.4,0,3.2,2.8,8.4,8.4v0.8c0,0.6-0.2,0.8-0.8,0.8l-8.4-8.8v-0.4
		C1261.1,439,1261.3,438.6,1261.7,438.6z M1261.3,493.8h1.6c0.4,0,3,2.8,8.2,8.4v0.4h-1.6c-0.4,0-3.2-2.8-8.4-8.4v-0.4H1261.3z
		 M1261.7,401c4.4,3.8,6.6,6.2,6.8,7.2h-0.4c-0.4,0-2.6-2.2-6.4-6.4V401z M1262.7,404.6c5.2,5.2,7.8,8.2,7.8,9.4v0.8h-0.4
		c-0.4,0-3.2-2.8-8.4-8.4v-1.2C1261.9,404.8,1262.1,404.6,1262.7,404.6z M1262.7,409.8l7.8,8.2v1.6h-0.4c-0.4,0-3.2-2.8-8.4-8.2
		v-0.8C1261.9,410,1262.1,409.8,1262.7,409.8z M1262.7,414.6l7.8,8.2v2h-0.4c-5.6-4.6-8.4-8-8.4-9.8L1262.7,414.6z M1262.7,419.2
		l7.8,8.4v2h-0.4c-0.4,0-3.2-2.8-8.4-8.2v-1.2C1261.9,419.6,1262.1,419.2,1262.7,419.2z M1262.7,424.4l7.8,8.4v1.6h-0.4
		c-0.4,0-3.2-2.8-8.4-8.2v-0.8C1261.9,424.6,1262.1,424.4,1262.7,424.4z M1262.7,429.2l7.8,8.4v2h-0.4c-5.6-4.8-8.4-8-8.4-9.6
		C1261.9,429.4,1262.1,429.2,1262.7,429.2z M1262.7,434l7.8,8.8v1.6h-0.4c-0.4,0-3.2-2.8-8.4-8.2v-1.6
		C1261.9,434.2,1262.1,434,1262.7,434z M1263.1,484c5,4,7.6,7.2,7.6,9.8c-5-4.2-7.6-7.4-7.6-9.4V484z M1265.7,491.8h0.4
		c5,4.2,7.6,7.4,7.6,9.6h-0.4C1268.3,497.2,1265.7,494,1265.7,491.8z"/>
</g>
</svg>
